<?xml version="1.0" encoding="utf-8"?>
<!-- Generator: Adobe Illustrator 26.3.1, SVG Export Plug-In . SVG Version: 6.00 Build 0)  -->
<svg version="1.1" id="Слой_2_00000129173177979025489970000010730015233106117772_"
	 xmlns="http://www.w3.org/2000/svg" xmlns:xlink="http://www.w3.org/1999/xlink" x="0px" y="0px" viewBox="0 0 1749.6 1081.6"
	 style="enable-background:new 0 0 1749.6 1081.6;" xml:space="preserve">
<style type="text/css">
	.st0{fill:#BBE1F8;}
	.st1{fill:#6EA9D0;}
	.st2{fill:#7ABDE9;}
	.st3{fill:#95C6EC;}
	.st4{fill:#444F5A;}
	.st5{fill:#F29699;}
	.st6{fill:#F8C6C8;}
	.st7{fill:#3E4149;}
	.st8{fill:#FFFFFF;}
	.st9{fill:#0D4C75;}
	.st10{fill:#2D719F;}
	.st11{fill:#AED1E6;}
	.st12{fill:#3283B9;}
	.st13{fill:#6094B5;}
	.st14{fill:#BB7678;}
	.st15{fill:#D78789;}
	.st16{fill:#E6B9BA;}
</style>
<path class="st0" d="M319.2,993.1c0,0-249.3,18.7-290.3-107.5s45.6-137.5,45.6-137.5s-26.8-79.5-26.2-145.8c0,0-46.2-51.3-47.3-97.6
	s15.4-73.6,54.7-87.9s25.7-38.1,8-70.7S24.8,208.8,97.8,139.3s84.9-35.3,144.2-57s96.9-62.7,159-64.4S519.5,96,569.6,147.8
	s103.8,6,161.9-70.4s192-89.7,241-63.5s61.4,101.3,138,108.7c84,8.1,147.6-19,186.3-24.6s130.3-0.4,139.5,108.5
	s103.8,107.4,140.4,126c103.5,52.8,115.8,173.2,72.3,215.6s-359,414.6-359,414.6s-76.1,23.7-242.8,27.1S319.2,993.1,319.2,993.1z"/>
<path class="st1" d="M180.4,352.5c0,0,289.5,295.3,215.4,541.4l-185.7-61.5C210.1,832.3,133.7,531.4,180.4,352.5z"/>
<path class="st2" d="M360.8,949.7c0,0-354.8-6-310.3-437.7c0,0,278.7,137.6,323.1,365.9L360.8,949.7z"/>
<path class="st3" d="M357.3,850.7c0,0-92,56.2-105.1,52.2c0,0,63.8,57.4,139.6,58.9s81.8-69.1,56.4-99.4
	C429.5,840.1,403.4,826.4,357.3,850.7z"/>
<path class="st1" d="M1455.9,403.7c0,0,22.8-72.4,10.3-182.4c0,0-120.2,73.5-181.8,108.9l-2.8,157.9l164.1-14.2L1455.9,403.7z"/>
<path class="st2" d="M1191.4,284.2c0,0,33.1-91.4,164.7-222.4c0,0,44.7,160.1-5.8,379.9l-103.1,65.2L1191.4,284.2z"/>
<path class="st2" d="M1602.9,433.3c0,0-327.4,252.5-288,506.6l192.4-35.4C1507.3,904.5,1624.6,617,1602.9,433.3z"/>
<path class="st3" d="M1405.5,974.2c92.8,0.1,317.2-35.6,343.7-377.7c0,0-298.8,85.6-383.4,302.2l-0.1,35.4
	C1365.6,956.1,1383.4,974.1,1405.5,974.2L1405.5,974.2z"/>
<path class="st4" d="M1503.1,977.9h-347.7c-21.5,0-38.9-17.4-38.9-38.9l0,0V389.8l390.4,17.2c25.1,1.1,44.9,21.7,45.1,46.8
	l3.6,471.3c0.2,28.9-23.1,52.6-52,52.8C1503.4,977.9,1503.2,977.9,1503.1,977.9z"/>
<path class="st5" d="M1477.2,902.5l-305.8-7.4c-18.9-0.5-33.9-14.9-33.5-32.3l10.7-444.6l343,22.2c22,1.4,39.1,18.5,38.8,38.8
	l-6.1,381.6C1523.9,884.4,1502.8,903.1,1477.2,902.5z"/>
<polygon class="st6" points="1492.8,606.1 1491.5,683.9 1408,681.2 1400,603 "/>
<path class="st6" d="M1185.7,579.8l307.3,11.4l1.1-70.3c0.3-16.9-13.4-31-31-32.2l-274.8-18.2L1185.7,579.8"/>
<polygon class="st6" points="1185.3,595.9 1183.4,673.9 1272,676.8 1272,598.8 "/>
<polygon class="st6" points="1386.9,602.6 1284.2,599.2 1284.2,677.2 1394.5,680.7 "/>
<path class="st6" d="M1491.3,697.3l-2.3,140.3c-0.3,19.6-17.3,35.1-37.8,34.6l-245-5.9c-15.1-0.4-27.1-12.4-26.8-26.8l3.8-155.6
	L1491.3,697.3"/>
<path class="st4" d="M360.9,252.2h825c44.3,0,80.2,35.9,80.2,80.2v380.7c0,44.3-35.9,80.2-80.2,80.2h-825
	c-44.3,0-80.2-35.9-80.2-80.2V332.3C280.7,288.1,316.6,252.2,360.9,252.2z"/>
<polygon class="st7" points="665.5,793.2 645,977.9 897.3,977.9 867.6,793.2 "/>
<path class="st8" d="M766.7,779.9c-6.1,0-11-4.9-11-11s4.9-11,11-11s11,4.9,11,11S772.8,779.9,766.7,779.9L766.7,779.9z
	 M766.7,760.1c-4.8,0-8.8,3.9-8.8,8.8c0,4.8,3.9,8.8,8.8,8.8c4.8,0,8.8-3.9,8.8-8.8l0,0C775.5,764,771.5,760.1,766.7,760.1z"/>
<path class="st5" d="M400.1,269.2h746.7c44.3,0,80.2,35.9,80.2,80.2V660c0,44.3-35.9,80.2-80.2,80.2H400.1
	c-44.3,0-80.2-35.9-80.2-80.2V349.4C319.9,305.1,355.8,269.2,400.1,269.2z"/>
<path class="st8" d="M1136.1,703.7h-0.8v-2.2h0.8c4,0,8-1.1,11.4-3.2l1.2,1.9C1144.9,702.5,1140.5,703.7,1136.1,703.7z
	 M1121.9,703.7h-13.3v-2.2h13.4L1121.9,703.7z M1095.1,703.7h-13.4v-2.2h13.4V703.7z M1068.4,703.7H1055v-2.2h13.4V703.7z
	 M1041.6,703.7h-13.4v-2.2h13.4V703.7z M1014.8,703.7h-13.4v-2.2h13.4V703.7z M988,703.7h-13.4v-2.2H988V703.7z M961.2,703.7h-13.4
	h-0.9l0.1-2.2h14.2L961.2,703.7L961.2,703.7z M933.8,699.2c-3.8-2.8-6.6-6.8-7.9-11.4l2.2-0.6c1.1,4.1,3.6,7.7,7.1,10.2L933.8,699.2
	z M1157.5,689.4l-2.1-0.8c0.6-1.6,0.9-3.4,1-5.1l0.4-7.8l2.2,0.1l-0.4,7.8C1158.5,685.6,1158.1,687.6,1157.5,689.4L1157.5,689.4z
	 M924.9,674.2l-0.6-13.4l2.2-0.1l0.6,13.4L924.9,674.2z M1159.7,662.5l-2.2-0.1l0.7-13.4l2.2,0.1L1159.7,662.5z M923.8,647.5
	l-0.6-13.4l2.2-0.1l0.6,13.4L923.8,647.5z M1161,635.7l-2.2-0.1l0.7-13.4l2.2,0.1L1161,635.7z M922.6,620.7l-0.6-13.4l2.2-0.1
	l0.6,13.4L922.6,620.7z M1162.2,609l-2.2-0.1l0.7-13.4l2.2,0.1L1162.2,609z M921.5,594l-0.6-13.4l2.2-0.1l0.6,13.4L921.5,594z
	 M1163.5,582.3l-2.2-0.1l0.7-13.4l2.2,0.1L1163.5,582.3z M920.4,567.2l-0.6-13.4l2.2-0.1l0.6,13.4L920.4,567.2z M1164.8,555.5
	l-2.2-0.1l0.7-13.4l2.2,0.1L1164.8,555.5z M919.3,540.4l-0.6-13.4l2.2-0.1l0.6,13.4L919.3,540.4z M1166.1,528.7l-2.2-0.1l0.7-13.4
	l2.2,0.1L1166.1,528.7z M918.1,513.6l-0.6-13.4l2.2-0.1l0.6,13.4L918.1,513.6z M1167.4,502l-2.2-0.1l0.7-13.4l2.2,0.1L1167.4,502z
	 M917,486.9l-0.6-13.4l2.2-0.1l0.6,13.4L917,486.9z M1168.7,475.2l-2.2-0.1l0.7-13.4l2.2,0.1L1168.7,475.2z M915.9,460.1l-0.6-13.4
	l2.2-0.1l0.6,13.4L915.9,460.1z M1170,448.4l-2.2-0.1l0.5-9.6c0-0.3,0-0.6,0-0.9c0-0.9-0.1-1.8-0.2-2.7l2.2-0.3c0.2,1,0.2,2,0.2,3
	c0,0.3,0,0.7,0,1L1170,448.4z M917.7,433.6l-2.2-0.5c1.2-4.6,4-8.7,7.8-11.5l1.3,1.8C921.3,425.9,918.8,429.5,917.7,433.6z
	 M1162,424.4c-3.2-2.8-7.2-4.6-11.5-5.1l0.3-2.2c4.7,0.5,9.1,2.5,12.7,5.6L1162,424.4z M936.5,419.2l-0.1-2.2c0.4,0,0.8,0,1.1,0
	h12.3v2.2h-12.3C937.2,419.2,936.8,419.2,936.5,419.2L936.5,419.2z M1137.3,419.2H1124V417h13.4L1137.3,419.2L1137.3,419.2z
	 M1110.6,419.2h-13.4V417h13.4V419.2z M1083.8,419.2h-13.4V417h13.4V419.2z M1057,419.2h-13.4V417h13.4V419.2z M1030.2,419.2h-13.4
	V417h13.4V419.2z M1003.4,419.2H990V417h13.4V419.2z M976.6,419.2h-13.4V417h13.4V419.2z"/>
<path class="st8" d="M859,700h-13.4v-2.3H859V700z M832.3,700h-13.4v-2.3h13.4V700z M805.5,700h-13.4v-2.3h13.4V700z M778.7,700
	h-13.4v-2.3h13.4V700z M751.9,700h-13.4v-2.3h13.4V700z M725.1,700h-13.4v-2.3h13.4V700z M698.3,700h-13.4v-2.3h13.4V700z
	 M671.5,700h-12.3c-0.4,0-0.8,0-1.1,0l0.1-2.2c0.3,0,0.7,0,1,0h12.4L671.5,700z M872.5,699.8l-0.3-2.2c4.2-0.5,8.2-2.3,11.4-5.1
	l1.5,1.7C881.7,697.3,877.3,699.3,872.5,699.8L872.5,699.8z M645,695.3c-3.8-2.8-6.6-6.9-7.8-11.5l2.2-0.5c1.1,4.1,3.5,7.7,7,10.2
	L645,695.3z M891.9,682.1l-2.2-0.3c0.1-0.9,0.2-1.8,0.2-2.7c0-0.3,0-0.6,0-0.8l-0.5-9.6l2.2-0.1l0.5,9.6c0,0.3,0,0.6,0,1
	C892.2,680.1,892.1,681.1,891.9,682.1L891.9,682.1z M639.3,670.3l-2.2-0.1l0.6-13.4l2.2,0.1L639.3,670.3z M888.8,655.2l-0.7-13.4
	l2.2-0.1l0.7,13.4L888.8,655.2z M640.4,643.5l-2.2-0.1l0.6-13.4l2.2,0.1L640.4,643.5z M887.6,628.4l-0.7-13.4l2.2-0.1l0.7,13.4
	L887.6,628.4z M641.5,616.7l-2.2-0.1l0.6-13.4l2.2,0.1L641.5,616.7z M886.3,601.7l-0.7-13.4l2.2-0.1l0.7,13.4L886.3,601.7z
	 M642.6,590l-2.2-0.1l0.6-13.4l2.2,0.1L642.6,590z M885,575l-0.7-13.4l2.2-0.1l0.7,13.4L885,575z M643.8,563.2l-2.2-0.1l0.6-13.4
	l2.2,0.1L643.8,563.2z M883.7,548.2l-0.7-13.4l2.2-0.1l0.7,13.4L883.7,548.2z M644.9,536.5l-2.2-0.1l0.6-13.4l2.2,0.1L644.9,536.5z
	 M882.4,521.5l-0.7-13.4l2.2-0.1l0.7,13.4L882.4,521.5z M646,509.7l-2.2-0.1l0.6-13.4l2.2,0.1L646,509.7z M881.1,494.7l-0.7-13.4
	l2.2-0.1l0.7,13.4L881.1,494.7z M647.1,482.9l-2.2-0.1l0.6-13.4l2.2,0.1L647.1,482.9z M879.8,467.9l-0.7-13.4l2.2-0.1l0.7,13.4
	L879.8,467.9z M648.3,456.2l-2.2-0.1l0.5-13.4l2.2,0.1L648.3,456.2z M878.5,441.2l-0.4-7.8c-0.1-1.7-0.4-3.5-1-5.1l2.1-0.8
	c0.7,1.9,1.1,3.8,1.2,5.8l0.4,7.8L878.5,441.2z M649.8,429.7l-2.2-0.6c1.3-4.6,4.1-8.6,7.9-11.4l1.3,1.8
	C653.4,422,650.9,425.6,649.8,429.7z M869.2,418.7c-3.4-2.1-7.4-3.2-11.4-3.2H857v-2.2h0.8c4.4,0,8.8,1.2,12.6,3.5L869.2,418.7z
	 M668.7,415.5l-0.1-2.2h0.9h13.4v2.2h-13.3H668.7z M843.6,415.5h-13.4v-2.2h13.4V415.5z M816.8,415.5h-13.4v-2.2h13.4V415.5z
	 M790.1,415.5h-13.4v-2.2h13.4V415.5z M763.3,415.5h-13.4v-2.2h13.4V415.5z M736.5,415.5h-13.4v-2.2h13.4V415.5z M709.7,415.5h-13.4
	v-2.2h13.4V415.5z"/>
<path class="st6" d="M402.3,698.6h179.2c10.8,0.1,19.8-8.2,20.4-19l11.3-244.8c0.5-11.3-8.8-20.8-20.4-20.8H392.6
	c-11.6,0-20.8,9.4-20.4,20.7l9.8,244.8C382.6,690.2,391.5,698.7,402.3,698.6z"/>
<path class="st8" d="M560.1,683.2h-13.4V681h13.4V683.2z M533.4,683.2H520V681h13.4V683.2z M506.6,683.2h-13.4V681h13.4V683.2z
	 M479.8,683.2h-13.4V681h13.4V683.2z M453,683.2h-13.4V681H453V683.2z M426.2,683.2h-13.4V681h13.4V683.2z M573.7,683l-0.3-2.2
	c4.2-0.5,8.1-2.6,10.8-5.8l1.7,1.5C582.8,680.1,578.4,682.4,573.7,683z M402.8,680.4c-4.1-2.4-7.2-6.4-8.5-11l2.1-0.6
	c1.2,4.1,3.8,7.5,7.5,9.7L402.8,680.4z M590.4,663.4l-2.2-0.1l0.6-13.4l2.2,0.1L590.4,663.4z M393.3,655.8l-0.5-13.4l2.2-0.1
	l0.6,13.4L393.3,655.8z M591.6,636.6l-2.2-0.1l0.6-13.4l2.2,0.1L591.6,636.6z M392.3,629.1l-0.5-13.4l2.2-0.1l0.5,13.4L392.3,629.1z
	 M592.9,609.9l-2.2-0.1l0.6-13.4l2.2,0.1L592.9,609.9z M391.2,602.3l-0.5-13.4l2.2-0.1l0.5,13.4L391.2,602.3z M594.1,583.1l-2.2-0.1
	l0.6-13.4l2.2,0.1L594.1,583.1z M390.1,575.5l-0.5-13.4l2.2-0.1l0.5,13.4L390.1,575.5z M595.3,556.3l-2.2-0.1l0.6-13.4l2.2,0.1
	L595.3,556.3z M389,548.8l-0.5-13.4l2.2-0.1l0.5,13.4L389,548.8z M596.6,529.6l-2.2-0.1l0.6-13.4l2.2,0.1L596.6,529.6z M388,522
	l-0.5-13.4l2.2-0.1l0.5,13.4L388,522z M597.8,502.8l-2.2-0.1l0.6-13.4l2.2,0.1L597.8,502.8z M386.9,495.2l-0.5-13.4l2.2-0.1
	l0.5,13.4L386.9,495.2z M599,476.1l-2.2-0.1l0.6-13.4l2.2,0.1L599,476.1z M385.8,468.5l-0.5-13.4l2.2-0.1l0.5,13.4L385.8,468.5z
	 M600.3,449.3l-2.2-0.1v-0.4c0-0.2,0-0.5,0-0.8c0-3.8-1.4-7.6-3.9-10.5l1.7-1.5c2.8,3.3,4.4,7.6,4.4,11.9c0,0.3,0,0.6,0,0.9V449.3z
	 M388.4,442.2l-2.1-0.8c1.8-4.5,5.2-8.1,9.5-10.1l1,2C393,435.1,389.9,438.3,388.4,442.2L388.4,442.2z M583.4,431.8
	c-0.7-0.1-1.5-0.1-2.2-0.1h-11.1v-2.2h11c0.8,0,1.7,0,2.5,0.2L583.4,431.8z M556.7,431.6h-13.4v-2.2h13.4V431.6z M529.9,431.6h-13.4
	v-2.2H530L529.9,431.6z M503.2,431.6h-13.4v-2.2h13.4V431.6z M476.4,431.6H463v-2.2h13.4V431.6z M449.6,431.6h-13.4v-2.2h13.4V431.6
	z M422.8,431.6h-13.4v-2.2h13.4V431.6z"/>
<path class="st2" d="M952.9,945.9c0,0-54.6-90.2,130.8-177.6c0,0,53.1,114.3,4.2,177.2c-24.9,32.1-70.3,39.7-105,18.5L952.9,945.9z"
	/>
<path class="st3" d="M917.7,913.7c-9.4-52-9.2-148,68.6-271.7c0,0,101.4,205.7,22.5,311.9c-10,13.4-27.3,19-43.2,14l0,0
	C940.7,960.2,922.3,939.3,917.7,913.7z"/>
<path class="st2" d="M661.4,935.5c0,0,39-133.4-84.9-196.6c-54.7-27.9-104.3-59.3-104.3-59.3s30.2,255.3,139.1,270.1L661.4,935.5z"
	/>
<path class="st3" d="M634.6,934.9c0,0-4-76.9-180.7-69c0,0,70.7,101.4,148.2,95.8L634.6,934.9z"/>
<path class="st4" d="M941.2,977.9H583.8c-5.2,0-13.6-2.9-11.4-11.4l3.1-16.6c2-11,13-13.6,18.2-13.6l341.8-10.5
	c8.1,0,12,2.1,16.8,14.7c1.4,4.6,2.2,7.2,3.7,11.8c1.8,6.3,4.2,14.2,1,19.6C954.6,976.1,948.6,977.9,941.2,977.9z"/>
<path class="st7" d="M378.2,985.1c0,0,628.6,0.6,693,2.3s78.9,3.2,86.9,4.7c8.4,1.6,17.8,4.1,32.8,15.8
	c16.2,12.7,65.4,56.1,65.4,56.1H214.6c0,0,98.2-66.9,104.6-70.9C329.3,986.9,332.6,985,378.2,985.1z"/>
<path class="st4" d="M214.6,1064c0,0,1.3,17.4,10.1,17.4l1008.7,0.2c0,0,19.3,0.6,22.8-17.6H214.6z"/>
<path class="st4" d="M327.6,1013.4h37.5c0,0,11.2-0.1,14.6-3.1s9.7-10.4,9.7-10.4s2.6-4.1-2.8-4s-31.5-0.6-36.9,0
	c-5.9,0.6-11.5,2.7-16.3,6c-5.4,3.6-13.3,8.1-13.2,9.9S322.8,1013.4,327.6,1013.4z"/>
<path class="st4" d="M404.6,1002.9c0,0,4.9-7.2,12-7.3s35-0.4,35-0.4s6.2,0.6,1.2,7.1s-8,10.9-15.3,11s-35,0-35,0s-7.9,0.6-4.2-3.7
	S404.6,1002.9,404.6,1002.9z"/>
<path class="st4" d="M479.4,996.4c7.2-0.1,42.9,0,42.9,0s3.8,0.9,1.9,4.3s-3.7,6.4-3.7,6.4s-3.9,6.3-8.3,6.3c-5.6,0-43,0-43,0
	s-8.7,0.6-4.6-5.2C467,1005.2,472.2,996.5,479.4,996.4z"/>
<path class="st4" d="M539.4,1001.5c0,0,2.2-4.7,6.7-4.8s39.5,0,39.5,0s3.4-0.3,2.3,3.5c-0.8,2.7-1.8,5.3-2.9,7.9
	c0,0.1-1.8,4.8-5.9,4.8l-42,0.2c0,0-3.4-0.6-1.8-3.6C536.3,1007.4,539.4,1001.5,539.4,1001.5z"/>
<path class="st4" d="M606.3,1012.9l44.8-0.1c0,0,3.7,0.2,5-4.1c0.8-2.6,1.4-5.3,1.9-8c0-0.2,0.1-3.5-5.1-3.6s-42.5-0.1-42.5-0.1
	s-5.5,0.5-6.7,2.9c-2,3.9-5.2,9.4-4.5,11.5S604.2,1012.9,606.3,1012.9z"/>
<path class="st4" d="M910.8,1012.4l-36.4-0.1c0,0-3,0.2-4-3.8c-0.7-2.4-1.2-4.9-1.5-7.4c0-0.2-0.1-3.2,4.1-3.3s34.5-0.1,34.5-0.1
	s4.4,0.5,5.4,2.7c1.6,3.6,4.2,8.7,3.6,10.6S912.5,1012.4,910.8,1012.4z"/>
<path class="st4" d="M973,1002.2c0,0-2-4.4-6.1-4.4s-35.5,0-35.5,0s-3.1-0.3-2.1,3.2c0.7,2.5,1.6,4.9,2.6,7.3c0,0.1,1.6,4.4,5.3,4.4
	l37.8,0.2c0,0,3-0.6,1.7-3.3C975.8,1007.6,973,1002.2,973,1002.2z"/>
<path class="st4" d="M1026.4,997.8c-6-0.1-35.6,0-35.6,0s-3.1,0.8-1.6,3.5s3.1,5.3,3.1,5.3s3.2,5.2,6.8,5.2c4.7,0,35.6,0,35.6,0
	s7.2,0.5,3.8-4.2C1036.7,1005,1032.4,997.9,1026.4,997.8z"/>
<path class="st4" d="M1102.9,1004.3c0,0-5.2-5.4-12.5-5.4s-36.6-0.3-36.6-0.3s-6.5,0.4-1.3,5.3s8.3,8.2,16,8.2s36.6,0,36.6,0
	s8.2,0.4,4.4-2.8S1102.9,1004.3,1102.9,1004.3z"/>
<path class="st4" d="M1160.3,1011.7h-24c0,0-7.2-0.1-9.3-2.2s-6.2-7.2-6.2-7.2s-1.6-2.8,1.8-2.8s20.2-0.4,23.6,0
	c3.8,0.5,7.4,1.9,10.4,4.2c3.5,2.5,8.5,5.6,8.4,6.8S1163.3,1011.7,1160.3,1011.7z"/>
<path class="st4" d="M678.3,1012.7l46.8,0.1c0,0,4.9,0,5.9-3.8c0.7-2.7,1.2-5.4,1.3-8.1c0-0.2,0.1-3.4-5.3-3.5s-49.2,0.2-49.2,0.2
	s-3.5,0.4-4.8,2.7c-1.7,3-2.5,6.3-2.3,9.7C671,1013,676.2,1012.7,678.3,1012.7z"/>
<path class="st4" d="M849.5,1012.8l-37.7,0.1c0,0-3.9,0-4.8-3.8c-0.6-2.7-0.9-5.4-1.1-8.1c0-0.2-0.1-3.4,4.3-3.5s39.7,0.2,39.7,0.2
	c1.6,0.2,3.1,1.2,3.9,2.7c1.4,3,2,6.4,1.9,9.7C855.4,1013.1,851.2,1012.7,849.5,1012.8z"/>
<path class="st4" d="M749.6,997.7h38.9c1.9,0,3.5,1.5,3.5,3.4v7.2c0,1.9-1.5,3.4-3.5,3.4h-38.9c-1.9,0-3.5-1.5-3.5-3.4v-7.2
	C746.1,999.3,747.7,997.7,749.6,997.7z"/>
<path class="st4" d="M304.4,1022.8c4.5-3.4,9.9-5.3,15.5-5.4c9.1,0,45.4-0.3,45.4-0.3s8,0.4,1.6,5.2s-10.4,8.1-19.9,8.1
	s-45.4,0-45.4,0s-10.2,0.4-5.4-2.7S304.4,1022.8,304.4,1022.8z"/>
<path class="st4" d="M395.5,1017.2c6.8-0.1,40.5,0,40.5,0s3.6,0.7,1.8,3.3s-3.5,5-3.5,5s-3.7,5-7.8,5c-5.3,0-40.5,0-40.5,0
	s-8.2,0.5-4.3-4.1C383.8,1024.1,388.7,1017.3,395.5,1017.2z"/>
<path class="st4" d="M455.1,1021.1c1.9-2.5,4.9-3.9,8-3.9c5.4-0.1,47,0,47,0s4-0.3,2.7,2.9c-1,2.2-2.1,4.4-3.4,6.5
	c-1.5,2.4-4.1,3.9-7,3.9l-50,0.2c0,0-4-0.5-2.2-3C451.4,1025.9,455.1,1021.1,455.1,1021.1z"/>
<path class="st4" d="M531.4,1030.8l40.7-0.1c2.1,0,4-1.5,4.5-3.6c0.7-2.3,1.3-4.6,1.7-6.9c0-0.2,0.1-3-4.6-3.1S535,1017,535,1017
	s-5,0.4-6.1,2.5c-1.8,3.3-4.7,8.1-4.1,9.9S529.5,1030.8,531.4,1030.8z"/>
<path class="st4" d="M599.6,1030.4l45.8,0.1c0,0,4.8,0,5.8-3.5c0.7-2.5,1.1-5,1.3-7.5c0-0.2,0.1-3.2-5.2-3.3s-48.2,0.2-48.2,0.2
	s-3.4,0.3-4.7,2.5c-1.6,2.7-2.4,5.8-2.3,9C592.4,1030.7,597.6,1030.4,599.6,1030.4z"/>
<path class="st4" d="M674.3,1029.7l48.6,0.2c0,0,5.1,0,6.1-3.3c0.7-2.3,1.2-4.7,1.4-7.1c0-0.2,0.1-3-5.5-3.1s-51.1,0.1-51.1,0.1
	s-3.6,0.3-5,2.4c-1.7,2.5-2.5,5.5-2.4,8.5C666.6,1030,672.1,1029.7,674.3,1029.7z"/>
<path class="st4" d="M748.2,1016.3h41.4c1.9,0,3.5,1.5,3.5,3.4v6.7c0,1.9-1.5,3.4-3.5,3.4h-41.4c-1.9,0-3.5-1.5-3.5-3.4v-6.7
	C744.8,1017.9,746.3,1016.3,748.2,1016.3z"/>
<path class="st4" d="M853.2,1029.8l-40.2,0.1c0,0-4.2,0-5.1-3.3c-0.6-2.3-1-4.7-1.2-7.1c0-0.2-0.1-3,4.5-3.1s42.3,0.2,42.3,0.2
	s3,0.3,4.1,2.4c1.4,2.6,2.1,5.5,2,8.4C859.6,1030,855.1,1029.8,853.2,1029.8z"/>
<path class="st4" d="M917.1,1029.8l-37.8-0.1c-2.1,0-3.8-1.5-4.2-3.5c-0.7-2.2-1.2-4.5-1.6-6.8c0-0.2-0.1-3,4.3-3s36-0.1,36-0.1
	s4.6,0.4,5.7,2.5c1.7,3.3,4.4,8,3.8,9.8S918.8,1029.8,917.1,1029.8z"/>
<path class="st4" d="M982,1020.2c-1.3-2.3-3.7-3.8-6.3-3.9c-4.3-0.1-37.2,0-37.2,0s-3.2-0.3-2.2,2.8c0.8,2.2,1.7,4.3,2.7,6.4
	c0,0.1,1.7,3.9,5.6,3.9l39.6,0.1c0,0,3.2-0.5,1.7-2.9C985,1025,982,1020.2,982,1020.2z"/>
<path class="st4" d="M1036.2,1016.4c-6-0.1-35.6,0-35.6,0s-3.1,0.7-1.6,3.3s3.1,5,3.1,5s3.2,5,6.8,4.9c4.7,0,35.6,0,35.6,0
	s7.2,0.5,3.8-4C1046.5,1023.2,1042.2,1016.5,1036.2,1016.4z"/>
<path class="st4" d="M1116.8,1019.9c-1.8-2.3-4.6-3.6-7.5-3.5c-5-0.1-43.7,0-43.7,0s-3.8-0.2-2.5,2.6c0.9,2,2,4,3.2,5.8
	c1.4,2.2,3.9,3.6,6.6,3.5l46.5,0.1c0,0,3.8-0.5,2-2.7C1120.2,1024.2,1116.8,1019.9,1116.8,1019.9z"/>
<path class="st4" d="M1171.1,1016.4c-6-0.1-35.6,0-35.6,0s-3.1,0.7-1.6,3s3.1,4.6,3.1,4.6s3.2,4.5,6.8,4.5c4.7,0,35.6,0,35.6,0
	s7.2,0.4,3.8-3.7C1181.4,1022.6,1177.1,1016.5,1171.1,1016.4z"/>
<path class="st4" d="M1154.1,1032.7h35.1c0,0,7.2,0.5,6,5.5s-2.1,8.7-6.3,8.7s-26.3,0.2-28.2,0.2s-5.5-1.3-9.6-7.2
	S1146.4,1032.7,1154.1,1032.7z"/>
<path class="st4" d="M1121.2,1033.1c-7.5-0.1-45,0-45,0s-4,0.8-2,3.5s3.9,5.3,3.9,5.3s4.1,5.2,8.7,5.2c5.9,0,45,0,45,0
	s9.1,0.5,4.8-4.2C1134.3,1040.3,1128.8,1033.2,1121.2,1033.1z"/>
<path class="st4" d="M1056.8,1037.5c0,0-2.2-4.4-6.9-4.4s-40.3,0-40.3,0s-3.5-0.3-2.3,3.2c0.9,2.5,1.9,4.9,3,7.3
	c0,0.1,1.8,4.4,6,4.4l43,0.2c0,0,3.5-0.6,1.9-3.3C1060,1042.9,1056.8,1037.5,1056.8,1037.5z"/>
<path class="st4" d="M991.3,1037.5c0,0-2.2-4.4-6.9-4.4s-40.3,0-40.3,0s-3.5-0.3-2.3,3.2c0.8,2.5,1.8,4.9,2.9,7.3
	c0,0.1,1.8,4.4,6,4.4l42.9,0.2c0,0,3.5-0.6,1.9-3.3C994.4,1043,991.3,1037.5,991.3,1037.5z"/>
<path class="st4" d="M922.8,1048.3l-39.2,0.1c0,0-4.1,0-4.9-3.8c-0.6-2.7-1-5.4-1.1-8.1c0-0.2-0.1-3.4,4.4-3.5s41.2,0.2,41.2,0.2
	s2.9,0.4,4,2.7c1.4,3,2.1,6.4,2,9.7C929,1048.6,924.6,1048.3,922.8,1048.3z"/>
<path class="st4" d="M857,1048.3l-42.1,0.1c0,0-4.4,0-5.3-3.8c-0.7-2.7-1.1-5.4-1.2-8.1c0-0.2-0.1-3.4,4.8-3.5s44.3,0.2,44.3,0.2
	s3.2,0.4,4.3,2.7c1.5,3,2.2,6.3,2.1,9.7C863.7,1048.6,859,1048.3,857,1048.3z"/>
<path class="st4" d="M789.3,1049.8l-273.5,0.7c-2.1,0-4.6-1.1-2.7-4.6l4-8.1c1-2.1,3.1-3.4,5.4-3.5h266.8c2.1,0,3.8,1.7,3.8,3.8l0,0
	v7.8C793.1,1048.1,791.4,1049.8,789.3,1049.8L789.3,1049.8z"/>
<path class="st4" d="M439.8,1039.1c1.9-2.9,5-4.7,8.5-4.8c5.8-0.1,49.8,0,49.8,0s4.3-0.3,2.9,3.5c-1,2.7-2.3,5.3-3.6,7.9
	c0,0.1-2.3,4.8-7.5,4.8l-53,0.2c0,0-4.3-0.6-2.3-3.6C435.9,1044.9,439.8,1039.1,439.8,1039.1z"/>
<path class="st4" d="M378.2,1034.6c7.3-0.1,43.8,0,43.8,0s3.9,0.8,2,4s-3.8,5.9-3.8,5.9s-4,5.9-8.4,5.8c-5.7,0-43.8,0-43.8,0
	s-8.9,0.6-4.6-4.8C365.5,1042.7,370.8,1034.7,378.2,1034.6z"/>
<path class="st4" d="M343.3,1034.5h-56.2c0,0-5.1,0.5-9.7,6.6c-3.7,5.1,3.4,10.5,10,10.5s42.1,0.2,45.1,0.3s8.8-1.6,15.3-8.7
	S355.7,1034.5,343.3,1034.5z"/>
<circle class="st8" cx="732.7" cy="448.6" r="18.4"/>
<circle class="st8" cx="732.7" cy="141" r="18.4"/>
<rect x="751.1" y="139.9" class="st8" width="6.7" height="2.2"/>
<path class="st8" d="M1317.3,139.9v2.2h13.7v-2.2H1317.3z M1290,139.9v2.2h13.7v-2.2H1290z M1262.7,139.9v2.2h13.7v-2.2H1262.7z
	 M1235.4,139.9v2.2h13.7v-2.2H1235.4z M1208.1,139.9v2.2h13.7v-2.2H1208.1z M1180.9,139.9v2.2h13.6v-2.2H1180.9z M1153.6,139.9v2.2
	h13.7v-2.2H1153.6z M1126.3,139.9v2.2h13.7v-2.2H1126.3z M1099,139.9v2.2h13.6v-2.2H1099z M1071.7,139.9v2.2h13.7v-2.2H1071.7z
	 M1044.4,139.9v2.2h13.7v-2.2H1044.4z M1017.1,139.9v2.2h13.6v-2.2H1017.1z M989.8,139.9v2.2h13.6v-2.2H989.8z M962.5,139.9v2.2
	h13.7v-2.2H962.5z M935.2,139.9v2.2h13.7v-2.2H935.2z M907.9,139.9v2.2h13.7v-2.2H907.9z M880.6,139.9v2.2h13.7v-2.2H880.6z
	 M853.3,139.9v2.2H867v-2.2H853.3z M826,139.9v2.2h13.7v-2.2H826z M798.7,139.9v2.2h13.6v-2.2H798.7z M771.4,139.9v2.2h13.7v-2.2
	H771.4z"/>
<polygon class="st8" points="1350.3,147.7 1350.2,142.1 1344.6,142.1 1344.6,139.9 1352.4,139.9 1352.6,147.7 "/>
<path class="st8" d="M1352.8,160.9h-2.2l0.2,13.2h2.2L1352.8,160.9z M1353.3,187.3h-2.2l0.2,13.2h2.2L1353.3,187.3z M1353.8,213.7
	h-2.2l0.2,13.2h2.2L1353.8,213.7z M1354.3,240.1h-2.2l0.2,13.2h2.2L1354.3,240.1z M1354.8,266.5h-2.2l0.2,13.2h2.2L1354.8,266.5z
	 M1355.3,292.9h-2.2l0.2,13.2h2.2L1355.3,292.9z M1355.8,319.3h-2.2l0.2,13.2h2.2L1355.8,319.3z M1356.3,345.8h-2.2l0.2,13.2h2.2
	L1356.3,345.8z M1356.8,372.2h-2.2l0.2,13.2h2.2L1356.8,372.2z"/>
<path class="st8" d="M731.6,427.3v3h2.2v-3H731.6z M731.6,400.5v13.4h2.2v-13.4H731.6z M731.6,373.7v13.4h2.2v-13.4H731.6z
	 M731.6,346.9v13.4h2.2v-13.4H731.6z M731.6,320.1v13.4h2.2v-13.4H731.6z M731.6,293.4v13.4h2.2v-13.4H731.6z M731.6,266.6V280h2.2
	v-13.4H731.6z M731.6,239.7v13.4h2.2v-13.4H731.6z M731.6,212.9v13.4h2.2V213L731.6,212.9z M731.6,186.1v13.4h2.2v-13.4H731.6z
	 M731.6,159.4v13.4h2.2v-13.4H731.6z"/>
<path class="st8" d="M446.5,451.3l-6.7,0.1h-0.2v2.2h0.3l6.7-0.1L446.5,451.3z M473.2,450.9l-13.4,0.2v2.2l13.4-0.2V450.9z
	 M500,450.5l-13.4,0.2v2.2l13.4-0.2V450.5z M526.8,450.2l-13.4,0.2v2.2l13.4-0.2V450.2z M553.6,449.8l-13.4,0.2v2.2l13.4-0.2V449.8z
	 M580.4,449.4l-13.4,0.2v2.2l13.4-0.2V449.4z M607.2,449l-13.4,0.2v2.2l13.4-0.2V449z M633.9,448.6l-13.4,0.2v2.2l13.4-0.2V448.6z
	 M660.7,448.3l-13.4,0.2v2.2l13.4-0.2V448.3z M687.5,447.9l-13.4,0.2v2.2l13.5-0.2L687.5,447.9z M714.3,447.5l-13.4,0.2v2.2
	l13.4-0.2V447.5z"/>
<polygon class="st8" points="425.6,60 321.5,52.2 331.7,425.6 426.7,422.5 "/>
<path class="st9" d="M345.8,67h59.6c5.5,0,10,4.5,10,9.9V111c0,5.5-4.5,9.9-10,9.9h-59.6c-5.5,0-10-4.5-10-9.9V76.9
	C335.9,71.4,340.3,67,345.8,67z"/>
<path class="st10" d="M347.1,129.3h57.2c5.5,0,10,4.5,10,9.9v34.1c0,5.5-4.5,10-10,10h-57.2c-5.5,0-10-4.5-10-10v-34.1
	C337.1,133.7,341.6,129.3,347.1,129.3z"/>
<path class="st0" d="M353.9,317.8h47.3c5.5,0,10,4.5,10,10v25.7c0,5.5-4.5,10-10,10h-47.3c-5.5,0-10-4.5-10-10v-25.7
	C344,322.2,348.5,317.8,353.9,317.8z"/>
<path class="st11" d="M350.9,254.4h50.8c5.5,0,10,4.5,10,10v34.1c0,5.5-4.5,10-10,10h-50.8c-5.5,0-10-4.5-10-10v-34.1
	C340.9,258.8,345.4,254.4,350.9,254.4z"/>
<path class="st12" d="M348.3,191.1h54.9c5.5,0,10,4.5,10,10v34.1c0,5.5-4.5,10-10,10h-54.9c-5.5,0-10-4.5-10-10v-34.1
	C338.3,195.6,342.8,191.1,348.3,191.1z"/>
<polygon class="st8" points="282.5,77.5 184.8,114.3 351.5,448.6 436.4,405.7 "/>
<path class="st13" d="M213.1,117.5l54-25.2c5-2.3,10.9-0.2,13.2,4.8l14.4,30.9c2.3,5,0.2,10.9-4.8,13.2l-54,25.2
	c-5,2.3-10.9,0.2-13.2-4.8l-14.4-30.9C205.9,125.8,208.1,119.8,213.1,117.5z"/>
<path class="st1" d="M240.5,173.5l51.8-24.2c5-2.3,10.9-0.2,13.2,4.8l14.4,30.9c2.3,5,0.2,10.9-4.8,13.2l-51.8,24.2
	c-5,2.3-10.9,0.2-13.2-4.8l-14.4-30.9C233.4,181.7,235.5,175.8,240.5,173.5z"/>
<path class="st0" d="M326.2,341.5l42.9-20c5-2.3,10.9-0.2,13.2,4.8l10.9,23.3c2.3,5,0.2,10.9-4.8,13.2l-42.9,20
	c-5,2.3-10.9,0.2-13.2-4.8l-10.9-23.3C319,349.7,321.2,343.8,326.2,341.5z"/>
<path class="st3" d="M296.7,285.3l46-21.4c5-2.3,10.9-0.2,13.2,4.8l14.4,30.9c2.3,5,0.2,10.9-4.8,13.2l-46,21.4
	c-5,2.3-10.9,0.2-13.2-4.8l-14.4-30.9C289.5,293.5,291.7,287.6,296.7,285.3z"/>
<path class="st2" d="M267.6,229l49.7-23.2c5-2.3,10.9-0.2,13.2,4.8l14.4,30.9c2.3,5,0.2,10.9-4.8,13.2L290.4,278
	c-5,2.3-10.9,0.2-13.2-4.8l-14.4-30.9C260.5,237.3,262.7,231.4,267.6,229z"/>
<polygon class="st8" points="151.9,175.2 79.5,250.4 373.8,480.7 431.9,405.5 "/>
<path class="st14" d="M106.5,241.2l38-46c3.5-4.2,9.8-4.8,14-1.3l26.3,21.7c4.2,3.5,4.8,9.8,1.3,14l-38,46c-3.5,4.2-9.8,4.8-14,1.3
	l-26.3-21.7C103.6,251.7,103,245.4,106.5,241.2z"/>
<path class="st15" d="M155.3,279.9l36.4-44.1c3.5-4.2,9.8-4.8,14-1.3l26.3,21.7c4.2,3.5,4.8,9.8,1.3,14l-36.4,44.1
	c-3.5,4.2-9.8,4.8-14,1.3l-26.3-21.7C152.4,290.4,151.8,284.2,155.3,279.9z"/>
<path class="st6" d="M304.9,394.8l30.1-36.4c3.5-4.2,9.8-4.8,14-1.3l19.8,16.4c4.2,3.5,4.8,9.8,1.3,14L340,423.9
	c-3.5,4.2-9.8,4.8-14,1.3l-19.8-16.4C301.9,405.3,301.4,399.1,304.9,394.8z"/>
<path class="st6" d="M254,356.8l32.4-39.2c3.5-4.2,9.8-4.8,14-1.3l26.3,21.7c4.2,3.5,4.8,9.8,1.3,14l-32.4,39.2
	c-3.5,4.2-9.8,4.8-14,1.3l-26.3-21.7C251.1,367.3,250.5,361,254,356.8z"/>
<path class="st5" d="M203.7,318.4l35-42.3c3.5-4.2,9.8-4.8,14-1.3l26.3,21.7c4.2,3.5,4.8,9.8,1.3,14l-35,42.3
	c-3.5,4.2-9.8,4.8-14,1.3L205,332.4C200.8,328.9,200.2,322.7,203.7,318.4z"/>
<path class="st0" d="M1134.7,471.3c-12.4-20.8-20.1-23.8-20.1-23.8l-35.3,1.3l-20,8c0,0-14.4,5.9-18.7,16.9c0,0-5.7,34-13.9,39.9
	l-0.7,0.5c2.4,6.4,6.2,16.3,9,23.3c7-5.8,17-16.1,19.5-29.4l13.9,43.3l23.6,6.5l37.6,10.4c0,0-2.5-4.1-5.3-9
	c-2.8-0.3-5.6-0.1-8.4,0.4c-2.9,0.5-11.1,1.8-12.1-0.1s4.6-7.2,6.7-6.9c1.2,0.2,6.5,0.6,10.7,1c-2.8-5.2-5.1-10.1-5.1-11.9
	c0-1.5,0.2-7.7,0.4-15.4c0.5-15.5,1.3-36.8,1.3-36.8c5.1,9.1,8.6,19,10.4,29.2c5.8-0.8,11.8-0.3,17.4,1.4
	C1147.4,504.8,1144.5,487.6,1134.7,471.3z"/>
<path class="st9" d="M1100,726.6c0,0-21.7,5.4-26.2,14.7h38.8c0,0,0-9.5-4.2-14.7H1100z"/>
<path class="st9" d="M1169.4,718c0,0-0.8,20.1,10.6,24.7s11.5-5.3,8.1-12.9s-5.3-11.6-10-13.7L1169.4,718z"/>
<path class="st14" d="M1038.1,418.4l4.4,19.8l14.8,11.6l3.2,11c0.7,2.3,3.1,3.7,5.4,3c0.2,0,0.3-0.1,0.5-0.2l9.8-4.1
	c3.7-1.6,5.4-5.8,3.8-9.5c-0.2-0.4-0.4-0.8-0.7-1.2l-11-16.4l-12.5-23.2L1038.1,418.4z"/>
<path class="st14" d="M1062.8,431c0.1,0.5,3.9,6.2,6.9-1s-1.9-8.5-3.4-8.3S1060.9,422.8,1062.8,431z"/>
<path class="st14" d="M1167.4,710.8l2.4,8.5c0,0,5.4,3.8,8.7-1.6l-2.3-11.4L1167.4,710.8z"/>
<path class="st14" d="M1098.6,719.9l1.3,6.7c0,0,4.3,5.6,8.4,0v-9.7L1098.6,719.9z"/>
<path class="st7" d="M1055.2,419.5c0,0.1,2.3,12.5,1.7,15.4s-3.2,3.7-8,2.2s-6.9-1-7.7,0.7s3.3,16.2,5.4,16.2s11.1-3.5,13.6-5
	s3-0.6,2.8-6.3s-0.6-19,1.2-20.5s5.3,0.3,5.3,0.3s2.5-6.1-1.5-8.5s-3.6-1.8-3.2-3.8s1.1-5.8-3.2-7.5s-7.4,2.4-9.3,2.9
	s-1.3-1-2.8-0.8s-0.9,1-2,1s-2.1-0.2-4.1-3.4s-14.2-1.8-12.6,6.9c1.7,8.7,3.5,8.8,7.5,9.2s6.4-2.7,10.6-3.2
	C1053.2,415.1,1054.1,415.6,1055.2,419.5z"/>
<path class="st14" d="M1008.3,526.1l19.6,16.5c2.5-1.6,4.8-3.3,7.1-5.2c-2.7-7-6.5-17-9-23.3C1018,519.8,1008.3,526.1,1008.3,526.1z
	"/>
<path class="st12" d="M1084.7,606.1c0,0,11.8,89.1,10.6,112.7c0,0,6.1,3.6,15.2,0c0,0,4.7-96.9,0-111.7L1084.7,606.1z"/>
<path class="st12" d="M1118.9,615.4l46.3,96.7c4.8,0,9.6-0.9,14.1-2.8l-34-101.3L1118.9,615.4z"/>
<path class="st6" d="M859.4,461.9l-64.7-7.9c-1.3,9.7-4.7,19.1-10,27.3l55.6,38.3C840.3,519.6,865.4,497.6,859.4,461.9z"/>
<path class="st9" d="M741.8,447.6c-1-0.1-1.9,0.6-2.1,1.6c-0.1,0.7,0.2,1.3,0.8,1.7l44.2,30.4c5.3-8.3,8.7-17.6,10-27.3L741.8,447.6
	z"/>
<path class="st7" d="M859.4,461.9l381.3,137.8c10.6,3.8,16.1,15.5,12.3,26.1l-6.8,18.9c-3.9,11-16.1,16.8-27.1,12.8h-0.1
	L840.4,519.6L859.4,461.9z"/>
<path class="st8" d="M1240.1,616.5c-0.1,0-0.3,0-0.4-0.1L871.1,485.3c-0.6-0.2-0.9-0.8-0.7-1.4s0.8-0.9,1.4-0.7l368.5,131.1
	c0.6,0.2,0.9,0.9,0.7,1.4C1240.9,616.2,1240.5,616.5,1240.1,616.5z"/>
<path class="st8" d="M1233.6,638.5c-0.1,0-0.3,0-0.4-0.1L864.3,508.1c-0.6-0.2-0.9-0.8-0.7-1.4s0.8-0.9,1.4-0.7l369,130.4
	c0.6,0.2,0.9,0.8,0.7,1.4C1234.6,638.2,1234.1,638.5,1233.6,638.5L1233.6,638.5z"/>
<path class="st14" d="M1128.2,518.6c2.3,11.8,1.6,23.9-1.9,35.4l-5.2-0.4c-4.1-0.3-9.4-0.8-10.7-1c-2.1-0.3-7.7,5-6.7,6.9
	s9.2,0.6,12.1,0.1c2.8-0.5,5.6-0.7,8.4-0.4c1,0.1,2,0.3,3,0.6c4.1,1.1,3.8-2.4,4-3.8s6.2-6.4,11.8-24c1.2-3.9,2.1-7.9,2.6-12
	C1139.9,518.3,1134,517.8,1128.2,518.6z"/>
<rect x="221.1" y="443.3" class="st12" width="218.5" height="163.8"/>
<circle class="st8" cx="385.6" cy="485.4" r="18.4"/>
<path class="st8" d="M250.2,576.6l25.8-39.9c2.2-3.4,6.7-4.3,10-2.1c0.3,0.2,0.6,0.4,0.9,0.7l9.1,9.8c1.9,2,5.1,2.1,7.1,0.2
	c0.5-0.5,0.9-1,1.2-1.6l25.9-56.9c1.3-2.7,4.6-3.7,7.3-2.4c1,0.5,1.7,1.2,2.3,2.2l53.1,90.3c1.5,2.5,0.6,5.7-1.8,7.1
	c-0.8,0.5-1.8,0.7-2.8,0.7h-134c-2.8,0-5.1-2.2-5.1-5C249.2,578.6,249.6,577.5,250.2,576.6z"/>
<path class="st8" d="M432.5,600H227.2V449.2h205.3V600z M228.3,598.9h203.1V450.3H228.3V598.9z"/>
<path class="st12" d="M128.2,701l134.6,2.8c5,0.1,9,4.2,8.9,9.2l-1.8,86.5c-0.1,5-4.2,9-9.2,8.9L126,805.5c-5-0.1-9-4.2-8.9-9.2
	l1.8-86.5C119.1,704.8,123.2,700.9,128.2,701z"/>
<path class="st8" d="M260.1,801.5L260.1,801.5L127,798.6c-1.9,0-3.5-1.7-3.4-3.6l1.8-84.7c0-1.9,1.7-3.5,3.6-3.5l133,2.8
	c1.9,0,3.5,1.7,3.4,3.6l-1.8,84.7C263.5,799.9,262,801.5,260.1,801.5L260.1,801.5z M128.9,708.1c-1.3,0-2.4,1-2.4,2.3l-1.8,84.7
	c0,0.6,0.2,1.3,0.7,1.7c0.4,0.5,1,0.7,1.7,0.7l133,2.8c0.6,0,1.2-0.2,1.7-0.7c0.5-0.4,0.7-1,0.7-1.7l1.8-84.7c0-1.3-1-2.4-2.4-2.5
	L128.9,708.1L128.9,708.1z"/>
<path class="st8" d="M216.4,764c-4.6,0-8.2-3.7-8.2-8.2s3.7-8.2,8.2-8.2s8.2,3.7,8.2,8.2C224.7,760.3,221,764,216.4,764z
	 M216.4,748.6c-3.9,0-7.1,3.2-7.1,7.1s3.2,7.1,7.1,7.1s7.1-3.2,7.1-7.1C223.6,751.8,220.4,748.7,216.4,748.6z"/>
<path class="st8" d="M216.4,777.2c-11.8,0-21.4-9.6-21.4-21.4c0-11.8,9.6-21.4,21.4-21.4c11.2,0,20.5,8.6,21.4,19.8
	c0.1,0.3-0.1,0.6-0.4,0.7c-0.3,0.1-0.6-0.1-0.7-0.4v-0.1c-0.9-11.2-10.6-19.6-21.8-18.7c-11.2,0.9-19.6,10.6-18.7,21.8
	c0.9,11.2,10.6,19.6,21.8,18.7c6-0.5,11.5-3.6,15-8.5c0.2-0.2,0.5-0.3,0.8-0.1s0.3,0.5,0.1,0.8C229.9,773.9,223.4,777.2,216.4,777.2
	z"/>
<path class="st8" d="M226.1,794l-5.9-6.3c-3.2,0.4-6.4,0.3-9.6-0.3l-5.1,6.1l-9.3-4.2l0.5-8.2c-2.5-2-4.8-4.4-6.6-7l-7.6,0.4
	l-3.7-9.3l5.8-5.2c-0.2-1.4-0.3-2.8-0.3-4.2c0-1.9,0.2-3.9,0.5-5.8l-5.7-4.9l4.5-9.3l7.2,0.5c1.9-2.5,4.3-4.8,6.9-6.7v-7.9l9.6-3.3
	l5.1,5.5c3.3-0.4,6.7-0.3,10,0.3l4.8-4.9l9.4,4.3l-0.3,6.9c2.7,2.1,5,4.6,6.9,7.4h7.6l3.5,9.2l-5.9,4.8c0.2,1.3,0.3,2.7,0.2,4
	c0,2.1-0.2,4.2-0.6,6.2l5.6,5l-4.1,9l-7.8-0.4c-2,2.5-4.3,4.7-6.9,6.5v7.8L226.1,794z M221.4,787.3l4.9,5.3l7.4-3.4v-7.4h0.5
	l-0.3-0.5c2.7-1.8,5.1-4.1,7.1-6.7l3-3.9l-1.7,3.8l6.5,0.3l3.4-7.6l-4.7-4.2l-1.6,3.2l0.9-4.2c0.4-2.1,0.6-4.2,0.6-6.3
	c0-1.4-0.1-2.8-0.3-4.2l-0.7-5l1.5,4.1l4.9-4L250,739h-6.4l1.4,3.9l-2.7-4.1c-1.9-2.9-4.3-5.4-7-7.5l-3.8-2.9l3.6,1.6l0.3-5.6
	l-8-3.7l-3.9,4l3.6,1.6l-4.6-0.9c-3.4-0.7-6.8-0.8-10.3-0.3l-5.4,0.7l4.3-1.5l-4.2-4.5l-8.2,2.8v6.6l3.2-1.2l-3.5,2.4
	c-2.7,1.9-5.1,4.2-7.1,6.9l-1.7,2.2l0.5-2.1l-6.1-0.5l-3.7,7.9l4.7,4l1.6-3.6l-0.9,4.6c-0.7,3.4-0.7,6.9-0.3,10.3l0.7,4.7l-1.5-3.7
	l-4.8,4.4l3.1,7.9l6.3-0.3l-1.2-3.4l2.5,3.6c1.9,2.7,4.2,5.2,6.8,7.2l4.2,3.2l-4.1-1.9l-0.4,6.9l7.9,3.6l4.3-5.2l-3-1.5l4,0.8
	c3.3,0.6,6.6,0.8,9.9,0.3l4.7-0.6L221.4,787.3z"/>
<path class="st8" d="M153,741.4c-0.7,0-1.5-0.2-2.1-0.6c-1-0.6-1.8-1.5-2.1-2.6s-0.2-2.3,0.4-3.3c1.2-2.1,3.8-2.8,5.9-1.6
	c1,0.6,1.8,1.5,2.1,2.6l0,0c0.7,2.3-0.7,4.7-3,5.4C153.8,741.3,153.4,741.4,153,741.4L153,741.4z M153,733.8c-0.3,0-0.6,0-0.9,0.1
	c-1.7,0.4-2.8,2.2-2.3,3.9c0.2,0.9,0.8,1.6,1.6,2.1c0.7,0.4,1.6,0.5,2.5,0.3c1.7-0.5,2.7-2.3,2.2-4
	C155.8,734.8,154.5,733.8,153,733.8L153,733.8z"/>
<path class="st8" d="M153,747.9c-4.9,0-9.1-3.3-10.5-7.9c-1.6-5.8,1.7-11.8,7.5-13.4l0,0c5.5-1.5,11.2,1.4,13.1,6.8
	c0.1,0.3-0.1,0.6-0.3,0.7c-0.3,0.1-0.6,0-0.7-0.3l0,0c-1.8-5.1-7.4-7.7-12.5-5.9s-7.7,7.4-5.9,12.5s7.4,7.7,12.5,5.9
	c2.7-1,4.9-3.1,5.9-5.9c0.1-0.3,0.4-0.4,0.7-0.3c0.3,0.1,0.4,0.4,0.3,0.7l0,0c-1.2,3.3-3.9,5.8-7.3,6.8
	C155,747.7,154,747.9,153,747.9z"/>
<path class="st8" d="M153,756.7l-5.4-0.8l-0.9-4c-1.4-0.6-2.7-1.4-3.9-2.3l-3.6,1.2l-3.2-4.3l2.1-3.3c-0.3-0.6-0.5-1.2-0.6-1.9
	c-0.2-0.9-0.4-1.8-0.5-2.7l-3.4-1.6l1-5.4l3.5-0.7c0.6-1.4,1.3-2.7,2.3-3.9l-1.1-3.8l4.4-3.1l3.2,2c0.6-0.2,1.2-0.5,1.8-0.6
	c0.9-0.3,1.8-0.4,2.8-0.5l1.7-3l5.4,0.9l0.8,3.3c1.5,0.6,2.8,1.5,4.1,2.5l3.7-1l3.1,4.2L168,731c0.2,0.6,0.4,1.1,0.6,1.7
	c0.3,1,0.4,1.9,0.5,2.9l3.4,1.6l-0.8,5.2l-3.8,0.9c-0.6,1.4-1.4,2.7-2.3,3.8l1.1,3.7l-3.9,3.4l-3.7-2.2c-0.5,0.2-1.1,0.4-1.6,0.6
	c-0.9,0.2-1.8,0.4-2.7,0.5L153,756.7z M148.6,754.9l3.8,0.6l1.4-3.2l0.5,0.2V752c1-0.1,1.9-0.2,2.9-0.5c0.6-0.2,1.2-0.4,1.8-0.6
	l3.4-1.4l2.3-2.7c1-1.2,1.8-2.6,2.4-4l1.3-3.2l-0.2-3.4c-0.1-1-0.3-2-0.5-3c-0.2-0.7-0.4-1.3-0.7-1.9l-1.4-3.2l-2.6-2.2
	c-1.3-1.1-2.7-2-4.3-2.6l-4.6-1.9l4.1,0.7l-0.5-2.1l-3.9-0.6l-1.5,2.5l-0.4-0.2v0.5c-1,0.1-1.9,0.3-2.9,0.5
	c-0.7,0.2-1.3,0.4-1.9,0.7l-3.3,1.4l-2.3,2.8c-1,1.2-1.8,2.6-2.4,4.1L139,732l-3.4,0.7l-0.7,3.8l2.2,1l0.6-4l0.4,4.7
	c0.1,1,0.2,1.9,0.5,2.8c0.2,0.7,0.4,1.4,0.7,2l1.4,3.2l2.7,2.2c1.2,1,2.6,1.9,4.1,2.5l-0.1,0.5l0.5-0.1L148.6,754.9z M160.1,751.3
	l2.5,1.5l2.8-2.4l-0.7-2.6l-2.1,1.4l0.4-0.2L160.1,751.3z M137.4,746.5l2.3,3l2.4-0.8l-1-1.5l0.1,0.3l-2.4-3.2L137.4,746.5z
	 M168.8,738.2l-0.6,4l2.6-0.6l0.6-3.7l-2.3-1.1l-0.6,2.5L168.8,738.2z M166.6,728.8l0.8,1.1l1.5-2.1l-2.2-3l-2.4,0.7l2.6,3.5
	L166.6,728.8z M140.6,723.6l0.7,2.5l1.5-1.1l-0.2,0.1l3.3-2.4l-2.1-1.3L140.6,723.6z"/>
<path class="st9" d="M122.8,973.9c0,0-9.1,8.8-8.8,15c0,0,15.3,4,19.8,0c0,0,2.9-3.1-1.1-14.4L122.8,973.9z"/>
<path class="st9" d="M196.3,971.1l-2.4,17l44.5,2.1c0,0-15.4-13.7-33-19.8L196.3,971.1z"/>
<path class="st10" d="M309.8,658.1c-21.6,20.4-65,7.4-65,7.4l-23.9-5.2l-28.3,0.9c-18.4,12.3-37.4,48.5-45,67.1
	c-0.6,1.5-1.1,3.1-1.5,4.7c4.8,3.2,14.7,9.4,19,12.1c12.3-22.7,32.1-42.9,32.1-42.9l72.3,2.9c27.5-6.1,44.1-17.5,54.1-30.2
	l-13.1-17.5L309.8,658.1z"/>
<path class="st6" d="M196.3,960.9v10.2c0,0,5.2,5.3,9.1-0.7l0.9-10.6L196.3,960.9z"/>
<path class="st6" d="M122.8,960.7V974c0,0,3.7,7,9.9,0.7l2.1-12.2L122.8,960.7z"/>
<path class="st16" d="M244.2,646.8l0.5,18.7c-7.8,4-17.3,3.2-24.3-2.1l4-29.2L244.2,646.8z"/>
<path class="st9" d="M226,807.7c0,0-20.5,131.2-18.2,152.3c0,0-4.6,4.8-13.4,0c0,0-5.2-109.8,0.1-135.1c0,0-53.1,110.6-58.5,137.2
	c0,0-9.1,2.4-14-2.2c0,0,25-104.3,46.8-155.6L226,807.7z"/>
<path class="st6" d="M156.9,807.9c6.4,3.4,14.2,2.1,19.2-3.1l-7.3-0.4c-1.6-0.5-6.3-11.6-7-13.5s-1.7-2.7,4.8-1.4s7.3-2.2,7.1-3
	s-2.7-0.6-7.1-2.8c-3.5-1.7-7.1-3.2-10.8-4.5c-1.1-10.5,3.2-22.7,9.4-34.2c-4.3-2.7-14.2-8.9-19-12.1
	C140.8,754.7,146.1,802.7,156.9,807.9z"/>
<path class="st6" d="M336,616.3c10.5-1.3,9.5-9.3,9.5-9.3h-8.8c-5.9-0.6-11.7-2.6-16.8-5.7c0-7.1-4.1-7.5-4.1-7.5l0.3,11.5
	c3.6,5.9,13.8,9.8,13.8,9.8s1.5,21.9-19.2,42.1l13.1,17.5C344.6,648.3,336,616.3,336,616.3z"/>
<path class="st6" d="M247.6,612.2c0,0-18.6,5.8-19.9,8.5c-0.9,1.9,0.3,5.6,0,6.3l0,0l-0.6,9.5l0,0c1.5,2.1,3,7.5,6.9,8.5
	c4.5,1.1,17.9,4.9,19.9-4C256,632.1,247.6,612.2,247.6,612.2z"/>
<path class="st7" d="M215.8,615.3c0,0,0.6-9.6,9.8-12.2s19-3.8,20.5-8.4s0.6,0.9,1.7,0.8s0-5.8,1.1-5.1s10.2,12.7,4.6,18.4
	c-5.6,5.8-25,9.7-25.1,12.8s0.4,7.1,1.7,9l-1.1,0.2c-1.4-1.3-2.5-2.9-3.4-4.7l0.8,12.2c-2.4,0.2-4.9,0-7.2-0.7
	c-3.2-1.2-6.2-3.2-4.3-5.5s0.3-2.3-1.4-3.4s-6.2-8.9-3.3-12.3S215.8,615.3,215.8,615.3z"/>
<path class="st6" d="M228.6,630.2l-3.4-5.4c-2.1-1-4.1,1-4.1,3.1c-0.1,2.6,3.7,6.8,5.4,7.8c0.3,0.2,0.5,0.5,0.7,0.8l0,0L228.6,630.2
	z"/>
<path class="st11" d="M823.2,42.4h241.3c5.9,0,10.7,4.8,10.7,10.7v2.5c0,5.9-4.8,10.7-10.7,10.7H823.2c-5.9,0-10.7-4.8-10.7-10.7
	v-2.5C812.4,47.2,817.2,42.4,823.2,42.4z"/>
<path class="st11" d="M823.2,86.1h183.5c5.9,0,10.7,4.8,10.7,10.7v2.5c0,5.9-4.8,10.7-10.7,10.7H823.2c-5.9,0-10.7-4.8-10.7-10.7
	v-2.5C812.4,90.9,817.2,86.1,823.2,86.1z"/>
<path class="st11" d="M1048.6,86.1h58.1c5.9,0,10.7,4.8,10.7,10.7v2.5c0,5.9-4.8,10.7-10.7,10.7h-58.1c-5.9,0-10.7-4.8-10.7-10.7
	v-2.5C1037.8,90.9,1042.6,86.1,1048.6,86.1z"/>
<path class="st11" d="M1106.4,42.4h58.1c5.9,0,10.7,4.8,10.7,10.7v2.5c0,5.9-4.8,10.7-10.7,10.7h-58.1c-5.9,0-10.7-4.8-10.7-10.7
	v-2.5C1095.6,47.2,1100.4,42.4,1106.4,42.4z"/>
<path class="st14" d="M1070.7,256.8c0-19.5-8.9-37.9-24.1-50.1l-14.2,18.8l0,0c17.3,14.3,19.7,40,5.4,57.3
	c-4.4,5.3-10,9.4-16.4,11.9l0,0l14.2,19.3C1057.1,303.1,1070.7,281,1070.7,256.8z"/>
<path class="st6" d="M1006.4,216.1c0.8,0,1.6,0,2.4,0.1l0,0l-2.4-23.6c-35.5,0-64.2,28.8-64.2,64.2S971,321,1006.4,321
	c10.2,0,20.2-2.4,29.2-7l-14.2-19.3l0,0c-20.9,8.3-44.6-1.9-52.9-22.8c-8.3-20.9,1.9-44.6,22.8-52.9
	C996.2,217.1,1001.3,216.1,1006.4,216.1L1006.4,216.1z"/>
<path class="st5" d="M1008.8,216.2c8.6,0.5,16.9,3.7,23.6,9.3l0,0l14.2-18.7c-11.4-9.1-25.5-14.1-40.1-14.1L1008.8,216.2
	L1008.8,216.2z"/>
<path class="st1" d="M1247,285.1l-21.7-9.2l0,0c-7,13.4-20.9,21.7-36,21.7l1.4,23.5C1214.8,320.5,1236.5,306.6,1247,285.1
	L1247,285.1z"/>
<path class="st0" d="M1226.1,239.3c5.5,11.6,5.3,25.2-0.8,36.5l0,0l21.7,9.2l0,0c10.3-21,8.3-45.9-5.1-65.1L1226.1,239.3
	L1226.1,239.3z"/>
<path class="st2" d="M1146.1,209.3c-26.3,23.9-28.2,64.5-4.4,90.7c12.2,13.4,29.4,21,47.6,21c0.5,0,0.9,0,1.4,0l-1.4-23.5
	c-22.5,0-40.7-18.3-40.7-40.7c0-11.1,4.6-21.7,12.6-29.4l0,0L1146.1,209.3z"/>
<path class="st13" d="M1229.4,206.7c-24.6-19.7-60-18.6-83.3,2.6l15.1,18.1l0,0c16.3-15.5,42-15,57.6,1.3c3,3.1,5.5,6.7,7.3,10.6
	l15.8-19.3C1238.4,215,1234.2,210.6,1229.4,206.7z"/>
<path class="st12" d="M1401.4,314c31.6-16.2,44.1-54.9,27.9-86.4c-4.1-8.1-9.9-15.2-17-20.9c-1.2-0.9-2.3-1.8-3.6-2.6l-11.8,20.4
	l0,0c0.4,0.3,0.8,0.6,1.2,1c17.4,14.3,19.8,40,5.5,57.3c-12.8,15.5-35,19.4-52.3,9.1l0,0l-12.6,19.8
	C1357.8,323.3,1381.5,324.2,1401.4,314L1401.4,314z"/>
<path class="st0" d="M1327.1,211.1c-25.3,24.9-25.6,65.6-0.7,90.8c3.7,3.8,7.8,7,12.3,9.8l12.6-19.9l0,0
	c-19.3-11.5-25.7-36.5-14.2-55.8c1.5-2.5,3.3-4.9,5.3-7l0,0L1327.1,211.1z"/>
<path class="st9" d="M1327.1,211.1l15.4,17.9l0,0c14.3-15.3,37.8-17.2,54.4-4.5l0,0l11.8-20.4C1383.4,186.4,1349,189.4,1327.1,211.1
	L1327.1,211.1z"/>
</svg>
