<svg width="1060" height="1210" viewBox="0 0 1060 1210" fill="none" xmlns="http://www.w3.org/2000/svg">
<path d="M0.784141 858.808C2.42647 861.712 6.15365 862.722 9.05941 861.018C11.9653 859.313 12.976 855.651 11.2703 852.747C10.8913 852.115 10.4492 851.547 9.8807 851.105L122.008 657.965L254.602 658.217L210.004 731.9L164.269 731.773L106.152 831.911L106.594 832.163C105.078 831.785 103.436 831.911 102.046 832.732C99.1401 834.373 98.1294 838.098 99.8349 841.003C101.477 843.907 105.204 844.917 108.11 843.213C111.016 841.571 112.027 837.846 110.321 834.942C109.753 833.931 108.868 833.11 107.921 832.605L165.406 733.541L245.379 733.731L313.729 852.62L299.326 877.37C296.042 875.603 291.936 875.476 288.461 877.497C283.092 880.591 281.26 887.41 284.355 892.713C287.45 898.08 294.273 899.911 299.579 896.817C304.948 893.723 306.78 886.904 303.685 881.601C302.927 880.338 301.98 879.265 300.906 878.381L314.803 854.451L347.652 911.592L261.424 1060.09C259.845 1059.78 258.139 1060.03 256.623 1060.85C253.275 1062.74 252.138 1066.97 254.033 1070.32C255.929 1073.67 260.161 1074.8 263.509 1072.91C266.857 1071.02 267.994 1066.79 266.099 1063.44C265.404 1062.24 264.393 1061.29 263.256 1060.72L349.231 912.854L410.443 915.759L376.71 973.846C372.477 970.942 366.792 970.563 361.991 973.278C355.358 977.066 353.084 985.59 356.874 992.219C360.665 998.849 369.193 1001.12 375.826 997.333C382.458 993.545 384.732 985.021 380.942 978.392C380.184 977.066 379.3 975.993 378.226 974.982L412.085 916.706L479.93 1034.71L466.727 1057.5L352.326 1057.25C352.2 1056.81 352.01 1056.37 351.758 1055.93C350.115 1053.02 346.388 1052.01 343.482 1053.72C340.576 1055.36 339.566 1059.08 341.271 1061.99C342.914 1064.89 346.641 1065.9 349.547 1064.2C351.442 1063.12 352.516 1061.17 352.579 1059.15L467.864 1059.4L468.117 1058.96L525.16 960.713L562.051 1024.92L535.141 1071.33L609.871 1201.33L575.38 1201.27C575.254 1200.39 575.001 1199.57 574.496 1198.74C572.601 1195.4 568.368 1194.26 565.02 1196.16C561.672 1198.05 560.535 1202.28 562.43 1205.63C564.325 1208.97 568.558 1210.11 571.906 1208.22C573.864 1207.08 575.001 1205.18 575.317 1203.16L653.079 1203.35C653.016 1204.49 653.269 1205.63 653.901 1206.7C655.543 1209.6 659.27 1210.61 662.176 1208.91C665.082 1207.27 666.092 1203.54 664.387 1200.64C662.744 1197.73 659.017 1196.72 656.112 1198.43C654.911 1199.12 654.027 1200.2 653.522 1201.46L612.082 1201.4L537.352 1071.39L563.188 1026.88L573.043 1044.06L573.611 1044.06L670.514 1044.25L734.695 1155.87L735.264 1155.87L864.636 1156.13L864.889 1155.68L929.828 1043.87L867.226 935.016L1108.16 935.521L1108.41 935.079L1200.76 776.033L1275.56 906.225C1270.82 909.508 1269.3 915.885 1272.21 920.936C1275.31 926.303 1282.13 928.134 1287.43 925.04C1292.8 921.946 1294.64 915.127 1291.54 909.824C1288.63 904.773 1282.32 902.878 1277.14 905.278L1201.78 774.139L1230.08 725.397L1149.6 585.419L1202.91 584.661L1262.04 687.514L1261.91 687.703L1262.29 687.892L1262.48 688.208L1262.67 688.082L1263.56 688.587L1307.52 612.631L1424.83 614.273L1382.82 686.63C1379.41 684.483 1374.99 684.23 1371.26 686.314C1365.89 689.408 1364.06 696.227 1367.16 701.53C1370.25 706.897 1377.07 708.728 1382.38 705.634C1387.75 702.54 1389.58 695.721 1386.49 690.418C1385.85 689.281 1384.97 688.334 1384.02 687.514L1384.34 687.703L1426.41 615.22L1507.2 755.766L1475.3 810.76L1344.54 810.507C1344.29 808.739 1343.72 807.034 1342.83 805.393C1339.04 798.763 1330.52 796.49 1323.88 800.279C1317.25 804.067 1314.98 812.591 1318.77 819.22C1322.56 825.85 1331.08 828.123 1337.72 824.334C1342.14 821.809 1344.6 817.2 1344.67 812.401L1476.38 812.654L1476.63 812.212L1548.33 688.713L1476.88 564.394L1476.31 564.394L1333.42 564.078L1333.17 564.52L1306.13 611.179L1247.95 509.968L1264.12 482.124L1380.86 482.377C1380.86 483.324 1381.18 484.334 1381.68 485.218C1383.33 488.123 1387.05 489.133 1389.96 487.428C1392.87 485.786 1393.88 482.061 1392.17 479.157C1390.53 476.253 1386.8 475.242 1383.9 476.947C1382.51 477.768 1381.56 479.031 1381.12 480.483L1263.05 480.23L1262.8 480.672L1246.88 508.074L1223.95 468.171L1136.84 468.171L1201.71 356.416L1110.75 198.128L1167.92 99.8217L1110.68 0.252535L1110.12 0.252535L995.778 -2.34956e-05L938.482 98.6852C936.777 97.9907 934.818 97.9907 933.05 99.0009C930.144 100.643 929.133 104.368 930.839 107.272C932.481 110.176 936.208 111.187 939.114 109.482C942.02 107.84 943.031 104.115 941.325 101.211C941.009 100.643 940.567 100.137 940.062 99.6954L965.709 55.4986L1047.14 197.181L1010.37 197.118C1010.12 195.603 1009.55 194.087 1008.73 192.635C1004.94 186.006 996.409 183.733 989.776 187.521C983.144 191.309 980.869 199.833 984.66 206.462C988.45 213.092 996.978 215.365 1003.61 211.577C1008.22 208.925 1010.75 204 1010.56 199.012L1048.21 199.075L1082.76 259.183L1062.42 293.909L930.586 293.656L930.333 293.278L929.891 293.53L929.954 293.72L913.467 293.656C913.341 292.773 913.088 291.952 912.583 291.131C910.687 287.785 906.455 286.648 903.107 288.542C899.759 290.436 898.622 294.667 900.517 298.013C902.412 301.359 906.644 302.496 909.992 300.602C911.951 299.465 913.088 297.571 913.404 295.551L931.028 295.614L969.562 362.667L937.219 418.797L869.627 418.67L836.652 361.341C839.368 359.257 840.189 355.469 838.421 352.375C836.526 349.029 832.293 347.892 828.945 349.786C825.597 351.681 824.46 355.911 826.355 359.257C828.124 362.288 831.788 363.487 834.946 362.225L867.353 418.607L795.907 418.481L759.774 355.595L796.097 292.962C799.066 293.972 802.414 293.783 805.32 292.078C810.689 288.984 812.521 282.165 809.426 276.862C806.33 271.495 799.508 269.664 794.202 272.758C788.832 275.851 787 282.67 790.095 287.974C791.169 289.805 792.685 291.257 794.391 292.204L758.7 353.701L725.536 296.056L796.412 173.946L936.019 174.262L882.893 265.812C878.66 263.161 873.164 262.845 868.553 265.497C861.92 269.285 859.646 277.809 863.436 284.438C867.226 291.068 875.754 293.341 882.387 289.552C889.02 285.764 891.294 277.24 887.504 270.611C886.683 269.159 885.672 267.959 884.472 266.949L938.798 173.378L938.23 173.062L938.23 172.431L795.339 172.115L723.388 296.119L757.626 355.658L725.03 411.851L665.524 308.305L678.6 285.827L643.793 225.278L573.927 225.151L539.184 285.006C537.541 284.375 535.646 284.438 533.94 285.385C531.035 287.027 530.024 290.752 531.729 293.656C533.372 296.561 537.099 297.571 540.005 295.866C542.911 294.225 543.921 290.5 542.216 287.595C541.837 286.964 541.331 286.396 540.826 285.954L558.008 256.405L636.339 258.299L664.26 306.915L642.53 344.357L581.129 344.23C581.002 343.346 580.75 342.526 580.244 341.705C578.349 338.358 574.117 337.222 570.769 339.116C567.421 341.01 566.284 345.24 568.179 348.587C570.074 351.933 574.306 353.07 577.654 351.175C579.613 350.039 580.75 348.145 581.065 346.124L623.895 346.188L566.536 440.201L536.657 440.137L451.251 291.573C455.989 288.29 457.505 281.913 454.599 276.862C451.503 271.495 444.681 269.664 439.375 272.758C434.005 275.851 432.173 282.67 435.269 287.974C438.174 293.025 444.491 294.919 449.671 292.52L534.699 440.074L449.356 439.885L405.452 515.588L447.903 589.46L277.217 589.081L191.811 440.453C194.085 438.622 194.78 435.339 193.264 432.75C191.621 429.846 187.894 428.836 184.988 430.54C182.083 432.182 181.072 435.907 182.777 438.811C184.294 441.4 187.452 442.474 190.168 441.463L208.614 473.538L179.366 525.374L254.665 656.386L120.997 656.134L8.36446 850.221C6.72213 849.59 4.76388 849.653 3.12154 850.6C0.15255 852.178 -0.858315 855.903 0.784141 858.808ZM540.763 288.353C541.9 290.373 541.205 292.899 539.247 294.035C537.225 295.172 534.699 294.477 533.561 292.52C532.424 290.5 533.119 287.974 535.078 286.837C537.036 285.701 539.626 286.332 540.763 288.353ZM792.054 286.964C789.527 282.544 791.043 276.862 795.465 274.336C799.887 271.811 805.572 273.326 808.099 277.746C810.626 282.165 809.11 287.848 804.688 290.373C800.266 292.899 794.581 291.383 792.054 286.964ZM939.746 102.158C940.883 104.178 940.188 106.704 938.23 107.84C936.208 108.977 933.681 108.282 932.544 106.325C931.407 104.305 932.102 101.779 934.06 100.643C936.019 99.4429 938.545 100.137 939.746 102.158ZM1383.39 484.271C1383.07 483.703 1382.88 483.008 1382.82 482.377L1382.88 482.377L1382.88 481.367C1383.14 480.23 1383.83 479.22 1384.91 478.589C1386.93 477.452 1389.45 478.147 1390.59 480.104C1391.73 482.124 1391.03 484.65 1389.08 485.786C1387.05 486.986 1384.53 486.292 1383.39 484.271ZM1384.84 691.428C1387.37 695.848 1385.85 701.53 1381.43 704.056C1377.01 706.581 1371.32 705.066 1368.8 700.646C1366.27 696.227 1367.79 690.544 1372.21 688.019C1376.63 685.493 1382.32 687.008 1384.84 691.428ZM1307.84 612.189L1334.62 566.035L1475.87 566.351L1546.24 688.776L1507.58 755.387L1426.79 614.841L1443.84 585.482C1445.3 585.798 1446.81 585.608 1448.2 584.851C1451.11 583.209 1452.12 579.484 1450.41 576.579C1448.77 573.675 1445.04 572.665 1442.14 574.37C1439.23 576.011 1438.22 579.736 1439.93 582.641C1440.43 583.588 1441.19 584.282 1442.07 584.787L1425.21 613.894L1307.84 612.189ZM1443.09 575.948C1445.11 574.812 1447.63 575.506 1448.77 577.463C1449.91 579.484 1449.21 582.009 1447.25 583.146C1445.23 584.282 1442.71 583.588 1441.57 581.63C1440.37 579.673 1441.06 577.085 1443.09 575.948ZM655.417 1205.82C654.28 1203.8 654.975 1201.27 656.933 1200.13C658.954 1199 661.481 1199.69 662.618 1201.65C663.755 1203.67 663.06 1206.2 661.102 1207.33C659.144 1208.47 656.617 1207.77 655.417 1205.82ZM350.052 1057C351.189 1059.02 350.494 1061.55 348.536 1062.68C346.514 1063.82 343.988 1063.12 342.851 1061.17C341.714 1059.15 342.409 1056.62 344.367 1055.48C346.325 1054.35 348.915 1054.98 350.052 1057ZM302.043 882.8C304.57 887.22 303.053 892.903 298.631 895.428C294.21 897.954 288.524 896.438 285.997 892.019C283.471 887.599 284.987 881.917 289.409 879.391C293.767 876.802 299.453 878.318 302.043 882.8ZM108.679 836.078C109.816 838.098 109.121 840.624 107.163 841.76C105.204 842.897 102.614 842.202 101.478 840.245C100.34 838.225 101.035 835.699 102.993 834.563C104.952 833.363 107.542 834.058 108.679 836.078ZM190.042 439.38C188.084 440.516 185.494 439.822 184.357 437.864C183.22 435.844 183.914 433.318 185.873 432.182C187.894 431.045 190.421 431.74 191.558 433.697C192.758 435.718 192.063 438.243 190.042 439.38ZM449.608 591.417L477.403 591.48L421.813 689.913L443.797 728.175L387.196 728.048L346.136 656.576L345.567 656.576L255.171 656.386L179.872 525.374L208.867 474.043L276.08 590.975L276.648 590.975L448.977 591.354L449.04 591.417L449.608 591.417ZM444.87 730.069L514.168 850.6L457.694 850.789L388.27 730.006L444.87 730.069ZM463.19 564.962L449.482 588.513L407.537 515.588L421.245 492.037L463.19 564.962ZM477.403 589.586L451.124 589.523L464.327 566.793L477.403 589.586ZM534.572 441.968L463.443 564.457L421.498 491.532L450.366 441.779L534.572 441.968ZM449.671 290.31C445.249 292.836 439.564 291.32 437.037 286.901C434.511 282.481 436.027 276.799 440.449 274.273C444.87 271.747 450.556 273.263 453.083 277.682C455.673 282.039 454.156 287.721 449.671 290.31ZM612.208 521.081L491.932 728.301L444.365 728.175L422.382 689.913L477.972 591.48L536.594 591.606L576.77 522.344C578.665 523.101 580.939 523.038 582.834 521.965C586.182 520.071 587.319 515.84 585.424 512.494C583.529 509.148 579.297 508.011 575.949 509.905C572.601 511.799 571.464 516.03 573.359 519.376C573.801 520.197 574.433 520.828 575.127 521.397L535.457 589.712L477.908 589.586L464.58 566.351L536.846 441.905L566.726 441.968L612.208 521.081ZM514.737 850.6L445.439 730.069L490.795 730.195L490.29 731.016L558.956 850.474L514.737 850.6ZM560.093 852.305L610.882 940.698L588.583 979.086L515.748 852.431L560.093 852.305ZM601.659 800.784L658.828 798.953L739.938 940.067L612.524 939.814L562.241 852.368L628.633 852.178L628.633 851.61L644.362 878.949C639.624 882.232 638.108 888.609 641.014 893.66C644.109 899.027 650.932 900.858 656.238 897.764C661.607 894.67 663.439 887.852 660.344 882.548C657.438 877.497 651.121 875.603 645.941 878.002L601.659 800.784ZM658.765 883.432C661.292 887.851 659.775 893.534 655.354 896.059C650.932 898.585 645.246 897.07 642.72 892.65C640.193 888.23 641.709 882.548 646.131 880.022C650.553 877.497 656.238 879.012 658.765 883.432ZM561.167 850.41L533.877 802.93L599.511 800.847L627.875 850.221L561.167 850.41ZM533.625 802.488L492.501 730.953L493.006 730.132L558.956 730.258L599.258 800.342L533.625 802.488ZM645.625 579.168L559.019 728.364L494.143 728.238L613.282 522.975L645.625 579.168ZM709.427 442.284L754.783 521.144L612.587 520.828L567.294 441.968L709.427 442.284ZM721.303 579.105L756.868 523.796L756.426 523.038L854.34 523.228L877.46 563.447L843.853 621.281L819.722 579.231L819.154 579.231L721.303 579.105ZM918.394 734.362C920.921 738.782 919.405 744.464 914.983 746.99C910.561 749.515 904.876 748 902.349 743.58C899.822 739.161 901.338 733.478 905.76 730.953C910.182 728.427 915.867 729.879 918.394 734.362ZM720.735 579.105L646.004 578.916L613.661 522.722L755.857 523.038L756.299 523.733L720.735 579.105ZM665.461 308.557L724.967 412.104L708.606 440.327L567.294 440.011L624.653 345.998L643.73 346.061L665.461 308.557ZM664.64 306.221L636.718 257.604L558.387 255.71L575.191 226.793L642.909 226.919L676.642 285.575L664.64 306.221ZM873.922 488.754L855.161 521.333L854.908 521.333L755.352 521.144L709.869 442.032L759.016 357.363L795.149 420.249L795.718 420.249L834.63 420.312L873.922 488.754ZM1107.78 516.535L1147.64 585.861L1060.15 731.079L1022.75 665.983C1025.47 663.9 1026.29 660.111 1024.52 657.018C1022.62 653.671 1018.39 652.535 1015.04 654.429C1011.7 656.323 1010.56 660.553 1012.45 663.9C1014.22 666.93 1017.89 668.13 1021.05 666.867L1058.06 731.268L976.005 731.079L880.176 564.457L1056.55 564.836C1056.42 566.225 1056.67 567.677 1057.43 568.94C1059.33 572.286 1063.56 573.423 1066.91 571.528C1070.26 569.634 1071.39 565.404 1069.5 562.058C1067.6 558.711 1063.37 557.575 1060.02 559.469C1058.63 560.29 1057.62 561.489 1057.05 562.942L879.102 562.563L855.54 521.586L874.428 488.754L835.073 420.312L868.679 420.375L923.7 516.093L924.269 516.093L1107.78 516.535ZM1008.35 295.614L970.067 362.035L931.786 295.487L1008.35 295.614ZM1061.41 295.74L1021.36 364.182L971.71 362.982L1010.56 295.614L1061.41 295.74ZM1108.54 197.244L1047.7 197.118L966.024 54.9935L996.852 1.89413L1109.55 2.14669L1165.71 99.8217L1109.42 196.739L1108.54 197.244ZM1135.64 466.656L1097.04 399.539L1126.73 348.397C1129.07 348.65 1131.47 348.271 1133.61 347.008C1138.98 343.915 1140.82 337.096 1137.72 331.792C1134.63 326.425 1127.8 324.594 1122.5 327.688C1117.13 330.782 1115.3 337.601 1118.39 342.904C1119.84 345.43 1122.18 347.198 1124.83 348.019L1068.3 445.441L1021.8 364.561L1062.04 295.866L1109.42 295.993C1109.55 296.561 1109.8 297.129 1110.05 297.697C1111.69 300.602 1115.42 301.612 1118.33 299.907C1121.23 298.266 1122.24 294.54 1120.54 291.636C1118.9 288.732 1115.17 287.721 1112.26 289.426C1110.49 290.436 1109.42 292.204 1109.23 294.098L1063.05 293.972L1083.39 259.246L1048.84 199.138L1109.17 199.265L1199.63 356.605L1135.64 466.656ZM1113.15 290.942C1115.17 289.805 1117.7 290.5 1118.83 292.457C1119.97 294.477 1119.28 297.003 1117.32 298.139C1115.3 299.276 1112.77 298.581 1111.63 296.624C1110.49 294.667 1111.19 292.078 1113.15 290.942ZM1120.03 341.957C1117.51 337.538 1119.02 331.855 1123.44 329.33C1127.87 326.804 1133.55 328.319 1136.08 332.739C1138.61 337.159 1137.09 342.841 1132.67 345.367C1128.25 347.892 1122.56 346.377 1120.03 341.957ZM1204.87 584.345L1247.76 510.474L1305.94 611.684L1263.05 685.556L1204.87 584.345ZM1109.42 515.588L1136.65 468.676L1223.76 468.676L1246.69 508.579L1202.85 584.093L1149.28 584.851L1109.42 515.588ZM1107.78 514.641L924.838 514.262L870.89 420.438L938.482 420.565L938.735 420.059L971.331 363.487L1021.24 364.687L1067.73 445.567L953.454 445.315C953.327 444.683 953.138 444.115 952.759 443.547C951.116 440.643 947.389 439.632 944.484 441.337C941.578 442.979 940.567 446.704 942.273 449.608C943.915 452.513 947.642 453.523 950.548 451.818C952.317 450.808 953.327 449.103 953.517 447.209L1069.06 447.461L1096.66 399.981L1135.26 467.098L1107.78 514.641ZM949.663 450.176C947.642 451.313 945.115 450.618 943.978 448.661C942.841 446.641 943.536 444.115 945.494 442.979C947.516 441.842 950.042 442.537 951.179 444.494C952.38 446.514 951.685 449.04 949.663 450.176ZM1277.14 907.235C1281.56 904.709 1287.24 906.225 1289.77 910.645C1292.3 915.064 1290.78 920.747 1286.36 923.272C1281.94 925.798 1276.25 924.282 1273.73 919.863C1271.2 915.443 1272.72 909.761 1277.14 907.235ZM1060.53 731.268L1147.89 586.303L1227.8 725.333L1200.64 772.182L1177.27 731.584L1176.7 731.584L1060.53 731.268ZM1051.49 836.709L1086.36 776.665L1061.35 733.099L1176.19 733.352L1199.56 773.95L1107.08 933.248L1051.49 836.709ZM936.019 801.794L975.942 732.973L1059.07 733.163L1084.09 776.728L1050.36 834.878L1033.24 805.077L1033.11 805.077L936.019 801.794ZM1032.98 805.456L1050.1 835.257L1017.38 891.64L884.345 891.387L884.156 891.072L935.766 802.173L1032.98 805.456ZM691.74 731.395L748.466 630.247L788.959 630.31C788.895 631.447 789.148 632.583 789.78 633.593C791.422 636.498 795.149 637.508 798.055 635.803C800.961 634.162 801.972 630.436 800.266 627.532C798.624 624.628 794.896 623.618 791.991 625.322C790.727 626.017 789.843 627.153 789.337 628.416L748.466 628.353L721.24 581.062L818.649 581.252L842.779 623.302L785.8 721.482C784.158 720.85 782.262 720.977 780.683 721.924C777.777 723.566 776.767 727.291 778.472 730.195C780.115 733.099 783.842 734.11 786.748 732.405C789.653 730.763 790.664 727.038 788.959 724.134C788.579 723.439 788.074 722.871 787.442 722.429L843.917 625.196L904.055 729.879C899.317 733.163 897.801 739.54 900.707 744.591C903.802 749.957 910.624 751.788 915.931 748.695C921.3 745.601 923.132 738.782 920.037 733.478C917.131 728.427 910.814 726.533 905.634 728.932L844.927 623.302L878.534 565.467L974.3 732.089L883.082 889.304L821.238 781.716C823.955 779.632 824.776 775.844 823.007 772.75C821.112 769.404 816.88 768.267 813.532 770.162C810.184 772.056 809.046 776.286 810.942 779.632C812.71 782.663 816.374 783.863 819.533 782.6L881.945 891.135L873.922 904.899C872.09 903.825 869.753 903.699 867.732 904.836C864.826 906.477 863.815 910.202 865.521 913.107C867.226 916.011 870.89 917.021 873.796 915.317C876.702 913.675 877.712 909.95 876.007 907.046C875.817 906.73 875.628 906.414 875.375 906.162L883.019 893.029L883.208 893.345L883.777 893.345L1018.46 893.66L1018.71 893.218L1051.18 837.278L1106.58 933.627L865.963 933.122L865.205 931.796L749.098 729.753C751.814 727.67 752.636 723.881 750.867 720.787C748.972 717.441 744.739 716.305 741.391 718.199C738.043 720.093 736.906 724.323 738.801 727.67C740.57 730.7 744.234 731.9 747.392 730.637L863.499 932.617L864.826 934.89L927.428 1043.74L899.19 1092.36L691.74 731.395ZM872.912 913.675C870.89 914.812 868.363 914.117 867.226 912.16C866.089 910.139 866.784 907.614 868.742 906.477C870.764 905.341 873.291 906.035 874.428 907.993C875.628 910.013 874.933 912.539 872.912 913.675ZM785.737 730.7C783.715 731.837 781.189 731.142 780.051 729.185C778.914 727.164 779.609 724.639 781.567 723.502C783.589 722.366 786.116 723.06 787.253 725.018C788.39 727.038 787.695 729.564 785.737 730.7ZM792.875 626.964C794.896 625.827 797.423 626.522 798.56 628.479C799.697 630.5 799.002 633.025 797.044 634.162C795.023 635.298 792.496 634.604 791.359 632.646C790.222 630.689 790.917 628.1 792.875 626.964ZM696.793 1000.62L720.229 960.208C721.619 960.524 723.135 960.271 724.462 959.514C727.368 957.872 728.378 954.147 726.673 951.242C725.03 948.338 721.303 947.328 718.397 949.033C715.491 950.674 714.481 954.399 716.186 957.304C716.755 958.251 717.513 959.008 718.397 959.514L695.088 999.606L579.676 998.091L612.461 941.645L762.49 941.961L837.031 1071.65C832.293 1074.93 830.777 1081.31 833.683 1086.36C836.778 1091.73 843.601 1093.56 848.907 1090.46C854.276 1087.37 856.108 1080.55 853.013 1075.25C850.107 1070.2 843.79 1068.3 838.61 1070.7L763.69 940.13L763.122 940.13L740.507 940.067L659.144 798.511L659.017 798.511L601.469 800.342L560.661 729.374L646.826 580.873L720.671 580.999L747.898 628.29L674.052 628.163L623.579 715.105C619.726 713.527 615.24 713.653 611.387 715.863C604.754 719.651 602.48 728.175 606.27 734.804C610.06 741.434 618.588 743.707 625.221 739.918C631.854 736.13 634.128 727.606 630.338 720.977C629.075 718.83 627.369 717.125 625.348 715.926L675.189 630.058L747.961 630.184L691.234 731.395L899.001 1092.86L863.373 1154.23L785.042 1154.04L696.793 1000.62ZM851.497 1076.26C854.024 1080.68 852.508 1086.36 848.086 1088.88C843.664 1091.41 837.978 1089.89 835.452 1085.47C832.925 1081.05 834.441 1075.37 838.863 1072.85C843.285 1070.32 848.97 1071.84 851.497 1076.26ZM719.408 950.674C721.43 949.538 723.956 950.232 725.093 952.189C726.23 954.21 725.536 956.735 723.577 957.872C721.556 959.008 719.029 958.314 717.892 956.357C716.692 954.336 717.387 951.811 719.408 950.674ZM672.03 1043.3L696.54 1001.06L784.473 1154.04L735.643 1153.92L672.03 1043.3ZM564.199 1024.99L579.486 998.596L694.898 1000.11L670.388 1042.35L574.053 1042.16L564.199 1024.99ZM349.483 912.412L420.55 789.924L456.304 852.115L457.126 851.673L457.126 852.62L515.179 852.431L588.267 979.592L562.999 1023.09L525.665 958.188L524.718 958.756L524.149 958.44L480.056 1034.4L412.212 916.39L432.363 881.727C434.258 883.053 436.722 883.242 438.869 882.043C441.775 880.401 442.786 876.676 441.08 873.772C439.375 870.867 435.711 869.857 432.805 871.562C429.899 873.203 428.889 876.929 430.594 879.833C430.72 880.022 430.847 880.212 430.973 880.401L410.632 915.443L349.483 912.412ZM433.879 873.077C435.9 871.941 438.427 872.635 439.564 874.592C440.701 876.613 440.006 879.138 438.048 880.275C436.09 881.411 433.5 880.717 432.363 878.76C431.163 876.739 431.857 874.214 433.879 873.077ZM315.056 854.262L386.691 730.89L419.539 788.03L347.904 911.402L315.056 854.262ZM255.171 658.28L344.999 658.47L385.554 728.995L313.919 852.368L245.884 733.983L279.365 734.046C279.365 734.994 279.681 736.004 280.186 736.888C281.828 739.792 285.555 740.802 288.461 739.097C291.367 737.456 292.378 733.731 290.672 730.826C289.03 727.922 285.303 726.912 282.397 728.617C281.007 729.437 280.06 730.7 279.617 732.152L210.572 732.026L255.171 658.28ZM283.344 730.195C285.366 729.059 287.893 729.753 289.03 731.71C290.167 733.731 289.472 736.256 287.514 737.393C285.492 738.529 282.965 737.835 281.828 735.877C280.691 733.92 281.386 731.395 283.344 730.195ZM2.4266 857.861C1.28951 855.84 1.98434 853.315 3.94259 852.178C5.96407 851.042 8.49081 851.736 9.62789 853.694C10.765 855.714 10.0702 858.24 8.1119 859.376C6.15365 860.513 3.56368 859.818 2.4266 857.861Z" fill="#333333" fill-opacity="0.12"/>
</svg>
