<svg width="1559" height="1837" viewBox="0 0 1559 1837" fill="none" xmlns="http://www.w3.org/2000/svg">
<path d="M-715.215 858.808C-713.573 861.712 -709.846 862.723 -706.94 861.018C-704.034 859.313 -703.023 855.651 -704.729 852.747C-705.108 852.115 -705.55 851.547 -706.119 851.105L-593.992 657.965L-461.398 658.218L-505.996 731.9L-551.731 731.774L-609.848 831.911L-609.405 832.164C-610.921 831.785 -612.564 831.911 -613.954 832.732C-616.859 834.374 -617.87 838.099 -616.165 841.003C-614.522 843.907 -610.795 844.918 -607.889 843.213C-604.983 841.571 -603.973 837.846 -605.678 834.942C-606.247 833.932 -607.131 833.111 -608.079 832.606L-550.594 733.542L-470.62 733.731L-402.27 852.621L-416.673 877.371C-419.958 875.603 -424.064 875.477 -427.538 877.497C-432.908 880.591 -434.74 887.41 -431.644 892.713C-428.549 898.08 -421.727 899.911 -416.42 896.817C-411.051 893.724 -409.219 886.905 -412.314 881.601C-413.072 880.338 -414.02 879.265 -415.094 878.381L-401.196 854.452L-368.348 911.592L-454.575 1060.09C-456.154 1059.78 -457.86 1060.03 -459.376 1060.85C-462.724 1062.74 -463.861 1066.98 -461.966 1070.32C-460.071 1073.67 -455.839 1074.8 -452.491 1072.91C-449.143 1071.02 -448.006 1066.79 -449.901 1063.44C-450.596 1062.24 -451.606 1061.29 -452.743 1060.72L-366.769 912.855L-305.557 915.759L-339.29 973.846C-343.522 970.942 -349.207 970.563 -354.008 973.278C-360.641 977.066 -362.915 985.59 -359.125 992.219C-355.335 998.849 -346.807 1001.12 -340.174 997.334C-333.541 993.545 -331.267 985.022 -335.057 978.392C-335.815 977.066 -336.7 975.993 -337.774 974.983L-303.914 916.706L-236.07 1034.71L-249.272 1057.5L-363.673 1057.25C-363.8 1056.81 -363.989 1056.37 -364.242 1055.93C-365.884 1053.02 -369.611 1052.01 -372.517 1053.72C-375.423 1055.36 -376.434 1059.08 -374.728 1061.99C-373.086 1064.89 -369.359 1065.9 -366.453 1064.2C-364.558 1063.12 -363.484 1061.17 -363.421 1059.15L-248.135 1059.4L-247.882 1058.96L-190.84 960.713L-153.948 1024.93L-180.859 1071.33L-106.128 1201.33L-140.619 1201.27C-140.746 1200.39 -140.998 1199.57 -141.504 1198.74C-143.399 1195.4 -147.631 1194.26 -150.979 1196.16C-154.327 1198.05 -155.464 1202.28 -153.569 1205.63C-151.674 1208.97 -147.442 1210.11 -144.094 1208.22C-142.136 1207.08 -140.999 1205.19 -140.683 1203.16L-62.9202 1203.35C-62.9833 1204.49 -62.7306 1205.63 -62.0989 1206.7C-60.4565 1209.6 -56.7295 1210.61 -53.8237 1208.91C-50.9178 1207.27 -49.9072 1203.54 -51.6127 1200.64C-53.2552 1197.73 -56.9821 1196.72 -59.8879 1198.43C-61.0882 1199.12 -61.9726 1200.2 -62.478 1201.46L-103.918 1201.4L-178.648 1071.39L-152.811 1026.88L-142.957 1044.06L-142.388 1044.06L-45.4851 1044.25L18.6957 1155.87L19.2644 1155.87L148.637 1156.13L148.889 1155.68L213.829 1043.87L151.227 935.016L392.158 935.521L392.411 935.079L484.765 776.034L559.559 906.225C554.821 909.508 553.305 915.885 556.211 920.936C559.306 926.303 566.128 928.134 571.435 925.04C576.804 921.946 578.636 915.128 575.541 909.824C572.635 904.773 566.318 902.879 561.138 905.278L485.776 774.14L514.076 725.397L433.597 585.419L486.913 584.661L546.04 687.514L545.914 687.703L546.293 687.893L546.483 688.208L546.672 688.082L547.556 688.587L591.523 612.632L708.83 614.273L666.822 686.63C663.411 684.483 658.989 684.231 655.262 686.314C649.892 689.408 648.06 696.227 651.156 701.53C654.251 706.897 661.073 708.728 666.38 705.634C671.749 702.541 673.581 695.722 670.486 690.418C669.854 689.282 668.97 688.335 668.022 687.514L668.338 687.703L710.409 615.22L791.204 755.766L759.303 810.76L628.541 810.507C628.288 808.739 627.719 807.035 626.835 805.393C623.045 798.764 614.517 796.491 607.884 800.279C601.251 804.067 598.977 812.591 602.767 819.22C606.557 825.85 615.085 828.123 621.718 824.335C626.14 821.809 628.604 817.2 628.667 812.401L760.377 812.654L760.629 812.212L832.328 688.713L760.882 564.394L760.314 564.394L617.423 564.078L617.17 564.52L590.133 611.179L531.953 509.969L548.125 482.125L664.863 482.377C664.863 483.324 665.179 484.335 665.685 485.218C667.327 488.123 671.054 489.133 673.96 487.428C676.866 485.787 677.877 482.062 676.171 479.157C674.529 476.253 670.802 475.243 667.896 476.947C666.506 477.768 665.558 479.031 665.116 480.483L547.051 480.231L546.798 480.673L530.88 508.075L507.949 468.171L420.837 468.171L485.713 356.416L394.748 198.128L451.917 99.822L394.685 0.252779L394.116 0.252779L279.778 0.000220645L222.483 98.6855C220.777 97.9909 218.819 97.9909 217.05 99.0012C214.144 100.643 213.134 104.368 214.839 107.272C216.482 110.177 220.209 111.187 223.114 109.482C226.02 107.841 227.031 104.115 225.325 101.211C225.01 100.643 224.567 100.138 224.062 99.6957L249.709 55.4988L331.136 197.181L294.37 197.118C294.118 195.603 293.549 194.088 292.728 192.635C288.938 186.006 280.41 183.733 273.777 187.521C267.144 191.309 264.87 199.833 268.66 206.463C272.45 213.092 280.978 215.365 287.611 211.577C292.223 208.925 294.749 204 294.56 199.012L332.209 199.075L366.763 259.183L346.423 293.909L214.587 293.657L214.334 293.278L213.892 293.53L213.955 293.72L197.467 293.657C197.341 292.773 197.088 291.952 196.583 291.131C194.688 287.785 190.455 286.648 187.107 288.542C183.76 290.437 182.622 294.667 184.517 298.013C186.413 301.36 190.645 302.496 193.993 300.602C195.951 299.465 197.088 297.571 197.404 295.551L215.029 295.614L253.562 362.667L221.219 418.797L153.627 418.671L120.653 361.341C123.369 359.257 124.19 355.469 122.421 352.375C120.526 349.029 116.294 347.893 112.946 349.787C109.598 351.681 108.461 355.911 110.356 359.257C112.124 362.288 115.788 363.488 118.947 362.225L151.353 418.608L79.9078 418.481L43.7743 355.595L80.0972 292.962C83.0661 293.972 86.4142 293.783 89.3201 292.078C94.6895 288.984 96.5214 282.166 93.4261 276.862C90.3307 271.495 83.5083 269.664 78.202 272.758C72.8326 275.852 71.0006 282.671 74.0959 287.974C75.1698 289.805 76.686 291.257 78.3916 292.204L42.7004 353.701L9.53606 296.056L80.413 173.946L220.019 174.262L166.893 265.813C162.661 263.161 157.165 262.845 152.553 265.497C145.921 269.285 143.646 277.809 147.437 284.439C151.227 291.068 159.755 293.341 166.388 289.553C173.02 285.764 175.295 277.241 171.505 270.611C170.683 269.159 169.673 267.959 168.472 266.949L222.799 173.378L222.23 173.062L222.23 172.431L79.3391 172.115L7.38835 296.119L41.6266 355.659L9.03068 411.852L-50.4756 308.305L-37.3994 285.828L-72.2061 225.278L-142.072 225.152L-176.816 285.007C-178.458 284.375 -180.354 284.438 -182.059 285.386C-184.965 287.027 -185.976 290.752 -184.27 293.657C-182.628 296.561 -178.901 297.571 -175.995 295.867C-173.089 294.225 -172.078 290.5 -173.784 287.595C-174.163 286.964 -174.668 286.396 -175.173 285.954L-157.991 256.405L-79.6602 258.299L-51.739 306.916L-73.4695 344.357L-134.871 344.231C-134.997 343.347 -135.25 342.526 -135.755 341.705C-137.65 338.359 -141.883 337.222 -145.231 339.116C-148.579 341.01 -149.716 345.241 -147.821 348.587C-145.926 351.933 -141.693 353.07 -138.345 351.176C-136.387 350.039 -135.25 348.145 -134.934 346.125L-92.1047 346.188L-149.463 440.201L-179.343 440.138L-264.749 291.573C-260.011 288.29 -258.495 281.913 -261.401 276.862C-264.496 271.495 -271.318 269.664 -276.625 272.758C-281.994 275.852 -283.826 282.671 -280.731 287.974C-277.825 293.025 -271.508 294.919 -266.328 292.52L-181.301 440.075L-266.644 439.885L-310.547 515.588L-268.097 589.46L-438.783 589.081L-524.189 440.453C-521.915 438.622 -521.22 435.339 -522.736 432.75C-524.378 429.846 -528.105 428.836 -531.011 430.541C-533.917 432.182 -534.928 435.907 -533.222 438.812C-531.706 441.4 -528.548 442.474 -525.831 441.464L-507.386 473.538L-536.633 525.374L-461.334 656.386L-595.003 656.134L-707.635 850.221C-709.277 849.59 -711.236 849.653 -712.878 850.6C-715.847 852.179 -716.858 855.904 -715.215 858.808ZM-175.237 288.353C-174.1 290.373 -174.794 292.899 -176.753 294.036C-178.774 295.172 -181.301 294.477 -182.438 292.52C-183.575 290.5 -182.88 287.974 -180.922 286.838C-178.964 285.701 -176.374 286.333 -175.237 288.353ZM76.0543 286.964C73.5275 282.544 75.0435 276.862 79.4654 274.336C83.8873 271.811 89.5727 273.326 92.0995 277.746C94.6263 282.166 93.1102 287.848 88.6883 290.374C84.2664 292.899 78.5811 291.384 76.0543 286.964ZM223.746 102.158C224.883 104.179 224.188 106.704 222.23 107.841C220.209 108.977 217.682 108.282 216.545 106.325C215.408 104.305 216.103 101.779 218.061 100.643C220.019 99.4431 222.546 100.138 223.746 102.158ZM667.39 484.271C667.074 483.703 666.885 483.009 666.822 482.377L666.885 482.377L666.885 481.367C667.138 480.231 667.833 479.22 668.906 478.589C670.928 477.452 673.455 478.147 674.592 480.104C675.729 482.125 675.034 484.65 673.076 485.787C671.054 486.986 668.527 486.292 667.39 484.271ZM668.843 691.428C671.37 695.848 669.854 701.53 665.432 704.056C661.01 706.582 655.325 705.066 652.798 700.647C650.271 696.227 651.787 690.544 656.209 688.019C660.631 685.493 666.316 687.009 668.843 691.428ZM591.839 612.19L618.623 566.036L759.871 566.351L830.243 688.777L791.583 755.388L710.788 614.842L727.844 585.482C729.297 585.798 730.813 585.608 732.203 584.851C735.109 583.209 736.119 579.484 734.414 576.58C732.771 573.675 729.044 572.665 726.139 574.37C723.233 576.011 722.222 579.737 723.928 582.641C724.433 583.588 725.191 584.283 726.075 584.788L709.209 613.894L591.839 612.19ZM727.086 575.948C729.108 574.812 731.634 575.506 732.771 577.464C733.908 579.484 733.214 582.01 731.255 583.146C729.234 584.283 726.707 583.588 725.57 581.631C724.37 579.673 725.065 577.085 727.086 575.948ZM-60.5829 1205.82C-61.7199 1203.8 -61.025 1201.27 -59.0667 1200.13C-57.0452 1199 -54.5184 1199.69 -53.3814 1201.65C-52.2443 1203.67 -52.9393 1206.2 -54.8976 1207.33C-56.8558 1208.47 -59.3826 1207.77 -60.5829 1205.82ZM-365.947 1057C-364.81 1059.02 -365.505 1061.55 -367.464 1062.68C-369.485 1063.82 -372.012 1063.12 -373.149 1061.17C-374.286 1059.15 -373.591 1056.62 -371.633 1055.48C-369.674 1054.35 -367.085 1054.98 -365.947 1057ZM-413.957 882.801C-411.43 887.22 -412.946 892.903 -417.368 895.428C-421.79 897.954 -427.475 896.439 -430.002 892.019C-432.529 887.599 -431.013 881.917 -426.591 879.391C-422.232 876.803 -416.547 878.318 -413.957 882.801ZM-607.321 836.078C-606.184 838.099 -606.878 840.624 -608.837 841.761C-610.795 842.897 -613.385 842.203 -614.522 840.245C-615.659 838.225 -614.964 835.699 -613.006 834.563C-611.048 833.363 -608.458 834.058 -607.321 836.078ZM-525.958 439.38C-527.916 440.516 -530.506 439.822 -531.643 437.865C-532.78 435.844 -532.085 433.319 -530.127 432.182C-528.105 431.046 -525.579 431.74 -524.441 433.698C-523.241 435.718 -523.936 438.244 -525.958 439.38ZM-266.391 591.417L-238.596 591.48L-294.186 689.913L-272.203 728.175L-328.803 728.049L-369.864 656.576L-370.433 656.576L-460.829 656.386L-536.128 525.374L-507.133 474.043L-439.92 590.975L-439.351 590.975L-267.023 591.354L-266.96 591.417L-266.391 591.417ZM-271.129 730.069L-201.831 850.6L-258.305 850.79L-327.729 730.006L-271.129 730.069ZM-252.81 564.962L-266.518 588.513L-308.463 515.588L-294.755 492.037L-252.81 564.962ZM-238.596 589.586L-264.875 589.523L-251.673 566.793L-238.596 589.586ZM-181.427 441.969L-252.557 564.457L-294.502 491.532L-265.633 441.779L-181.427 441.969ZM-266.328 290.31C-270.75 292.836 -276.435 291.321 -278.962 286.901C-281.489 282.481 -279.973 276.799 -275.551 274.273C-271.129 271.748 -265.444 273.263 -262.917 277.683C-260.327 282.039 -261.843 287.722 -266.328 290.31ZM-103.791 521.081L-224.067 728.301L-271.634 728.175L-293.618 689.913L-238.028 591.48L-179.406 591.607L-139.23 522.344C-137.335 523.101 -135.06 523.038 -133.165 521.965C-129.817 520.071 -128.68 515.841 -130.575 512.494C-132.471 509.148 -136.703 508.011 -140.051 509.906C-143.399 511.8 -144.536 516.03 -142.641 519.376C-142.199 520.197 -141.567 520.828 -140.872 521.397L-180.543 589.712L-238.091 589.586L-251.42 566.351L-179.153 441.906L-149.274 441.969L-103.791 521.081ZM-201.263 850.6L-270.56 730.069L-225.204 730.195L-225.71 731.016L-157.044 850.474L-201.263 850.6ZM-155.907 852.305L-105.118 940.699L-127.417 979.087L-200.252 852.431L-155.907 852.305ZM-114.341 800.784L-57.1715 798.953L23.9389 940.067L-103.475 939.815L-153.759 852.368L-87.3669 852.179L-87.3669 851.61L-71.6376 878.949C-76.3754 882.232 -77.8915 888.609 -74.9857 893.66C-71.8904 899.027 -65.0679 900.858 -59.7616 897.764C-54.3921 894.671 -52.5602 887.852 -55.6556 882.548C-58.5614 877.497 -64.8784 875.603 -70.0584 878.002L-114.341 800.784ZM-57.2348 883.432C-54.708 887.852 -56.224 893.534 -60.6459 896.06C-65.0679 898.585 -70.7532 897.07 -73.2799 892.65C-75.8067 888.231 -74.2908 882.548 -69.8688 880.023C-65.4469 877.497 -59.7616 879.012 -57.2348 883.432ZM-154.833 850.411L-182.122 802.931L-116.488 800.847L-88.125 850.221L-154.833 850.411ZM-182.375 802.489L-223.499 730.953L-222.993 730.132L-157.044 730.258L-116.741 800.342L-182.375 802.489ZM-70.3742 579.168L-156.98 728.364L-221.856 728.238L-102.717 522.975L-70.3742 579.168ZM-6.57235 442.284L38.7839 521.144L-103.412 520.829L-148.705 441.969L-6.57235 442.284ZM5.30368 579.105L40.8685 523.796L40.4264 523.038L138.34 523.228L161.46 563.447L127.854 621.282L103.723 579.231L103.154 579.231L5.30368 579.105ZM202.395 734.362C204.921 738.782 203.405 744.465 198.983 746.99C194.562 749.516 188.876 748 186.349 743.581C183.823 739.161 185.339 733.478 189.761 730.953C194.183 728.427 199.868 729.88 202.395 734.362ZM4.7352 579.105L-69.9951 578.916L-102.338 522.723L39.8578 523.038L40.2999 523.733L4.7352 579.105ZM-50.5386 308.557L8.96757 412.104L-7.39357 440.327L-148.705 440.011L-91.3467 345.998L-72.2693 346.062L-50.5386 308.557ZM-51.3599 306.221L-79.2811 257.605L-157.612 255.711L-140.809 226.793L-73.0905 226.919L-39.3576 285.575L-51.3599 306.221ZM157.923 488.754L139.161 521.334L138.909 521.334L39.3523 521.144L-6.13015 442.032L43.0163 357.363L79.1496 420.249L79.7182 420.249L118.631 420.312L157.923 488.754ZM391.779 516.535L431.639 585.861L344.149 731.079L306.752 665.984C309.468 663.9 310.289 660.112 308.521 657.018C306.625 653.672 302.393 652.535 299.045 654.429C295.697 656.323 294.56 660.554 296.455 663.9C298.224 666.931 301.888 668.13 305.046 666.867L342.064 731.269L260.006 731.079L164.177 564.457L340.548 564.836C340.421 566.225 340.674 567.677 341.432 568.94C343.327 572.286 347.56 573.423 350.908 571.529C354.256 569.634 355.393 565.404 353.498 562.058C351.603 558.712 347.37 557.575 344.022 559.469C342.632 560.29 341.622 561.49 341.053 562.942L163.103 562.563L139.54 521.586L158.428 488.754L119.073 420.312L152.68 420.375L207.701 516.093L208.27 516.093L391.779 516.535ZM292.349 295.614L254.068 362.036L215.787 295.488L292.349 295.614ZM345.412 295.74L305.362 364.182L255.71 362.983L294.56 295.614L345.412 295.74ZM392.537 197.244L331.704 197.118L250.025 54.9937L280.852 1.89437L393.548 2.14693L449.706 99.822L393.421 196.739L392.537 197.244ZM419.637 466.656L381.04 399.54L410.73 348.398C413.067 348.65 415.468 348.271 417.615 347.009C422.985 343.915 424.817 337.096 421.721 331.792C418.626 326.426 411.804 324.594 406.497 327.688C401.128 330.782 399.296 337.601 402.391 342.905C403.844 345.43 406.182 347.198 408.835 348.019L352.297 445.441L305.804 364.561L346.044 295.867L393.421 295.993C393.548 296.561 393.8 297.129 394.053 297.698C395.695 300.602 399.422 301.612 402.328 299.907C405.234 298.266 406.245 294.541 404.539 291.636C402.897 288.732 399.17 287.722 396.264 289.426C394.495 290.437 393.421 292.205 393.232 294.099L347.054 293.972L367.395 259.246L332.841 199.139L393.169 199.265L483.628 356.606L419.637 466.656ZM397.148 290.942C399.17 289.805 401.697 290.5 402.834 292.457C403.971 294.478 403.276 297.003 401.318 298.14C399.296 299.276 396.769 298.581 395.632 296.624C394.495 294.667 395.19 292.078 397.148 290.942ZM404.034 341.958C401.507 337.538 403.023 331.855 407.445 329.33C411.867 326.804 417.552 328.32 420.079 332.739C422.606 337.159 421.09 342.841 416.668 345.367C412.246 347.893 406.561 346.377 404.034 341.958ZM488.871 584.346L531.764 510.474L589.944 611.685L547.051 685.557L488.871 584.346ZM393.421 515.588L420.648 468.676L507.759 468.676L530.69 508.58L486.85 584.093L433.282 584.851L393.421 515.588ZM391.779 514.641L208.838 514.262L154.891 420.439L222.483 420.565L222.735 420.06L255.331 363.488L305.236 364.687L351.729 445.568L237.454 445.315C237.328 444.684 237.138 444.115 236.759 443.547C235.117 440.643 231.39 439.633 228.484 441.337C225.578 442.979 224.567 446.704 226.273 449.608C227.915 452.513 231.642 453.523 234.548 451.818C236.317 450.808 237.328 449.103 237.517 447.209L353.056 447.462L380.661 399.982L419.258 467.098L391.779 514.641ZM233.664 450.177C231.642 451.313 229.116 450.619 227.979 448.661C226.842 446.641 227.536 444.115 229.495 442.979C231.516 441.842 234.043 442.537 235.18 444.494C236.38 446.515 235.685 449.04 233.664 450.177ZM561.138 907.235C565.56 904.71 571.245 906.225 573.772 910.645C576.299 915.064 574.783 920.747 570.361 923.272C565.939 925.798 560.254 924.283 557.727 919.863C555.2 915.443 556.716 909.761 561.138 907.235ZM344.528 731.269L431.892 586.303L511.802 725.334L484.639 772.182L461.266 731.584L460.698 731.584L344.528 731.269ZM335.494 836.71L370.364 776.665L345.349 733.1L460.192 733.352L483.565 773.95L391.084 933.248L335.494 836.71ZM220.019 801.794L259.943 732.973L343.075 733.163L368.09 776.728L334.357 834.879L317.238 805.077L317.112 805.077L220.019 801.794ZM316.985 805.456L334.104 835.258L301.382 891.64L168.346 891.388L168.156 891.072L219.766 802.173L316.985 805.456ZM-24.26 731.395L32.4669 630.247L72.959 630.31C72.8958 631.447 73.1484 632.583 73.7801 633.594C75.4225 636.498 79.1496 637.508 82.0555 635.803C84.9613 634.162 85.972 630.437 84.2664 627.532C82.624 624.628 78.8969 623.618 75.9911 625.322C74.7276 626.017 73.8433 627.153 73.3379 628.416L32.4669 628.353L5.24045 581.062L102.649 581.252L126.78 623.302L69.8005 721.482C68.158 720.851 66.2629 720.977 64.6836 721.924C61.7778 723.566 60.7671 727.291 62.4727 730.195C64.1151 733.1 67.8422 734.11 70.7481 732.405C73.6539 730.764 74.6646 727.038 72.959 724.134C72.58 723.439 72.0746 722.871 71.4428 722.429L127.917 625.196L188.055 729.88C183.317 733.163 181.801 739.54 184.707 744.591C187.802 749.958 194.625 751.789 199.931 748.695C205.301 745.601 207.132 738.782 204.037 733.478C201.131 728.427 194.814 726.533 189.634 728.933L128.928 623.302L162.534 565.467L258.3 732.089L167.083 889.304L105.239 781.716C107.955 779.633 108.776 775.844 107.008 772.751C105.113 769.404 100.88 768.268 97.5321 770.162C94.1841 772.056 93.047 776.286 94.9421 779.633C96.7108 782.663 100.375 783.863 103.533 782.6L165.945 891.135L157.923 904.899C156.091 903.826 153.754 903.699 151.732 904.836C148.826 906.478 147.816 910.203 149.521 913.107C151.227 916.011 154.891 917.022 157.796 915.317C160.702 913.675 161.713 909.95 160.007 907.046C159.818 906.73 159.628 906.414 159.376 906.162L167.019 893.029L167.209 893.345L167.777 893.345L302.456 893.66L302.709 893.218L335.178 837.278L390.579 933.627L149.963 933.122L149.205 931.796L33.0985 729.753C35.8148 727.67 36.6361 723.881 34.8673 720.788C32.9723 717.441 28.7398 716.305 25.3918 718.199C22.0438 720.093 20.9067 724.323 22.8018 727.67C24.5705 730.7 28.2345 731.9 31.393 730.637L147.5 932.617L148.826 934.89L211.428 1043.74L183.191 1092.36L-24.26 731.395ZM156.912 913.675C154.891 914.812 152.364 914.117 151.227 912.16C150.09 910.14 150.785 907.614 152.743 906.478C154.764 905.341 157.291 906.036 158.428 907.993C159.628 910.013 158.934 912.539 156.912 913.675ZM69.7373 730.7C67.7158 731.837 65.189 731.142 64.052 729.185C62.9149 727.165 63.6097 724.639 65.568 723.503C67.5894 722.366 70.1162 723.061 71.2533 725.018C72.3903 727.038 71.6955 729.564 69.7373 730.7ZM76.8755 626.964C78.8969 625.828 81.4238 626.522 82.5608 628.479C83.6979 630.5 83.003 633.025 81.0446 634.162C79.0232 635.298 76.4964 634.604 75.3593 632.647C74.2223 630.689 74.9173 628.101 76.8755 626.964ZM-19.2064 1000.62L4.22982 960.208C5.61952 960.524 7.13558 960.271 8.46218 959.514C11.368 957.872 12.3787 954.147 10.6731 951.243C9.03072 948.338 5.30361 947.328 2.39778 949.033C-0.508038 950.674 -1.51878 954.4 0.186847 957.304C0.755328 958.251 1.51338 959.009 2.39778 959.514L-20.912 999.607L-136.324 998.091L-103.539 941.646L46.4906 941.961L121.031 1071.65C116.294 1074.93 114.778 1081.31 117.683 1086.36C120.779 1091.73 127.601 1093.56 132.907 1090.46C138.277 1087.37 140.109 1080.55 137.014 1075.25C134.108 1070.2 127.791 1068.3 122.611 1070.7L47.6909 940.13L47.1223 940.13L24.5073 940.067L-56.8557 798.511L-56.9822 798.511L-114.53 800.342L-155.338 729.374L-69.1739 580.873L4.67197 580.999L31.8984 628.29L-41.9477 628.164L-92.4206 715.105C-96.274 713.527 -100.759 713.653 -104.612 715.863C-111.245 719.651 -113.52 728.175 -109.729 734.804C-105.939 741.434 -97.4111 743.707 -90.7782 739.919C-84.1454 736.13 -81.8712 727.607 -85.6613 720.977C-86.9248 718.83 -88.6303 717.126 -90.6518 715.926L-40.8105 630.058L31.9615 630.184L-24.7654 731.395L183.001 1092.86L147.373 1154.23L69.0423 1154.04L-19.2064 1000.62ZM135.497 1076.26C138.024 1080.68 136.508 1086.36 132.086 1088.88C127.664 1091.41 121.979 1089.89 119.452 1085.47C116.925 1081.06 118.442 1075.37 122.863 1072.85C127.285 1070.32 132.971 1071.84 135.497 1076.26ZM3.40859 950.674C5.43001 949.538 7.95681 950.232 9.09389 952.19C10.2309 954.21 9.53615 956.736 7.57784 957.872C5.55641 959.009 3.02962 958.314 1.89254 956.357C0.69234 954.336 1.3871 951.811 3.40859 950.674ZM-43.969 1043.3L-19.459 1001.06L68.4738 1154.04L19.6433 1153.92L-43.969 1043.3ZM-151.801 1024.99L-136.513 998.596L-21.1015 1000.11L-45.6116 1042.35L-141.946 1042.16L-151.801 1024.99ZM-366.516 912.413L-295.45 789.924L-259.695 852.115L-258.874 851.673L-258.874 852.621L-200.821 852.431L-127.733 979.592L-153.001 1023.09L-190.334 958.188L-191.282 958.756L-191.851 958.44L-235.943 1034.4L-303.788 916.39L-283.637 881.727C-281.741 883.053 -279.278 883.243 -277.13 882.043C-274.224 880.401 -273.214 876.676 -274.919 873.772C-276.625 870.868 -280.289 869.857 -283.194 871.562C-286.1 873.204 -287.111 876.929 -285.405 879.833C-285.279 880.023 -285.153 880.212 -285.027 880.401L-305.367 915.443L-366.516 912.413ZM-282.121 873.077C-280.099 871.941 -277.572 872.635 -276.435 874.593C-275.298 876.613 -275.993 879.139 -277.951 880.275C-279.91 881.412 -282.5 880.717 -283.637 878.76C-284.837 876.739 -284.142 874.214 -282.121 873.077ZM-400.944 854.262L-329.309 730.89L-296.46 788.03L-368.095 911.402L-400.944 854.262ZM-460.829 658.281L-371.001 658.47L-330.446 728.996L-402.081 852.368L-470.115 733.984L-436.635 734.047C-436.635 734.994 -436.319 736.004 -435.814 736.888C-434.171 739.792 -430.444 740.802 -427.538 739.098C-424.632 737.456 -423.622 733.731 -425.327 730.827C-426.97 727.922 -430.697 726.912 -433.603 728.617C-434.992 729.438 -435.94 730.7 -436.382 732.153L-505.427 732.026L-460.829 658.281ZM-432.655 730.195C-430.634 729.059 -428.107 729.753 -426.97 731.711C-425.833 733.731 -426.528 736.257 -428.486 737.393C-430.507 738.53 -433.034 737.835 -434.171 735.878C-435.308 733.92 -434.613 731.395 -432.655 730.195ZM-713.573 857.861C-714.71 855.841 -714.015 853.315 -712.057 852.179C-710.035 851.042 -707.509 851.737 -706.372 853.694C-705.235 855.714 -705.929 858.24 -707.888 859.376C-709.846 860.513 -712.436 859.818 -713.573 857.861Z" fill="#333333" fill-opacity="0.12"/>
<path d="M1557.21 977.256C1555.56 974.351 1551.84 973.341 1548.93 975.046C1546.02 976.688 1545.01 980.413 1546.72 983.317C1547.1 983.948 1547.54 984.517 1548.11 984.959L1435.98 1178.1L1303.39 1177.85L1347.99 1104.16L1393.72 1104.29L1451.84 1004.15L1451.4 1003.9C1452.91 1004.28 1454.55 1004.15 1455.94 1003.33C1458.85 1001.69 1459.86 997.965 1458.15 995.061C1456.51 992.156 1452.79 991.146 1449.88 992.851C1446.97 994.492 1445.96 998.218 1447.67 1001.12C1448.24 1002.13 1449.12 1002.95 1450.07 1003.46L1392.58 1102.52L1312.61 1102.33L1244.26 983.443L1258.66 958.693C1261.95 960.461 1266.05 960.587 1269.53 958.567C1274.9 955.473 1276.73 948.654 1273.63 943.35C1270.54 937.984 1263.72 936.153 1258.41 939.246C1253.04 942.34 1251.21 949.159 1254.3 954.463C1255.06 955.726 1256.01 956.799 1257.08 957.683L1243.19 981.612L1210.34 924.472L1296.57 775.971C1298.14 776.286 1299.85 776.034 1301.37 775.213C1304.71 773.319 1305.85 769.089 1303.96 765.742C1302.06 762.396 1297.83 761.259 1294.48 763.154C1291.13 765.048 1290 769.278 1291.89 772.624C1292.59 773.824 1293.6 774.771 1294.73 775.339L1208.76 923.462L1147.55 920.557L1181.28 862.47C1185.51 865.375 1191.2 865.753 1196 863.038C1202.63 859.25 1204.91 850.726 1201.12 844.097C1197.33 837.467 1188.8 835.194 1182.16 838.983C1175.53 842.771 1173.26 851.295 1177.05 857.924C1177.81 859.25 1178.69 860.323 1179.76 861.334L1145.9 919.61L1078.06 801.605L1091.26 778.812L1205.66 779.064C1205.79 779.506 1205.98 779.948 1206.23 780.39C1207.87 783.295 1211.6 784.305 1214.51 782.6C1217.41 780.895 1218.42 777.233 1216.72 774.329C1215.08 771.425 1211.35 770.415 1208.44 772.119C1206.55 773.193 1205.47 775.15 1205.41 777.17L1090.13 776.918L1089.87 777.36L1032.83 875.603L995.938 811.391L1022.85 764.985L948.119 634.983L982.61 635.046C982.736 635.93 982.989 636.751 983.494 637.571C985.389 640.918 989.621 642.054 992.969 640.16C996.318 638.266 997.455 634.036 995.559 630.689C993.664 627.343 989.432 626.206 986.084 628.101C984.126 629.237 982.989 631.131 982.673 633.152L904.91 632.962C904.973 631.826 904.721 630.689 904.089 629.616C902.447 626.712 898.72 625.701 895.814 627.406C892.908 629.048 891.897 632.773 893.603 635.677C895.308 638.582 898.972 639.592 901.878 637.887C903.078 637.193 903.963 636.119 904.468 634.856L945.908 634.92L1020.64 764.921L994.801 809.434L984.947 792.26L984.378 792.26L887.475 792.071L823.294 680.442L822.726 680.442L693.353 680.19L693.101 680.632L628.162 792.45L690.763 901.3L449.832 900.795L449.58 901.237L357.225 1060.28L282.621 929.965C287.359 926.682 288.875 920.305 285.969 915.254C282.874 909.887 276.051 908.056 270.745 911.15C265.375 914.244 263.543 921.063 266.639 926.366C269.545 931.417 275.862 933.311 281.042 930.912L356.404 1062.05L328.103 1110.79L408.582 1250.77L355.267 1251.53L296.139 1148.68L296.266 1148.49L295.887 1148.3L295.697 1147.98L295.508 1148.11L294.623 1147.6L250.53 1223.56L133.223 1221.92L175.232 1149.56C178.643 1151.71 183.065 1151.96 186.792 1149.88C192.161 1146.78 193.993 1139.96 190.898 1134.66C187.802 1129.29 180.98 1127.46 175.674 1130.56C170.304 1133.65 168.472 1140.47 171.568 1145.77C172.199 1146.91 173.084 1147.86 174.031 1148.68L173.716 1148.49L131.644 1220.97L50.7862 1080.23L82.6872 1025.24L213.449 1025.49C213.702 1027.26 214.271 1028.97 215.155 1030.61C218.945 1037.24 227.473 1039.51 234.106 1035.72C240.739 1031.93 243.013 1023.41 239.223 1016.78C235.433 1010.15 226.905 1007.88 220.272 1011.67C215.85 1014.19 213.386 1018.8 213.323 1023.6L81.6134 1023.35L81.3606 1023.79L9.66245 1147.29L81.108 1271.61L81.6765 1271.61L224.567 1271.92L224.82 1271.48L251.857 1224.82L310.037 1326.03L293.865 1353.88L177.127 1353.62C177.127 1352.68 176.811 1351.67 176.305 1350.78C174.663 1347.88 170.936 1346.87 168.03 1348.57C165.124 1350.21 164.114 1353.94 165.819 1356.84C167.462 1359.75 171.189 1360.76 174.094 1359.05C175.484 1358.23 176.432 1356.97 176.874 1355.52L294.939 1355.77L295.192 1355.33L311.111 1327.93L334.041 1367.83L421.153 1367.83L356.277 1479.58L447.242 1637.87L390.136 1736.24L447.369 1835.81L447.937 1835.81L562.275 1836.06L619.571 1737.38C621.276 1738.07 623.234 1738.07 625.003 1737.06C627.909 1735.42 628.92 1731.7 627.214 1728.79C625.572 1725.89 621.845 1724.88 618.939 1726.58C616.033 1728.22 615.022 1731.95 616.728 1734.85C617.044 1735.42 617.486 1735.93 617.991 1736.37L592.344 1780.57L510.918 1638.88L547.683 1638.95C547.936 1640.46 548.504 1641.98 549.325 1643.43C553.115 1650.06 561.643 1652.33 568.276 1648.54C574.909 1644.75 577.183 1636.23 573.393 1629.6C569.603 1622.97 561.075 1620.7 554.442 1624.49C549.831 1627.14 547.304 1632.06 547.493 1637.05L509.844 1636.99L475.29 1576.88L495.631 1542.15L627.467 1542.41L627.719 1542.79L628.162 1542.53L628.099 1542.34L644.586 1542.41C644.712 1543.29 644.965 1544.11 645.47 1544.93C647.365 1548.28 651.598 1549.42 654.946 1547.52C658.294 1545.63 659.431 1541.4 657.536 1538.05C655.641 1534.7 651.408 1533.57 648.06 1535.46C646.102 1536.6 644.965 1538.49 644.649 1540.51L627.025 1540.45L588.491 1473.4L620.834 1417.27L688.426 1417.39L721.401 1474.72C718.685 1476.81 717.863 1480.59 719.632 1483.69C721.527 1487.03 725.76 1488.17 729.108 1486.28C732.456 1484.38 733.593 1480.15 731.698 1476.81C729.929 1473.78 726.265 1472.58 723.106 1473.84L690.7 1417.46L762.146 1417.58L798.279 1480.47L761.956 1543.1C758.987 1542.09 755.639 1542.28 752.733 1543.99C747.364 1547.08 745.532 1553.9 748.627 1559.2C751.722 1564.51 758.545 1566.4 763.851 1563.31C769.221 1560.21 771.053 1553.39 767.957 1548.09C766.883 1546.26 765.367 1544.81 763.662 1543.86L799.353 1482.36L832.517 1540.01L761.64 1662.12L622.034 1661.8L675.16 1570.25C679.393 1572.9 684.889 1573.22 689.5 1570.57C696.133 1566.78 698.407 1558.25 694.617 1551.63C690.826 1545 682.298 1542.72 675.666 1546.51C669.033 1550.3 666.759 1558.82 670.549 1565.45C671.37 1566.9 672.381 1568.1 673.581 1569.11L619.255 1662.69L619.823 1663L619.823 1663.63L762.714 1663.95L834.665 1539.94L800.427 1480.41L833.023 1424.21L892.529 1527.76L879.453 1550.24L914.259 1610.79L984.126 1610.91L1018.87 1551.06C1020.51 1551.69 1022.41 1551.63 1024.11 1550.68C1027.02 1549.04 1028.03 1545.31 1026.32 1542.41C1024.68 1539.5 1020.95 1538.49 1018.05 1540.2C1015.14 1541.84 1014.13 1545.56 1015.84 1548.47C1016.22 1549.1 1016.72 1549.67 1017.23 1550.11L1000.04 1579.66L921.714 1577.76L893.792 1529.15L915.523 1491.71L976.924 1491.83C977.051 1492.72 977.303 1493.54 977.809 1494.36C979.704 1497.71 983.936 1498.84 987.284 1496.95C990.632 1495.05 991.769 1490.82 989.874 1487.48C987.979 1484.13 983.747 1482.99 980.399 1484.89C978.44 1486.02 977.303 1487.92 976.987 1489.94L934.158 1489.88L991.264 1395.99L1021.14 1396.05L1106.55 1544.62C1101.81 1547.9 1100.3 1554.28 1103.2 1559.33C1106.3 1564.69 1113.12 1566.53 1118.43 1563.43C1123.79 1560.34 1125.63 1553.52 1122.53 1548.22C1119.63 1543.16 1113.31 1541.27 1108.13 1543.67L1023.23 1395.99L1108.57 1396.18L1152.47 1320.48L1110.02 1246.6L1280.71 1246.98L1366.12 1395.61C1363.84 1397.44 1363.15 1400.72 1364.66 1403.31C1366.31 1406.22 1370.03 1407.23 1372.94 1405.52C1375.84 1403.88 1376.85 1400.16 1375.15 1397.25C1373.63 1394.66 1370.47 1393.59 1367.76 1394.6L1349.31 1362.53L1378.56 1310.69L1303.26 1179.68L1436.93 1179.93L1549.75 985.843C1551.39 986.474 1553.35 986.411 1554.99 985.464C1557.9 983.822 1558.91 980.097 1557.21 977.256ZM1017.29 1547.65C1016.15 1545.63 1016.85 1543.1 1018.81 1541.97C1020.83 1540.83 1023.35 1541.52 1024.49 1543.48C1025.63 1545.5 1024.93 1548.03 1022.98 1549.16C1020.95 1550.36 1018.43 1549.67 1017.29 1547.65ZM765.999 1549.04C768.526 1553.46 767.01 1559.14 762.588 1561.66C758.166 1564.19 752.481 1562.67 749.954 1558.25C747.427 1553.84 748.943 1548.15 753.365 1545.63C757.787 1543.1 763.472 1544.62 765.999 1549.04ZM618.307 1733.84C617.17 1731.82 617.865 1729.3 619.823 1728.16C621.845 1727.02 624.371 1727.72 625.509 1729.68C626.646 1731.7 625.951 1734.22 623.992 1735.36C622.034 1736.56 619.444 1735.86 618.307 1733.84ZM174.663 1351.73C174.979 1352.3 175.168 1352.99 175.232 1353.62L175.168 1353.62L175.168 1354.63C174.916 1355.77 174.221 1356.78 173.147 1357.41C171.125 1358.55 168.599 1357.85 167.462 1355.9C166.325 1353.88 167.019 1351.35 168.978 1350.21C170.936 1349.08 173.526 1349.71 174.663 1351.73ZM173.147 1144.57C170.62 1140.15 172.136 1134.47 176.558 1131.94C180.98 1129.42 186.665 1130.93 189.192 1135.35C191.719 1139.77 190.203 1145.46 185.781 1147.98C181.359 1150.51 175.737 1148.99 173.147 1144.57ZM250.214 1223.87L223.43 1270.03L82.1819 1269.71L11.8103 1147.29L50.4704 1080.68L131.265 1221.22L114.209 1250.58C112.756 1250.27 111.24 1250.46 109.85 1251.21C106.945 1252.85 105.934 1256.58 107.639 1259.48C109.345 1262.39 113.009 1263.4 115.915 1261.69C118.821 1260.05 119.831 1256.33 118.126 1253.42C117.62 1252.48 116.862 1251.78 115.978 1251.28L132.844 1222.17L250.214 1223.87ZM114.967 1260.05C112.946 1261.19 110.419 1260.49 109.282 1258.54C108.145 1256.52 108.84 1253.99 110.798 1252.85C112.819 1251.72 115.346 1252.41 116.483 1254.37C117.62 1256.39 116.989 1258.92 114.967 1260.05ZM902.573 630.247C903.71 632.268 903.015 634.793 901.057 635.93C899.035 637.066 896.509 636.372 895.372 634.414C894.234 632.394 894.929 629.868 896.888 628.732C898.909 627.532 901.436 628.227 902.573 630.247ZM1207.94 779.064C1206.8 777.044 1207.5 774.518 1209.45 773.382C1211.48 772.246 1214 772.94 1215.14 774.897C1216.28 776.855 1215.58 779.443 1213.62 780.58C1211.66 781.716 1209.07 781.022 1207.94 779.064ZM1256.01 953.263C1253.48 948.843 1255 943.161 1259.42 940.636C1263.84 938.11 1269.53 939.625 1272.06 944.045C1274.58 948.465 1273.07 954.147 1268.64 956.673C1264.22 959.198 1258.54 957.683 1256.01 953.263ZM1449.37 999.922C1448.24 997.902 1448.93 995.376 1450.89 994.24C1452.91 993.103 1455.44 993.798 1456.58 995.755C1457.71 997.776 1457.02 1000.3 1455.06 1001.44C1453.04 1002.64 1450.51 1001.94 1449.37 999.922ZM1367.95 1396.62C1369.91 1395.48 1372.5 1396.18 1373.63 1398.14C1374.77 1400.16 1374.08 1402.68 1372.12 1403.82C1370.1 1404.95 1367.57 1404.26 1366.43 1402.3C1365.29 1400.35 1365.99 1397.76 1367.95 1396.62ZM1108.44 1244.58L1080.65 1244.52L1136.24 1146.09L1114.26 1107.83L1170.86 1107.95L1211.92 1179.42L1212.49 1179.42L1302.88 1179.61L1378.18 1310.63L1349.19 1361.96L1281.97 1244.96L1281.4 1244.96L1109.08 1244.58L1109.01 1244.52L1108.44 1244.58ZM1113.12 1105.93L1043.82 985.401L1100.23 985.211L1169.66 1105.99L1113.12 1105.93ZM1094.8 1271.1L1108.51 1247.55L1150.45 1320.48L1136.74 1344.03L1094.8 1271.1ZM1080.65 1246.41L1106.93 1246.48L1093.73 1269.21L1080.65 1246.41ZM1023.42 1394.03L1094.55 1271.54L1136.49 1344.47L1107.62 1394.22L1023.42 1394.03ZM1108.32 1545.75C1112.74 1543.23 1118.43 1544.74 1120.95 1549.16C1123.48 1553.58 1121.96 1559.27 1117.54 1561.79C1113.12 1564.32 1107.43 1562.8 1104.91 1558.38C1102.38 1553.96 1103.9 1548.28 1108.32 1545.75ZM945.845 1314.92L1066.12 1107.7L1113.69 1107.83L1135.67 1146.09L1080.08 1244.52L1021.46 1244.39L981.283 1313.66C979.388 1312.9 977.114 1312.96 975.219 1314.04C971.871 1315.93 970.734 1320.16 972.629 1323.51C974.524 1326.85 978.756 1327.99 982.104 1326.1C985.452 1324.2 986.589 1319.97 984.694 1316.62C984.252 1315.8 983.62 1315.17 982.925 1314.6L1022.6 1246.29L1080.14 1246.41L1093.47 1269.65L1021.21 1394.1L991.327 1394.03L945.845 1314.92ZM1043.32 985.464L1112.61 1105.99L1067.26 1105.87L1067.76 1105.05L999.034 985.59L1043.32 985.464ZM997.96 983.696L947.171 895.302L969.47 856.914L1042.31 983.57L997.96 983.696ZM956.331 1035.22L899.162 1037.05L818.051 895.934L945.466 896.186L995.749 983.633L929.357 983.822L929.357 984.39L913.628 957.051C918.366 953.768 919.882 947.391 916.976 942.34C913.88 936.973 907.058 935.142 901.752 938.236C896.382 941.33 894.55 948.149 897.646 953.453C900.551 958.504 906.869 960.398 912.049 957.999L956.331 1035.22ZM899.225 952.569C896.698 948.149 898.214 942.466 902.636 939.941C907.058 937.415 912.743 938.931 915.27 943.35C917.797 947.77 916.281 953.453 911.859 955.978C907.5 958.567 901.815 956.988 899.225 952.569ZM996.823 985.59L1024.11 1033.07L958.479 1035.15L930.115 985.779L996.823 985.59ZM1024.37 1033.51L1065.49 1105.05L1064.98 1105.87L999.034 1105.74L958.731 1035.66L1024.37 1033.51ZM912.427 1256.83L999.034 1107.64L1063.91 1107.76L944.707 1313.09L912.427 1256.83ZM848.562 1393.78L803.206 1314.92L945.402 1315.24L990.759 1394.1L848.562 1393.78ZM836.75 1256.9L801.185 1312.2L801.627 1312.96L703.713 1312.77L680.593 1272.55L714.199 1214.72L738.33 1256.77L738.899 1256.77L836.75 1256.9ZM639.595 1101.7C637.069 1097.28 638.585 1091.6 643.007 1089.07C647.429 1086.55 653.114 1088.06 655.641 1092.48C658.168 1096.9 656.651 1102.59 652.23 1105.11C647.808 1107.64 642.122 1106.12 639.595 1101.7ZM837.318 1256.9L912.048 1257.08L944.392 1313.28L802.196 1312.96L801.753 1312.27L837.318 1256.9ZM892.529 1527.44L833.023 1423.9L849.384 1395.67L990.759 1395.99L933.4 1490L914.323 1489.94L892.529 1527.44ZM893.35 1529.78L921.271 1578.4L999.602 1580.29L982.799 1609.21L915.081 1609.08L881.348 1550.43L893.35 1529.78ZM684.13 1347.25L702.892 1314.67L703.145 1314.67L802.701 1314.86L848.183 1393.97L799.037 1478.64L762.904 1415.75L762.335 1415.75L723.422 1415.69L684.13 1347.25ZM450.275 1319.53L410.414 1250.2L497.905 1104.98L535.302 1170.08C532.585 1172.16 531.764 1175.95 533.533 1179.05C535.428 1182.39 539.66 1183.53 543.008 1181.63C546.356 1179.74 547.493 1175.51 545.598 1172.16C543.83 1169.13 540.166 1167.93 537.007 1169.2L499.989 1104.8L582.047 1104.98L677.813 1271.61L501.442 1271.23C501.569 1269.84 501.316 1268.39 500.558 1267.12C498.663 1263.78 494.43 1262.64 491.082 1264.54C487.734 1266.43 486.597 1270.66 488.492 1274.01C490.388 1277.35 494.62 1278.49 497.968 1276.59C499.358 1275.77 500.368 1274.57 500.937 1273.12L678.887 1273.5L702.45 1314.48L683.562 1347.31L722.917 1415.75L689.31 1415.69L634.289 1319.97L633.721 1319.97L450.275 1319.53ZM549.704 1540.39L587.985 1473.97L626.267 1540.58L549.704 1540.39ZM496.641 1540.26L536.691 1471.82L586.343 1473.02L547.493 1540.39L496.641 1540.26ZM449.453 1638.76L510.286 1638.88L591.965 1781.01L561.138 1834.11L448.443 1833.85L392.284 1736.18L448.569 1639.26L449.453 1638.76ZM422.416 1369.34L461.013 1436.46L431.323 1487.6C428.986 1487.35 426.586 1487.73 424.438 1488.99C419.068 1492.09 417.236 1498.9 420.332 1504.21C423.427 1509.58 430.249 1511.41 435.556 1508.31C440.925 1505.22 442.757 1498.4 439.662 1493.1C438.209 1490.57 435.872 1488.8 433.219 1487.98L489.756 1390.56L536.249 1471.44L496.01 1540.13L448.632 1540.01C448.506 1539.44 448.253 1538.87 448 1538.3C446.358 1535.4 442.631 1534.39 439.725 1536.09C436.819 1537.73 435.808 1541.46 437.514 1544.36C439.156 1547.27 442.884 1548.28 445.789 1546.57C447.558 1545.56 448.632 1543.8 448.821 1541.9L494.999 1542.03L474.658 1576.75L509.212 1636.86L448.885 1636.74L358.425 1479.52L422.416 1369.34ZM444.842 1545.06C442.82 1546.2 440.294 1545.5 439.157 1543.54C438.019 1541.52 438.714 1539 440.673 1537.86C442.694 1536.72 445.221 1537.42 446.358 1539.38C447.558 1541.4 446.863 1543.92 444.842 1545.06ZM438.019 1494.11C440.546 1498.53 439.03 1504.21 434.608 1506.73C430.186 1509.26 424.501 1507.74 421.974 1503.32C419.447 1498.9 420.963 1493.22 425.385 1490.7C429.807 1488.11 435.493 1489.69 438.019 1494.11ZM353.119 1251.72L310.226 1325.59L252.046 1224.38L294.939 1150.51L353.119 1251.72ZM448.632 1320.41L421.406 1367.32L334.294 1367.32L311.363 1327.42L355.203 1251.91L408.772 1251.15L448.632 1320.41ZM450.275 1321.42L633.215 1321.8L687.163 1415.63L619.571 1415.5L619.318 1416L586.722 1472.58L536.818 1471.38L490.324 1390.5L604.599 1390.75C604.726 1391.38 604.915 1391.95 605.294 1392.52C606.937 1395.42 610.664 1396.43 613.569 1394.73C616.475 1393.08 617.486 1389.36 615.78 1386.46C614.138 1383.55 610.411 1382.54 607.505 1384.25C605.736 1385.26 604.726 1386.96 604.536 1388.85L488.998 1388.6L461.392 1436.08L422.795 1368.97L450.275 1321.42ZM608.326 1385.82C610.348 1384.69 612.874 1385.38 614.012 1387.34C615.149 1389.36 614.454 1391.89 612.495 1393.02C610.474 1394.16 607.947 1393.46 606.81 1391.51C605.673 1389.49 606.368 1386.96 608.326 1385.82ZM280.852 928.829C276.43 931.354 270.745 929.839 268.218 925.419C265.691 920.999 267.207 915.317 271.629 912.791C276.051 910.266 281.736 911.781 284.263 916.201C286.853 920.557 285.337 926.24 280.852 928.829ZM497.526 1104.73L410.161 1249.7L330.251 1110.67L357.414 1063.82L380.787 1104.42L381.356 1104.42L497.526 1104.73ZM506.559 999.291L471.689 1059.34L496.705 1102.9L381.861 1102.65L358.488 1062.05L450.969 902.752L506.559 999.291ZM621.971 1034.21L582.047 1103.03L498.916 1102.84L473.9 1059.27L507.633 1001.12L524.752 1030.92L524.879 1030.92L621.971 1034.21ZM525.005 1030.54L507.886 1000.74L540.608 944.361L673.644 944.613L673.834 944.929L622.224 1033.83L525.005 1030.54ZM866.313 1104.61L809.586 1205.75L769.094 1205.69C769.158 1204.55 768.905 1203.42 768.273 1202.41C766.631 1199.5 762.904 1198.49 759.998 1200.2C757.092 1201.84 756.081 1205.56 757.787 1208.47C759.429 1211.37 763.156 1212.38 766.062 1210.68C767.326 1209.98 768.21 1208.85 768.715 1207.58L809.586 1207.65L836.813 1254.94L739.404 1254.75L715.273 1212.7L772.253 1114.52C773.895 1115.15 775.79 1115.02 777.37 1114.08C780.275 1112.43 781.286 1108.71 779.581 1105.81C777.938 1102.9 774.211 1101.89 771.305 1103.6C768.399 1105.24 767.389 1108.96 769.094 1111.87C769.473 1112.56 769.979 1113.13 770.61 1113.57L714.136 1210.8L653.998 1106.12C658.736 1102.84 660.252 1096.46 657.346 1091.41C654.251 1086.04 647.429 1084.21 642.122 1087.31C636.753 1090.4 634.921 1097.22 638.016 1102.52C640.922 1107.57 647.239 1109.47 652.419 1107.07L713.126 1212.7L679.519 1270.53L583.753 1103.91L674.971 946.697L736.814 1054.41C734.098 1056.49 733.277 1060.28 735.046 1063.38C736.941 1066.72 741.173 1067.86 744.521 1065.97C747.869 1064.07 749.006 1059.84 747.111 1056.49C745.342 1053.46 741.679 1052.26 738.52 1053.53L676.108 944.992L684.13 931.228C685.962 932.301 688.3 932.427 690.321 931.291C693.227 929.649 694.238 925.924 692.532 923.02C690.827 920.116 687.163 919.105 684.257 920.81C681.351 922.452 680.34 926.177 682.046 929.081C682.235 929.397 682.425 929.713 682.678 929.965L675.034 943.098L674.844 942.782L674.276 942.782L539.597 942.466L539.344 942.908L506.875 998.849L451.475 902.5L692.09 903.005L692.848 904.331L808.955 1106.31C806.238 1108.39 805.417 1112.18 807.186 1115.28C809.081 1118.62 813.314 1119.76 816.662 1117.86C820.01 1115.97 821.147 1111.74 819.252 1108.39C817.483 1105.36 813.819 1104.16 810.66 1105.43L694.554 903.447L693.227 901.174L630.625 792.323L658.862 743.707L866.313 1104.61ZM685.078 922.325C687.099 921.189 689.626 921.883 690.763 923.841C691.9 925.798 691.205 928.387 689.247 929.523C687.226 930.66 684.699 929.965 683.562 928.008C682.425 926.051 683.12 923.462 685.078 922.325ZM772.316 1105.3C774.337 1104.16 776.864 1104.86 778.001 1106.82C779.138 1108.84 778.444 1111.36 776.485 1112.5C774.464 1113.63 771.937 1112.94 770.8 1110.98C769.6 1108.96 770.295 1106.44 772.316 1105.3ZM765.115 1209.04C763.093 1210.17 760.566 1209.48 759.429 1207.52C758.292 1205.5 758.987 1202.98 760.945 1201.84C762.967 1200.7 765.494 1201.4 766.631 1203.35C767.831 1205.31 767.136 1207.9 765.115 1209.04ZM861.197 835.447L837.76 875.855C836.371 875.54 834.855 875.792 833.528 876.55C830.622 878.192 829.611 881.917 831.317 884.821C832.959 887.726 836.686 888.736 839.592 887.031C842.498 885.389 843.509 881.664 841.803 878.76C841.235 877.813 840.477 877.055 839.592 876.55L862.902 836.457L978.314 837.972L945.529 894.418L795.499 894.103L720.959 764.416C725.696 761.133 727.213 754.756 724.307 749.705C721.211 744.338 714.389 742.507 709.083 745.601C703.776 748.695 701.881 755.514 704.977 760.817C707.882 765.869 714.2 767.763 719.379 765.363L794.489 895.997L795.057 895.997L817.672 896.06L899.035 1037.62L899.162 1037.62L956.71 1035.78L997.518 1106.75L911.164 1255.19L837.318 1255.06L810.092 1207.77L883.938 1207.9L934.411 1120.96C938.264 1122.54 942.749 1122.41 946.603 1120.2C953.235 1116.41 955.51 1107.89 951.719 1101.26C947.929 1094.63 939.401 1092.36 932.768 1096.15C926.135 1099.93 923.861 1108.46 927.651 1115.09C928.915 1117.23 930.621 1118.94 932.642 1120.14L882.801 1206.01L810.029 1205.88L866.755 1104.67L659.052 743.139L694.68 681.768L773.011 681.958L861.197 835.447ZM706.493 759.744C703.966 755.324 705.482 749.642 709.904 747.116C714.326 744.591 720.011 746.106 722.538 750.526C725.065 754.946 723.549 760.628 719.127 763.154C714.705 765.742 709.02 764.164 706.493 759.744ZM838.645 885.326C836.623 886.463 834.096 885.768 832.959 883.811C831.822 881.791 832.517 879.265 834.476 878.129C836.497 876.992 839.024 877.687 840.161 879.644C841.298 881.664 840.603 884.19 838.645 885.326ZM886.022 792.765L861.512 835.005L773.579 682.021L822.41 682.147L886.022 792.765ZM993.854 811.076L978.567 837.467L863.155 835.952L887.665 793.713L983.999 793.902L993.854 811.076ZM1208.51 923.588L1137.44 1046.08L1101.69 983.885L1100.86 984.327L1100.86 983.38L1042.81 983.57L969.723 856.409L994.991 812.907L1032.32 877.813L1033.27 877.245L1033.84 877.56L1077.93 801.605L1145.78 919.61L1125.63 954.273C1123.73 952.947 1121.27 952.758 1119.12 953.958C1116.21 955.599 1115.2 959.324 1116.91 962.229C1118.61 965.133 1122.28 966.143 1125.18 964.439C1128.09 962.797 1129.1 959.072 1127.4 956.168C1127.27 955.978 1127.14 955.789 1127.02 955.599L1147.36 920.557L1208.51 923.588ZM1124.17 962.923C1122.15 964.06 1119.63 963.365 1118.49 961.408C1117.35 959.388 1118.05 956.862 1120 955.726C1121.96 954.589 1124.55 955.284 1125.69 957.241C1126.83 959.261 1126.13 961.787 1124.17 962.923ZM1243 981.739L1171.36 1105.11L1138.51 1047.97L1210.15 924.598L1243 981.739ZM1302.88 1177.72L1213.05 1177.53L1172.5 1107.01L1244.07 983.696L1312.11 1102.08L1278.63 1102.02C1278.63 1101.07 1278.31 1100.06 1277.8 1099.18C1276.16 1096.27 1272.43 1095.26 1269.53 1096.97C1266.62 1098.61 1265.61 1102.33 1267.32 1105.24C1268.96 1108.14 1272.69 1109.15 1275.59 1107.45C1276.98 1106.63 1277.93 1105.36 1278.37 1103.91L1347.42 1104.04L1302.88 1177.72ZM1274.65 1105.81C1272.62 1106.94 1270.1 1106.25 1268.96 1104.29C1267.82 1102.27 1268.52 1099.74 1270.48 1098.61C1272.5 1097.47 1275.02 1098.17 1276.16 1100.12C1277.36 1102.08 1276.67 1104.67 1274.65 1105.81ZM1555.56 978.14C1556.7 980.16 1556.01 982.686 1554.05 983.822C1552.03 984.959 1549.5 984.264 1548.36 982.307C1547.22 980.286 1547.92 977.761 1549.88 976.624C1551.84 975.488 1554.43 976.182 1555.56 978.14Z" fill="#333333" fill-opacity="0.12"/>
</svg>
