<?xml version="1.0" encoding="utf-8"?>
<!-- Generator: Adobe Illustrator 26.3.1, SVG Export Plug-In . SVG Version: 6.00 Build 0)  -->
<svg version="1.1" id="Слой_1" xmlns="http://www.w3.org/2000/svg" xmlns:xlink="http://www.w3.org/1999/xlink" x="0px" y="0px"
	 viewBox="0 0 500 400" style="enable-background:new 0 0 500 400;" xml:space="preserve">
<style type="text/css">
	.st0{fill:#F8C6C8;}
	.st1{fill:#FFFFFF;}
	.st2{fill:#F29699;}
	.st3{fill:#3283B9;}
	.st4{fill:#0D4C75;}
	.st5{fill:#EFF8FD;}
	.st6{fill:#BBE1F8;}
	.st7{fill:#3E4149;}
</style>
<rect class="st0" width="500" height="400"/>
<rect x="21.8" class="st1" width="456.5" height="400"/>
<g>
	<rect x="36.9" y="82.4" class="st2" width="162.9" height="122.2"/>
	<circle class="st1" cx="159.6" cy="113.8" r="13.7"/>
	<path class="st1" d="M58.6,181.8l19.2-29.8c1.6-2.5,5-3.2,7.5-1.6c0.2,0.1,0.4,0.3,0.7,0.5l6.8,7.3c1.4,1.5,3.8,1.6,5.3,0.1
		c0.4-0.4,0.7-0.7,0.9-1.2l19.3-42.4c1-2,3.4-2.8,5.4-1.8c0.7,0.4,1.3,0.9,1.7,1.6L165,182c1.1,1.9,0.4,4.3-1.3,5.3
		c-0.6,0.4-1.3,0.5-2.1,0.5H61.6c-2.1,0-3.8-1.6-3.8-3.7C57.8,183.3,58.1,182.5,58.6,181.8z"/>
	<path class="st1" d="M194.5,199.3H41.4V86.8h153.1V199.3z M42.3,198.4h151.5V87.6H42.3V198.4z"/>
</g>
<rect y="20" class="st3" width="500" height="50"/>
<rect x="0" y="360" class="st4" width="500" height="40"/>
<circle class="st5" cx="31.7" cy="45" r="15"/>
<path class="st5" d="M72.1,30h230.3c7.4,0,13.4,6,13.4,13.4v3.1c0,7.4-6,13.4-13.4,13.4H72.1c-7.4,0-13.4-6-13.4-13.4v-3.1
	C58.6,36,64.6,30,72.1,30z"/>
<circle class="st5" cx="478.7" cy="380" r="10"/>
<circle class="st5" cx="425.1" cy="380" r="10"/>
<circle class="st5" cx="451.9" cy="380" r="10"/>
<rect class="st6" width="500" height="20"/>
<g>
	<path class="st7" d="M491.7,10l3.6-3.6c0.3-0.3,0.3-0.9,0-1.2c-0.3-0.3-0.9-0.3-1.2,0l-3.6,3.6l-3.6-3.6c-0.3-0.3-0.9-0.3-1.2,0
		c-0.3,0.3-0.3,0.9,0,1.2l3.6,3.6l-3.6,3.6c-0.3,0.3-0.3,0.9,0,1.2c0.2,0.2,0.4,0.2,0.6,0.2c0.2,0,0.4-0.1,0.6-0.2l3.6-3.6l3.6,3.6
		c0.2,0.2,0.4,0.2,0.6,0.2c0.2,0,0.4-0.1,0.6-0.2c0.3-0.3,0.3-0.9,0-1.2L491.7,10z"/>
	<g>
		<path class="st7" d="M480.2,15h-10c-0.6,0-1-0.4-1-0.8V5.8c0-0.5,0.4-0.8,1-0.8h10c0.6,0,1,0.4,1,0.8v8.3
			C481.2,14.6,480.7,15,480.2,15z M471.2,13.3h8V6.7h-8V13.3z"/>
	</g>
	<path class="st7" d="M463.8,11.5h-8c-0.5,0-1-0.4-1-1v-1c0-0.5,0.4-1,1-1h8c0.5,0,1,0.4,1,1v1C464.8,11.1,464.4,11.5,463.8,11.5z"
		/>
</g>
<g>
	<path class="st6" d="M247.7,105.7h183.5c5.9,0,10.7,4,10.7,9v2.1c0,4.9-4.8,9-10.7,9H247.7c-5.9,0-10.7-4-10.7-9v-2.1
		C236.9,109.7,241.7,105.7,247.7,105.7z"/>
	<path class="st6" d="M247.7,133h183.5c5.9,0,10.7,4,10.7,9v2.1c0,4.9-4.8,9-10.7,9H247.7c-5.9,0-10.7-4-10.7-9V142
		C236.9,137,241.7,133,247.7,133z"/>
	<path class="st6" d="M247.7,160.3h183.5c5.9,0,10.7,4,10.7,9v2.1c0,4.9-4.8,9-10.7,9H247.7c-5.9,0-10.7-4-10.7-9v-2.1
		C236.9,164.4,241.7,160.3,247.7,160.3z"/>
</g>
<g>
	<path class="st4" d="M296,50.3c-4.7-0.1-8.3-3.6-8.2-7.8c0.1-4.2,3.9-7.6,8.6-7.5c4.6,0.1,8.2,3.5,8.2,7.6
		C304.5,46.9,300.7,50.4,296,50.3z M296,36.3c-3.9,0.1-6.9,3-6.7,6.5s3.3,6.3,7.2,6.1c3.8-0.1,6.7-2.9,6.7-6.3
		C303.1,39.1,299.9,36.2,296,36.3z"/>
	<polygon class="st4" points="300.4,48.6 301.5,47.7 307.8,54.1 306.8,55 	"/>
</g>
<rect x="38.1" y="227.4" class="st0" width="423.8" height="115.9"/>
<rect x="196.8" y="239.1" class="st2" width="106.3" height="92.4"/>
<rect x="75.3" y="239.1" class="st2" width="106.3" height="92.4"/>
<g>
	<g>
		<polygon class="st1" points="176,326.7 169,326.7 169,324.7 174,324.7 174,319.7 176,319.7 		"/>
	</g>
	<g>
		<path class="st1" d="M157.4,326.7h-11.6v-2h11.6V326.7z M134.3,326.7h-11.6v-2h11.6V326.7z M111.1,326.7H99.5v-2h11.6V326.7z"/>
	</g>
	<g>
		<polygon class="st1" points="88,326.7 81,326.7 81,319.7 83,319.7 83,324.7 88,324.7 		"/>
	</g>
	<g>
		<path class="st1" d="M83,306h-2v-13.8h2V306z M83,278.4h-2v-13.8h2V278.4z"/>
	</g>
	<g>
		<polygon class="st1" points="83,250.9 81,250.9 81,243.9 88,243.9 88,245.9 83,245.9 		"/>
	</g>
	<g>
		<path class="st1" d="M157.4,245.9h-11.6v-2h11.6V245.9z M134.3,245.9h-11.6v-2h11.6V245.9z M111.1,245.9H99.5v-2h11.6V245.9z"/>
	</g>
	<g>
		<polygon class="st1" points="176,250.9 174,250.9 174,245.9 169,245.9 169,243.9 176,243.9 		"/>
	</g>
	<g>
		<path class="st1" d="M176,306h-2v-13.8h2V306z M176,278.4h-2v-13.8h2V278.4z"/>
	</g>
</g>
<rect x="318.8" y="239.1" class="st2" width="106.3" height="92.4"/>
<g>
	<g>
		<polygon class="st1" points="297.5,326.7 290.5,326.7 290.5,324.7 295.5,324.7 295.5,319.7 297.5,319.7 		"/>
	</g>
	<g>
		<path class="st1" d="M278.9,326.7h-11.6v-2h11.6V326.7z M255.8,326.7h-11.6v-2h11.6V326.7z M232.6,326.7h-11.6v-2h11.6V326.7z"/>
	</g>
	<g>
		<polygon class="st1" points="209.5,326.7 202.5,326.7 202.5,319.7 204.5,319.7 204.5,324.7 209.5,324.7 		"/>
	</g>
	<g>
		<path class="st1" d="M204.5,306h-2v-13.8h2V306z M204.5,278.4h-2v-13.8h2V278.4z"/>
	</g>
	<g>
		<polygon class="st1" points="204.5,250.9 202.5,250.9 202.5,243.9 209.5,243.9 209.5,245.9 204.5,245.9 		"/>
	</g>
	<g>
		<path class="st1" d="M278.9,245.9h-11.6v-2h11.6V245.9z M255.8,245.9h-11.6v-2h11.6V245.9z M232.6,245.9h-11.6v-2h11.6V245.9z"/>
	</g>
	<g>
		<polygon class="st1" points="297.5,250.9 295.5,250.9 295.5,245.9 290.5,245.9 290.5,243.9 297.5,243.9 		"/>
	</g>
	<g>
		<path class="st1" d="M297.5,306h-2v-13.8h2V306z M297.5,278.4h-2v-13.8h2V278.4z"/>
	</g>
</g>
<g>
	<g>
		<polygon class="st1" points="419.5,326.7 412.5,326.7 412.5,324.7 417.5,324.7 417.5,319.7 419.5,319.7 		"/>
	</g>
	<g>
		<path class="st1" d="M400.9,326.7h-11.6v-2h11.6V326.7z M377.8,326.7h-11.6v-2h11.6V326.7z M354.6,326.7h-11.6v-2h11.6V326.7z"/>
	</g>
	<g>
		<polygon class="st1" points="331.5,326.7 324.5,326.7 324.5,319.7 326.5,319.7 326.5,324.7 331.5,324.7 		"/>
	</g>
	<g>
		<path class="st1" d="M326.5,306h-2v-13.8h2V306z M326.5,278.4h-2v-13.8h2V278.4z"/>
	</g>
	<g>
		<polygon class="st1" points="326.5,250.9 324.5,250.9 324.5,243.9 331.5,243.9 331.5,245.9 326.5,245.9 		"/>
	</g>
	<g>
		<path class="st1" d="M400.9,245.9h-11.6v-2h11.6V245.9z M377.8,245.9h-11.6v-2h11.6V245.9z M354.6,245.9h-11.6v-2h11.6V245.9z"/>
	</g>
	<g>
		<polygon class="st1" points="419.5,250.9 417.5,250.9 417.5,245.9 412.5,245.9 412.5,243.9 419.5,243.9 		"/>
	</g>
	<g>
		<path class="st1" d="M419.5,306h-2v-13.8h2V306z M419.5,278.4h-2v-13.8h2V278.4z"/>
	</g>
</g>
</svg>
