<svg id="Слой_1" data-name="Слой 1" xmlns="http://www.w3.org/2000/svg" viewBox="0 0 400 400"><defs><style>.cls-1{fill:#bbe1f8;}.cls-2{fill:#f8c6c8;}.cls-3{fill:#aed1e6;}.cls-4{fill:#3e4149;}.cls-5{fill:#f29699;}.cls-6{fill:#fdfeff;}.cls-7{fill:#3283b9;}.cls-8{fill:#0d4c75;}</style></defs><path class="cls-1" d="M400,200a199.76,199.76,0,0,1-71.43,153.2h0a199.54,199.54,0,0,1-56.3,33.33q-3.93,1.53-7.95,2.89A199.45,199.45,0,0,1,200,400h-1.66a199.08,199.08,0,0,1-82.64-18.58c-2.06-1-4.09-2-6.11-3l-.5-.25h0q-7.24-3.7-14.13-8A200.89,200.89,0,0,1,70,352l-.67-.58q-5.12-4.41-9.92-9.16A199.71,199.71,0,0,1,0,200C0,89.54,89.55,0,200,0S400,89.54,400,200Z"/><path class="cls-2" d="M110,298.58l-.06.23c-3.63,14-9.63,43.81-15,71.41A200.89,200.89,0,0,1,70,352l-.67-.58A580.94,580.94,0,0,1,89,267.4L92.77,273Z"/><path class="cls-3" d="M272.26,305.58v81q-3.93,1.53-7.95,2.89A199.45,199.45,0,0,1,200,400h-1.66a199.08,199.08,0,0,1-82.64-18.58l8.92-111.47-12.73,31.82-2-2.95L92.76,273.07,89,267.4,76.25,248.31s19.09-78.91,99.28-92.91l0,0,0,0,.17.21.05.05.33.39.13.14.12.14.24.26.2.22,0,0,.09.09.41.43.28.28,1,.93.32.29.77.68c.45.39.93.78,1.44,1.18l0,0,.17.13c.32.25.66.49,1,.73l.76.53c.38.25.77.5,1.17.74s.71.41,1.08.61l.52.28,1.08.52.56.24c.42.18.84.35,1.27.5l.63.2a17.54,17.54,0,0,0,2.4.6q.51.09,1,.15c.34,0,.69.07,1,.09a16,16,0,0,0,4.63-.41l.76-.21a18.4,18.4,0,0,0,5.52-2.76c.36-.26.72-.53,1.08-.82a28.59,28.59,0,0,0,2.71-2.53c.37-.39.73-.79,1.09-1.21l.54-.65c.36-.44.71-.91,1.07-1.39l.54-.74a72.11,72.11,0,0,1,16.13,2.94S275.44,240,272.26,305.58Z"/><path class="cls-2" d="M365.61,312.17a200.87,200.87,0,0,1-37,41h0c-11.55,4.91-31.43,10-38.49-9.45L276.39,304.9l27.71-11.67,7.61,34Z"/><path class="cls-2" d="M233.84,95.5s3.52-6.29,6.33-2.47,5,12.8.71,19.13S235.35,121,232.8,121s-2.21-.86-2.21-.86Z"/><path class="cls-2" d="M157.3,95.5S153.78,89.21,151,93s-5,12.8-.72,19.13,5.54,8.87,8.08,8.87,2.21-.86,2.21-.86Z"/><path class="cls-2" d="M233.46,98.66s0-.08,0-.12c-3.29-22-19.14-38.6-38.19-38.6-18.44,0-33.88,15.6-37.82,36.52v0c-.17.85-.31,1.69-.43,2.56-.22,1.57-.38,3.18-.47,4.8h0a54.49,54.49,0,0,0,3.62,16.9,44.56,44.56,0,0,0,17,21.56,33.29,33.29,0,0,0,18.12,5.45A32.92,32.92,0,0,0,210.53,144c8.88-4.62,16.06-13.14,20.06-23.79h0A54.79,54.79,0,0,0,234,103.85h0C233.88,102.09,233.71,100.36,233.46,98.66Zm-38.21,36.5c-9.54-.13-13.36-10.45-13.36-10.45h27S204.8,135.27,195.25,135.16Z"/><path class="cls-2" d="M211.81,155.4c-17.17,24.18-36.28,0-36.28,0l.88-7.2h0l.72-5.88a33.29,33.29,0,0,0,18.12,5.45A32.92,32.92,0,0,0,210.53,144l.67,6h0Z"/><path class="cls-4" d="M172.35,70.76s-1.28,31.82-19.1,28-8.84-41.83,6.37-42c0,0,16.54-22.91,40.09-19.73,24.78,3.35,36.55,26,39.45,31.82,3.82,7.64,4.46,29.91-4.45,29.91-12.54,0-15.27-28-15.27-28S183.8,82.21,172.35,70.76Z"/><ellipse class="cls-4" cx="210.53" cy="97.49" rx="3.18" ry="4.45"/><ellipse class="cls-4" cx="178.71" cy="97.49" rx="3.18" ry="4.45"/><polygon class="cls-5" points="191.6 116.51 199.14 116.51 195.37 92.64 191.6 116.51"/><path class="cls-6" d="M208.85,124.71s-4,10.56-13.6,10.45-13.36-10.45-13.36-10.45Z"/><rect class="cls-4" x="199.94" y="82.85" width="17.82" height="3.82"/><rect class="cls-4" x="171.77" y="82.85" width="17.82" height="3.82"/><path class="cls-5" d="M210.53,144a32.92,32.92,0,0,1-15.28,3.79,33.29,33.29,0,0,1-18.12-5.45l-.72,5.88h0l.72.48a33.36,33.36,0,0,0,18.12,5.44,32.92,32.92,0,0,0,15.28-3.79c.23-.11.44-.24.67-.36h0Z"/><path class="cls-7" d="M185.35,163.54s-83.08,40.74-92.59,109.53L76.25,248.31s19.09-78.91,99.28-92.91A35.54,35.54,0,0,0,185.35,163.54Z"/><path class="cls-8" d="M318.07,285.22s-19.35,12.09-34.95,17.67a45.07,45.07,0,0,1-10.86,2.69c3.18-65.55-44.32-147.24-44.32-147.24a101.27,101.27,0,0,1,14.78,5.46C270,176.33,307.21,207.57,318.07,285.22Z"/><path class="cls-7" d="M272.26,305.58v81q-3.93,1.53-7.95,2.89A199.45,199.45,0,0,1,200,400h-1.66c3.49-11.17,7.73-23.46,12.86-36.84,30-78,.61-207.75.61-207.75a72.11,72.11,0,0,1,16.13,2.94S275.44,240,272.26,305.58Z"/><path class="cls-8" d="M219.11,88.11H205.76a5.17,5.17,0,0,0-5.16,5.16v9a5.17,5.17,0,0,0,5.16,5.16h13.35a5.17,5.17,0,0,0,5.16-5.16v-9A5.16,5.16,0,0,0,219.11,88.11Zm2.61,14.11a2.61,2.61,0,0,1-2.61,2.61H205.76a2.61,2.61,0,0,1-2.61-2.61v-9a2.62,2.62,0,0,1,2.61-2.62h13.35a2.62,2.62,0,0,1,2.61,2.62Z"/><path class="cls-8" d="M184.43,87.85H171.07a5.07,5.07,0,0,0-2.45.63,5.15,5.15,0,0,0-2.7,4.53V102a5.16,5.16,0,0,0,5.15,5.16h13.36a5.16,5.16,0,0,0,5.15-5.16V93A5.16,5.16,0,0,0,184.43,87.85ZM187,102a2.61,2.61,0,0,1-2.61,2.61H171.07a2.61,2.61,0,0,1-2.61-2.61V93a2.61,2.61,0,0,1,2.61-2.61h13.36A2.61,2.61,0,0,1,187,93Z"/><rect class="cls-8" x="188.31" y="96.47" width="13.56" height="2.55"/></svg>