<svg id="Слой_1" data-name="Слой 1" xmlns="http://www.w3.org/2000/svg" viewBox="0 0 400 400"><defs><style>.cls-1{fill:#bbe1f8;}.cls-2{fill:#fcdfba;}.cls-3{fill:#f8c6c8;}.cls-4{fill:#3e4149;}.cls-5{fill:#f29699;}.cls-6{fill:#0d4c75;}.cls-7{fill:#0c4368;}.cls-8{fill:#fdfeff;}.cls-9{fill:#3283b9;}.cls-10{fill:#307aac;}</style></defs><path class="cls-1" d="M400,200a199.76,199.76,0,0,1-71.43,153.2h0a199.54,199.54,0,0,1-56.3,33.33q-3.93,1.53-7.95,2.89c-.54.19-1.09.37-1.64.54a196,196,0,0,1-26.35,6.74A201.26,201.26,0,0,1,200,400h-1.66a200.13,200.13,0,0,1-51.26-7.07,197.26,197.26,0,0,1-31.38-11.51c-2.06-1-4.09-2-6.11-3l-.5-.25h0q-7.24-3.7-14.13-8A200.89,200.89,0,0,1,70,352l-.67-.58q-5.12-4.41-9.92-9.16A199.71,199.71,0,0,1,0,200C0,89.54,89.55,0,200,0S400,89.54,400,200Z"/><path class="cls-2" d="M225.7,101.53c0,1.08,0,2.15-.08,3.2-1-24.26-13.86-43.43-29.53-43.43-12.63,0-23.42,12.47-27.66,30a68,68,0,0,0-1.87,13.4c-.05-1-.08-2.12-.08-3.2,0-25.78,13.26-46.67,29.61-46.67S225.7,75.75,225.7,101.53Z"/><path class="cls-3" d="M225.62,104.73h0c-.6,14.18-5.24,26.63-12.11,34.52-4.88,5.61-10.91,8.93-17.42,8.93a20.07,20.07,0,0,1-10-2.74h0c-10.8-6.13-18.69-21.88-19.5-40.71h0a68,68,0,0,1,1.87-13.4c4.24-17.56,15-30,27.66-30C211.76,61.3,224.58,80.47,225.62,104.73Z"/><ellipse class="cls-4" cx="208.32" cy="104.42" rx="2.57" ry="3.86"/><ellipse class="cls-4" cx="180" cy="104.42" rx="2.57" ry="3.86"/><rect class="cls-4" x="170.99" y="95.41" width="15.45" height="2.57" transform="translate(-12.11 26.87) rotate(-8.32)"/><rect class="cls-4" x="201.88" y="95.41" width="15.45" height="2.57" transform="translate(403.02 222.7) rotate(-171.68)"/><polygon class="cls-5" points="196.09 118.58 190.3 118.58 196.09 105.74 196.09 118.58"/><path class="cls-3" d="M173.67,159.13s-21.35,2.58-44.52,16.74S106,193.89,97,179.73s-23.18-32.18-24.46-36,3.86-33.47,1.28-33.47-3.86,11.58-7.72,10.29-9-20.59-11.59-20.59,5.15,15.44,2.58,16.73-10.3-15.45-12.87-14.16,7.72,15.45,6.43,16.74-14.16-11.59-15.45-9,11.59,11.58,10.3,12.87-11.58-7.73-12.87-6.44,9,10.3,10.3,11.59,10.86,19.31,11.22,21.24,32.55,61.15,32.55,61.15,5.15,12.87,24.46,5.15,36.35-14.41,36.35-14.41Z"/><path class="cls-3" d="M242.43,160.42s29.43,41,41.75,57.82,26.48-2.46,59.95-19.2c0,0,15.45-20.6,18-19.31s-4.69,11.54-2.35,12.85,34.53-1.26,34.53,1.31-12.87,1.29-12.87,2.58,14.16,1.28,14.16,2.57-14.16,1.29-14.16,2.58,12.87,1.28,12.87,2.57-15.45,1.29-15.45,2.58,12.88,1.28,12.88,2.57-23.18,3.86-33.48,2.57S306.8,248,302.94,251.82s-16.74,11.59-27-1.29L245,211.91l-16.74-3.86Z"/><path class="cls-6" d="M236.32,396.71A201.26,201.26,0,0,1,200,400h-1.66a200.13,200.13,0,0,1-51.26-7.07c1.33-40.29,4-91.75,9.25-103.37l70.19-5a59.18,59.18,0,0,1,2.54,8.54C234.36,316.09,236,360.55,236.32,396.71Z"/><path class="cls-7" d="M262.67,390a196,196,0,0,1-26.35,6.74c-.35-36.16-2-80.62-7.26-103.59a59.18,59.18,0,0,0-2.54-8.54l26.21-1.86s7.73,5.15,9,57.93C262.18,358.73,262.47,375.6,262.67,390Z"/><path class="cls-8" d="M205.9,125s-3.49,9.11-11.73,9-11.52-9-11.52-9Z"/><path class="cls-9" d="M218,232.62c7.08-18.56.64-22.64-3.22-30.36S218,159.13,218,159.13l-38,19.33,7.69-19.93-14,.6-16.2,18c-23.17,28.32,1.29,47.63,2.48,51.1s-3.62,61.29-3.62,61.29c31.29,11.57,57.34,8.31,74.45,3.06a38.38,38.38,0,0,0-4.26-8C220.25,275.49,210.9,251.18,218,232.62Z"/><path class="cls-10" d="M237.29,250.53c-2.58-3.86,7.72-38.62,7.72-38.62-15.45-10.29-2.58-51.49-2.58-51.49L218,159.13s-7.08,35.41-3.22,43.13,10.3,11.8,3.22,30.36,2.27,42.87,8.54,52a38.38,38.38,0,0,1,4.26,8c13.95-4.29,21.95-9.89,21.95-9.89S239.86,254.4,237.29,250.53Z"/><path class="cls-3" d="M218,159.13s-14.17,20.64-38,19.34l7.68-19.94-.77-6.19-.85-6.89h0a20.07,20.07,0,0,0,10,2.74c6.51,0,12.54-3.32,17.42-8.93l3.18-.72.17,2.67Z"/><path class="cls-5" d="M216.86,141.21l0,0c-5.33,8.29-12.66,13.4-20.75,13.4a19.94,19.94,0,0,1-9.18-2.29l-.85-6.89h0a20.07,20.07,0,0,0,10,2.74c6.51,0,12.54-3.32,17.42-8.93l3.18-.72Z"/><path class="cls-4" d="M203.81,74.17s8.37,17.38,17.38,17.38c0,0-.44,18.67,1.93,18.67,1,0,.65,7.08-3.21,16.09-4.54,10.58-6.44,12.87-6.44,12.87l1.29,14.16s56.64-50.2,18-75.95c0,0,1.93-33.61-52.78-27.42s-23.52,50-25,58.31-.87,43.23,30.11,36.05c0,0-20.6-10.3-18-51.49C167.13,92.84,194.16,85.11,203.81,74.17Z"/><path class="cls-3" d="M227,100.56s5.15-9.65,10.3-1.93,0,16.73-3.87,18-5.15,1.29-6.43-1.29S227,100.56,227,100.56Z"/><path class="cls-3" d="M157.47,98.63c1.29-1.29,3.69-1.93,5.06,2.9s1.38,17.7.09,17.7-5.15-3.71-5.15-8.94S154.9,101.2,157.47,98.63Z"/></svg>