<svg id="Слой_1" data-name="Слой 1" xmlns="http://www.w3.org/2000/svg" viewBox="0 0 400 400"><defs><style>.cls-1{fill:#bbe1f8;}.cls-2{fill:#f8c6c8;}.cls-3{fill:#307aac;}.cls-4{fill:#3283b9;}.cls-5{fill:#f29699;}.cls-6{fill:#0d4c75;}.cls-7{fill:#3e4149;}.cls-8{fill:#fdfeff;}</style></defs><path class="cls-1" d="M400,200A200.07,200.07,0,0,1,109.59,378.44l-.5-.25h0A200.58,200.58,0,0,1,70,352q-5.48-4.68-10.59-9.74A199.71,199.71,0,0,1,0,200C0,89.54,89.55,0,200,0S400,89.54,400,200Z"/><path class="cls-2" d="M239.17,121.49s9.33-8.66,12-2-2.67,17.33-6.67,20-8.09,2.46-8,1.9S239.17,121.49,239.17,121.49Z"/><path class="cls-2" d="M161.89,118.93s-6.71-11.43-10.71-2.1,2.71,19.65,5.36,22.49,2,3.46,8.34,3.15S161.89,118.93,161.89,118.93Z"/><polygon class="cls-2" points="220.5 167.71 220.5 182.15 205.53 181.68 193.74 181.32 185.84 181.08 185.84 171.46 220.5 167.71"/><path class="cls-2" d="M220.51,182.15l-34.67-1.07S201.84,208.81,220.51,182.15Z"/><path class="cls-3" d="M275,279.83c-.49,5.81-2.25,23.91-4.33,45.2a586.36,586.36,0,0,1-63.89,2.69c8.5-8.61,18.91-20.21,32.37-36.27,2.12-2.53,4.15-4.92,6.11-7.25A178.54,178.54,0,0,0,275,279.83Z"/><path class="cls-4" d="M270.66,325c-2.1,21.36-4.52,45.91-6.35,64.4a200.58,200.58,0,0,1-154.72-11l.06-.46,0-.24c20.57-7.42,47.24-17.21,57.37-21.61,11.93-5.17,21.31-9.74,39.72-28.41H207A584.67,584.67,0,0,0,270.66,325Z"/><path class="cls-3" d="M194,282.43c-7.26,9.41-13.51,17.06-17.49,21-6.21,6.21-16.19,12.76-28.53,19.16a178.69,178.69,0,0,1-29.91-8.09c2.52-19.47,5.47-35.9,8.56-49.73A308.23,308.23,0,0,0,194,282.43Z"/><path class="cls-4" d="M148,322.62a330.61,330.61,0,0,1-33,14.7l.24-1.86,1.33-8q.75-6.68,1.55-12.93A178.69,178.69,0,0,0,148,322.62Z"/><path class="cls-4" d="M275.16,278.13c0,.16-.05.83-.14,1.91a178.7,178.7,0,0,1-29.75,4.37C259.15,268,269.06,256.6,276,248.84A137.68,137.68,0,0,1,275.16,278.13Z"/><path class="cls-5" d="M220.51,167.71v6.67a32,32,0,0,1-15,7.3,26.94,26.94,0,0,1-5,.47,27.83,27.83,0,0,1-6.77-.83,31.29,31.29,0,0,1-7.9-3.18v-6.68Z"/><ellipse class="cls-2" cx="200.51" cy="121.49" rx="38.66" ry="53.99"/><path class="cls-6" d="M276,248.84c-6.93,7.73-16.78,19-30.56,35.35-.07.07-.13.15-.19.22-2,2.33-4,4.72-6.1,7.25-13.36,15.94-23.71,27.48-32.16,36.06l-.21.22c-18.41,18.66-27.79,23.23-39.73,28.41-10.13,4.4-36.79,14.18-57.36,21.61l-.06,0-.56.21h0A200.58,200.58,0,0,1,70,352,460.81,460.81,0,0,0,115,337.32a330.61,330.61,0,0,0,33-14.7c12.34-6.4,22.32-12.95,28.53-19.16,4-4,10.23-11.62,17.49-21C218.43,250.74,254.39,199,254.39,199h0C269.48,213.13,274.63,232.7,276,248.84Z"/><path class="cls-6" d="M151.94,197.41c-9.29,13.91-19.93,35.74-25.31,67.39-3.09,13.83-6,30.26-8.56,49.73q-.79,6.25-1.55,12.93L59.45,342.28A200.75,200.75,0,0,1,38.52,318c22.19-3,56.64-17.83,67.34-47.89C119.15,232.79,135.34,210,151.94,197.41Z"/><rect class="cls-7" x="173.85" y="106.16" width="17.33" height="5.33" transform="translate(-14.62 29.49) rotate(-8.88)"/><rect class="cls-7" x="208.51" y="106.16" width="17.33" height="5.33" transform="translate(414.93 249.89) rotate(-171.12)"/><ellipse class="cls-7" cx="215.84" cy="122.83" rx="3.33" ry="4.67"/><ellipse class="cls-7" cx="182.51" cy="121.49" rx="3.33" ry="4.67"/><polygon class="cls-5" points="204.78 138.82 197.18 138.82 198.51 120.16 204.78 138.82"/><path class="cls-8" d="M214.63,146.82s-4.24,11.07-14.24,11-14-11-14-11Z"/><path class="cls-4" d="M220.51,182.15c-18.67,26.66-34.67-1.07-34.67-1.07s-14.61,2.31-32,14.89v0c-.63.46-1.27.93-1.91,1.42-9.29,13.91-19.93,35.74-25.31,67.39A308.23,308.23,0,0,0,194,282.43C218.43,250.74,254.39,199,254.39,199,246.27,191.35,235.3,185.28,220.51,182.15Z"/><path class="cls-7" d="M233.84,123.49s2.66-28-14.67-41.32c0,0-12,12-48,12l-8.66,31.33s-16.69-35.56-4-61.44,46.93-15.36,61.79-2.62,16.2.74,28.2,10.07c9.93,7.72,12,20-1.33,53.33Z"/></svg>