<?xml version="1.0" encoding="utf-8"?>
<!-- Generator: Adobe Illustrator 26.3.1, SVG Export Plug-In . SVG Version: 6.00 Build 0)  -->
<svg version="1.1" id="Слой_1" xmlns="http://www.w3.org/2000/svg" xmlns:xlink="http://www.w3.org/1999/xlink" x="0px" y="0px"
	 viewBox="0 0 631.5 368.3" style="enable-background:new 0 0 631.5 368.3;" xml:space="preserve">
<style type="text/css">
	.st0{fill:#BBE1F8;}
	.st1{fill:#6EA9D0;}
	.st2{fill:#7ABDE9;}
	.st3{fill:#95C6EC;}
	.st4{fill:#F29699;}
	.st5{fill:#3283B9;}
	.st6{fill:#F8C6C8;}
	.st7{fill:#3E4149;}
	.st8{fill:#FDFEFF;}
	.st9{fill:#307AAC;}
	.st10{fill:#444F5A;}
	.st11{fill:#E08C8E;}
	.st12{fill:#FFFFFF;}
</style>
<path class="st0" d="M155.7,361.9c0,0-96.3,0.2-132.6-57.1C-4.3,261.5-1.2,113.2,132.4,125.5C326.1,143.4,279.9-35.1,448.9,6.2
	c101.9,24.9,65.1,166.6,92.8,183.6c30,18.4,94.7,22.5,89.6,81.2c-4,45.9-33.9,68.8-60.1,80.1c-16.9,7.2-35.2,10.9-53.6,10.8H155.7z"
	/>
<path class="st1" d="M42.6,40.8c0,0,224.9,122.1,225.8,281.2l-121.1-2.7C147.3,319.3,47.4,155.1,42.6,40.8z"/>
<path class="st2" d="M276.7,360.6c0,0-219.4,67.9-276.7-199.7c0,0,198.4,26.3,270.5,154.1L276.7,360.6z"/>
<path class="st2" d="M341.1,300.5c0,0-0.5-115.5,224.8-137.5c0,0-14.7,140.4-96.8,188.2c-41.8,24.4-89.2,15.1-110-20.2L341.1,300.5z
	"/>
<path class="st3" d="M339.6,252.2c15.2-56.3,60.7-152,196.9-238.8c0,0,4.1,253.2-124.9,322c-16.3,8.6-36.2,6.1-49.7-6.4l0,0
	C340.6,309.5,332.1,279.9,339.6,252.2z"/>
<path class="st4" d="M362.8,187.2c0,0,10.1,17.4-8.9,20.9l3-20.9H362.8z"/>
<path class="st4" d="M302,208.1c0,0-13.7-2.2-9.9-20.9l8.2,12.5L302,208.1z"/>
<path class="st5" d="M434.4,335.1l-52,1.5h-96.5l-53.5-1.5c0,0,6.5-23.5,23.5-59.5c12.2-25.9,35.8-37.8,48.1-42.5l0,0
	c2.6-1,5.2-1.9,7.9-2.5l33.9,0.9c3.4,0.4,6.8,1,10.2,1.8C425.5,249.4,434.4,335.1,434.4,335.1z"/>
<path class="st6" d="M355.9,196.1c-0.5,11.5-4.6,21.7-10.8,28.4c-4.7,5.1-10.7,8.1-17.1,8.1c-6,0-11.5-2.6-16-7c-1-1-1.9-2-2.8-3.1
	c-5.2-6.6-8.6-15.9-9.1-26.3c0.9-20.4,13.1-36.5,27.9-36.5S355,175.7,355.9,196.1z"/>
<path class="st7" d="M339.9,165.6c0,0-24.5,12-35.5,13.5l-4.1,20.7c0,0-24.6-28.6,0-32.9c0,0,2.6-13.3,23.6-23.3c0,0,2,1,2,7
	c0,0,24-7,28,17c0,0,21.9,9.6,1.9,28.8C355.9,196.4,355.4,172.1,339.9,165.6z"/>
<ellipse class="st7" cx="339.9" cy="192.4" rx="2.5" ry="3.8"/>
<ellipse class="st7" cx="314.4" cy="191.6" rx="2.5" ry="3.8"/>
<rect x="307.4" y="183" transform="matrix(0.9895 -0.1447 0.1447 0.9895 -23.3265 47.2854)" class="st7" width="12" height="2"/>
<rect x="339.4" y="178" transform="matrix(0.1447 -0.9895 0.9895 0.1447 109.104 494.2493)" class="st7" width="2" height="12"/>
<path class="st8" d="M337.4,212.1c0,0-2.7,7.1-9.1,7s-9-7-9-7H337.4z"/>
<path class="st6" d="M329.9,254.6c-19,1.2-18-22-18-22v-7c4.5,4.4,10.1,7,16,7c6.5,0,12.4-3,17.1-8.1c0.2,1.4,0.4,2.9,0.5,4.4
	c0.1,0.9,0.1,1.8,0.2,2.6C346.3,242.6,343.1,253.8,329.9,254.6z"/>
<path class="st9" d="M231.9,335.6c0,0,8-19,36-6l28,13l-0.5,19.5c0,0-42.5,2.7-61.5-12.4C233.9,349.7,229.9,344.6,231.9,335.6z"/>
<path class="st9" d="M435.4,336.6c0,0-8-19-36-6l-28,13l1,18c0,0,42,4.2,61-10.9C433.4,350.7,437.4,345.6,435.4,336.6z"/>
<polygon class="st5" points="386.9,271.6 395.4,332.4 373.7,342.5 "/>
<polygon class="st5" points="289.3,275.9 305.4,351.1 283,336.6 270.5,330.8 "/>
<path class="st4" d="M345.6,228.8c-4.8,5.5-11,8.7-17.7,8.7c-6,0-11.5-2.6-16-7v-5c4.5,4.4,10.1,7,16,7c6.5,0,12.4-3,17.1-8.1
	C345.3,225.9,345.5,227.3,345.6,228.8z"/>
<polygon class="st10" points="308.7,293.1 281.4,293.1 288.4,353.1 315.6,353.1 378.7,353.1 387.9,293.1 "/>
<path class="st7" d="M290.6,352.1h86c2.8,0,5,2.2,5,5l0,0c0,2.8-2.2,5-5,5h-86c-2.8,0-5-2.2-5-5l0,0
	C285.6,354.3,288,352.1,290.6,352.1z"/>
<path class="st6" d="M430.1,101.7h50.8c7.1,0,12.9,5.8,12.9,12.9V180c0,7.1-5.8,12.9-12.9,12.9h-50.8c-7.1,0-12.9-5.8-12.9-12.9
	v-65.4C417.1,107.5,422.9,101.7,430.1,101.7z"/>
<circle class="st4" cx="437.2" cy="123" r="11.7"/>
<path class="st11" d="M441.8,108.2l-4.6,14.8l14.9-0.1C452,122.9,455,110.3,441.8,108.2z"/>
<rect x="460.6" y="112.8" class="st4" width="20.4" height="8.2"/>
<rect x="461.1" y="125.6" class="st4" width="19.4" height="4.1"/>
<rect x="441.2" y="144.4" class="st4" width="31.6" height="5.1"/>
<rect x="441.2" y="173" class="st4" width="31.6" height="5.1"/>
<rect x="441.2" y="158.7" class="st4" width="32.6" height="5.1"/>
<path class="st4" d="M478.4,192.1h-50.2c-7.4,0-13.4-6-13.4-13.4V113c0-7.4,6-13.4,13.4-13.4h50.2c7.4,0,13.4,6,13.4,13.4v65.7
	C491.8,186.1,485.8,192.1,478.4,192.1z M428.2,100.6c-6.8,0-12.4,5.6-12.4,12.4v65.7c0,6.8,5.6,12.4,12.4,12.4h50.2
	c6.8,0,12.4-5.5,12.4-12.4V113c0-6.8-5.6-12.4-12.4-12.4H428.2z"/>
<path class="st6" d="M482.7,234.1h97.7c9,0,16.3,7.3,16.3,16.3v52.8c0,9-7.3,16.3-16.3,16.3h-97.7c-9,0-16.3-7.3-16.3-16.3v-52.8
	C466.4,241.4,473.7,234.1,482.7,234.1z"/>
<rect x="481.3" y="290.6" class="st4" width="30.4" height="4.7"/>
<rect x="515.3" y="290.6" class="st4" width="30.4" height="4.7"/>
<rect x="549.3" y="290.6" class="st4" width="30.4" height="4.7"/>
<rect x="499.1" y="301.3" class="st4" width="29.5" height="2.3"/>
<path class="st4" d="M577.4,316h-97.3c-9.1,0-16.5-7.4-16.5-16.5v-50.9c0-9.1,7.4-16.5,16.5-16.5h97.3c9.1,0,16.5,7.4,16.5,16.5
	v50.9C593.8,308.7,586.5,316,577.4,316z M480.1,233.2c-8.6,0-15.5,7-15.5,15.5v50.9c0,8.6,7,15.5,15.5,15.5h97.3
	c8.6,0,15.5-7,15.5-15.5v-50.9c0-8.6-7-15.5-15.5-15.5L480.1,233.2z"/>
<rect x="536" y="301.2" class="st4" width="29.5" height="2.3"/>
<path class="st11" d="M516.6,254.8c-5.7-6.9-15.9-8-22.8-2.3c-6.9,5.7-8,15.9-2.3,22.8s15.9,8,22.8,2.3c1.3-1,2.4-2.2,3.3-3.6v-0.1
	L504,265L516.6,254.8z"/>
<path class="st4" d="M517.8,257.5l-9.1,7.4l9.8,6.4C521.4,267,521.1,261.4,517.8,257.5z"/>
<rect x="559.2" y="259.1" class="st4" width="4" height="21"/>
<rect x="569.7" y="266.6" class="st4" width="4" height="14"/>
<rect x="549.7" y="266.6" class="st4" width="4" height="14"/>
<polygon class="st4" points="578,280.8 541.7,280.8 541.7,249.1 542.7,249.1 542.7,279.8 578,279.8 "/>
<path class="st6" d="M104.9,151.4h104.6c9.6,0,17.5,7.8,17.5,17.5v56.6c0,9.6-7.8,17.5-17.5,17.5H104.9c-9.6,0-17.5-7.8-17.5-17.5
	v-56.6C87.4,159.2,95.3,151.4,104.9,151.4z"/>
<rect x="183.7" y="162.5" class="st4" width="27.8" height="6.3"/>
<rect x="185.3" y="189.5" class="st4" width="24.1" height="3.5"/>
<rect x="100.5" y="162.5" class="st4" width="72.9" height="6.3"/>
<rect x="112.8" y="227.7" class="st4" width="85.3" height="3.8"/>
<rect x="100.3" y="181.4" class="st11" width="73.1" height="38.9"/>
<rect x="184.9" y="215.2" class="st4" width="24.1" height="3.5"/>
<rect x="184.9" y="206.8" class="st4" width="24.1" height="3.5"/>
<rect x="184.9" y="198.4" class="st4" width="24.1" height="3.5"/>
<path class="st4" d="M206.3,239.2H102.1c-9.7,0-17.6-7.9-17.6-17.6V167c0-9.7,7.9-17.6,17.6-17.6h104.2c9.7,0,17.6,7.9,17.6,17.6
	v54.5C223.9,231.2,216,239.2,206.3,239.2L206.3,239.2z M102.1,150.4c-9.2,0-16.6,7.4-16.6,16.6v54.5c0,9.2,7.5,16.6,16.6,16.6h104.2
	c9.2,0,16.6-7.5,16.6-16.6V167c0-9.2-7.5-16.6-16.6-16.6H102.1z"/>
<path class="st6" d="M255.4,14.1H310c8.4,0,15.1,6.8,15.1,15.1v82.6c0,8.4-6.8,15.1-15.1,15.1h-54.6c-8.4,0-15.1-6.8-15.1-15.1V29.3
	C240.3,20.9,247.1,14.1,255.4,14.1z"/>
<path class="st4" d="M263.5,56.5c-6.5-0.2-11.6-5.5-11.4-12c0.2-6.5,5.5-11.6,12-11.4c6.4,0.2,11.4,5.4,11.4,11.7
	C275.4,51.3,270.1,56.6,263.5,56.5z M263.5,35.1c-5.4,0.2-9.6,4.6-9.4,10c0.2,5.4,4.6,9.6,10,9.4c5.3-0.2,9.4-4.5,9.4-9.7
	C273.4,39.3,269,35,263.5,35.1z"/>
<rect x="289.2" y="47" class="st4" width="21" height="3.1"/>
<rect x="289" y="37" class="st4" width="21.5" height="2.8"/>
<rect x="289" y="57" class="st4" width="21.5" height="2.8"/>
<rect x="255.2" y="92.4" class="st4" width="32" height="5.6"/>
<rect x="255" y="79.7" class="st4" width="32.1" height="5.6"/>
<rect x="255" y="107.7" class="st4" width="32.1" height="5.6"/>
<path class="st4" d="M307.3,126h-54c-8.6,0-15.6-7-15.7-15.7v-83c0-8.6,7-15.6,15.7-15.7h54c8.6,0,15.6,7,15.7,15.6v83
	C323,119,316,126,307.3,126L307.3,126z M253.3,12.8c-8,0-14.4,6.5-14.5,14.5v83c0,8,6.5,14.5,14.5,14.5h54c8,0,14.5-6.5,14.5-14.5
	v-83c0-8-6.5-14.5-14.5-14.5L253.3,12.8z"/>
<rect x="273.8" y="51.5" transform="matrix(0.7419 -0.6706 0.6706 0.7419 31.9768 199.2976)" class="st4" width="2" height="13.2"/>
<circle class="st11" cx="304.2" cy="83" r="4"/>
<circle class="st11" cx="304.2" cy="96" r="4"/>
<circle class="st11" cx="304.2" cy="110" r="4"/>
<polygon class="st4" points="328.4,195.2 325.2,206.8 331.2,206.8 "/>
<circle class="st12" cx="453.3" cy="39.8" r="13.8"/>
<g>
	<rect x="452.3" y="53.6" class="st12" width="2" height="6"/>
</g>
<g>
	<rect x="452.3" y="71.2" class="st12" width="2" height="11.7"/>
</g>
<g>
	<rect x="452.3" y="94.6" class="st12" width="2" height="6"/>
</g>
<g>
	<rect x="433.5" y="38.8" class="st12" width="6" height="2"/>
</g>
<g>
	<path class="st12" d="M422.1,40.8h-11.4v-2h11.4V40.8z M399.4,40.8H388v-2h11.4V40.8z M376.6,40.8h-11.4v-2h11.4V40.8z M353.9,40.8
		h-11.4v-2h11.4V40.8z"/>
</g>
<g>
	<rect x="325.2" y="38.8" class="st12" width="6" height="2"/>
</g>
<g>
	<rect x="386.3" y="302.6" class="st12" width="6" height="2"/>
</g>
<g>
	<path class="st12" d="M436.3,304.6h-11v-2h11V304.6z M414.3,304.6h-11v-2h11V304.6z"/>
</g>
<g>
	<polygon class="st12" points="454.3,304.6 447.3,304.6 447.3,302.6 452.3,302.6 452.3,297.6 454.3,297.6 	"/>
</g>
<g>
	<path class="st12" d="M454.3,286.5h-2v-11.2h2V286.5z M454.3,264.2h-2V253h2V264.2z M454.3,241.8h-2v-11.2h2V241.8z M454.3,219.5
		h-2v-11.2h2V219.5z"/>
</g>
<g>
	<rect x="452.3" y="191.1" class="st12" width="2" height="6"/>
</g>
<circle class="st12" cx="143.4" cy="283.4" r="13.8"/>
<g>
	<rect x="157.2" y="282.4" class="st12" width="6" height="2"/>
</g>
<g>
	<path class="st12" d="M281.8,284.4H270v-2h11.9v2H281.8z M258.1,284.4h-11.9v-2h11.9V284.4z M234.4,284.4h-11.9v-2h11.9V284.4z
		 M210.7,284.4h-11.9v-2h11.9V284.4z M187,284.4h-11.9v-2H187V284.4z"/>
</g>
<g>
	<polygon class="st12" points="300.7,293.1 298.7,293.1 298.7,284.4 293.7,284.4 293.7,282.4 300.7,282.4 	"/>
</g>
<g>
	<rect x="142.4" y="263.6" class="st12" width="2" height="6"/>
</g>
<g>
	<rect x="142.4" y="242.9" class="st12" width="2" height="6"/>
</g>
<g>
	<path class="st12" d="M333.6,336.9c-4.8,0-8.7-3.9-8.7-8.7s3.9-8.7,8.7-8.7s8.7,3.9,8.7,8.7S338.5,336.9,333.6,336.9z M333.6,320.5
		c-4.3,0-7.7,3.5-7.7,7.7s3.5,7.7,7.7,7.7s7.7-3.5,7.7-7.7S337.9,320.5,333.6,320.5z"/>
</g>
</svg>
