<?xml version="1.0" encoding="utf-8"?>
<!-- Generator: Adobe Illustrator 26.3.1, SVG Export Plug-In . SVG Version: 6.00 Build 0)  -->
<svg version="1.1" id="Слой_1" xmlns="http://www.w3.org/2000/svg" xmlns:xlink="http://www.w3.org/1999/xlink" x="0px" y="0px"
	 viewBox="0 0 623.4 391.5" style="enable-background:new 0 0 623.4 391.5;" xml:space="preserve">
<style type="text/css">
	.st0{fill:#BBE1F8;}
	.st1{fill:#6EA9D0;}
	.st2{fill:#7ABDE9;}
	.st3{fill:#95C6EC;}
	.st4{fill:#F8C6C8;}
	.st5{fill:#0D4C75;}
	.st6{fill:#3283B9;}
	.st7{fill:#F29699;}
	.st8{fill:#3E4149;}
	.st9{fill:#FDFEFF;}
	.st10{fill:#444F5A;}
</style>
<path class="st0" d="M169.3,374.9c0,0-100.2,0.1-121.5-47.3s-5.8-79.7,24.9-77.5c30.7,2.2-33.6-34-41.6-87.6
	c-3-20.3,12.3-107.6,69.1-77.1s75.5,95.9,111,54s101.6-120.3,169-68.9s11,120,23.3,145c12.3,25,67.2-31.9,119.3,0
	s16.8,141.6-25.3,159.4c-40.3,17-101.5,16.7-139.7,1.7C319.6,361.7,169.3,374.9,169.3,374.9z"/>
<path class="st1" d="M180,111.4c0,0,132.7,140.2,78.2,234.6L165,307.9C165,307.9,144.2,180.6,180,111.4z"/>
<path class="st2" d="M236.4,366.2c0,0-185.2-27.7-134.5-199.4c0,0,137,75.6,145.7,171.2L236.4,366.2z"/>
<path class="st3" d="M194.1,326.6c0,0-54.5,31-62.2,28.8c0,0,37.8,31.6,82.7,32.5c44.9,0.8,48.4-38.1,33.4-54.7
	C236.8,320.7,221.4,313.2,194.1,326.6z"/>
<path class="st2" d="M293.6,343.7c0,0-34.9-69.6,186.2-151.6c0,0,26.9,89.3-41.8,143.2c-34.9,27.4-85.6,36.4-117.2,21.4L293.6,343.7
	z"/>
<path class="st3" d="M283.4,278.7c10.3-45.9,42.2-124,140.8-195.4c0,0,6.9,206-86.7,262.7c-11.8,7.1-26.5,5.1-36.6-5l0,0
	C285.1,325.3,278.3,301.3,283.4,278.7z"/>
<path class="st4" d="M275.8,368.5l29.7,9.9l-30.7,0.1C274.7,378.5,270.7,369.8,275.8,368.5z"/>
<path class="st5" d="M327.8,278c0,0,25.1,17.1,62.1,91.1l-41.4-6.6l-13.6-13.4l-18.4-65.8L327.8,278z"/>
<polyline class="st5" points="241.9,331.1 245.3,358.3 310.9,380.1 331.9,364.1 "/>
<path class="st6" d="M271.9,265.1c0,0-38.5-3.5-77.5,78.5c0,0-14,24-8,29s0,10.3,89,8.6c0,0-3.9-12.4,3.8-15.8
	c0,0-52.3-11.4-56.3-11.4l19-23c0,0,8,38,90,33l3-15c0,0,14-9,11-25s-22.2-39.2-18.1-46.1c0,0-13.8-9.9-23.3-10.4L271.9,265.1z"/>
<path class="st5" d="M267.2,265.5c0,0-1.8,22.2,22.7,21.7s18.4-18.9,18.4-18.9l-3.8-0.6l-24-4.2L267.2,265.5z"/>
<path class="st4" d="M287.9,282.1c-17,0-16.5-17.5-16.5-17.5c1,0,3.8-3.8,4.2-7.8c0.2-2.6,0.2-4.8,0.2-4.8c4.1,4.1,9,6.4,14.2,6.4
	c4,0,7.8-1.3,11-3.7l0,0c0,0-0.3,2.6-0.6,5.4c-0.2,2.5-1.1,5.3-0.5,6c0.5,0.5,4.6,1.5,4.6,1.5S304.9,282.1,287.9,282.1z"/>
<path class="st7" d="M300.9,254.8l-25.6-5.6v3.5l0.2,4.2c4.1,4.2,9.1,6.6,14.4,6.6c3.7,0,7.3-1.2,10.4-3.3"/>
<path class="st4" d="M317,222.8c-0.8,9.9-4.6,19.4-10.9,27.1c-1.5,1.8-3.3,3.5-5.2,4.9l0,0c-3.2,2.4-7,3.6-11,3.7
	c-5.2,0-10.1-2.3-14.2-6.4c-0.3-0.3-0.7-0.7-1-1c-1-1-1.8-2.1-2.7-3.3c-4.5-6.4-11.5-28.6-12.3-38.6c1.6-20.2,16.9-19.6,30.1-22.5
	C311.9,181.8,318.9,200.6,317,222.8z"/>
<ellipse class="st8" cx="304.4" cy="217.6" rx="2.5" ry="3.8"/>
<ellipse class="st8" cx="278.9" cy="217.7" rx="2.5" ry="3.8"/>
<rect x="271.9" y="208.7" transform="matrix(0.9895 -0.1447 0.1447 0.9895 -27.4223 42.4189)" class="st8" width="12" height="2"/>
<rect x="301.9" y="203.7" transform="matrix(0.1447 -0.9895 0.9895 0.1447 51.5636 479.0901)" class="st8" width="2" height="12"/>
<path class="st9" d="M301.4,236.6c0,0-2.9,7.6-9.8,7.6s-9.7-7.6-9.7-7.6H301.4z"/>
<polygon class="st8" points="406.8,265 398.8,271 372.3,361.4 308.2,361.4 308.3,378.5 372.3,378.5 "/>
<polygon class="st10" points="462.3,266 406.8,265 372.3,378.5 430.1,378.5 456.7,378.5 488.3,266.5 "/>
<polygon class="st7" points="289.9,230.1 294.9,230.1 289.9,218.5 "/>
<path class="st8" d="M347.3,298.8c-12.4-13.2-28-23.2-45.1-29c-2.2-0.7-3.6-2.9-3.3-5.2l2-9.9c0,0,4-2.7,8.4-10.1
	c3.7-6.2,8-15.7,7.1-30.7c0,0-19.6-17.3-21.6-24.6c0,0-24,27.7-31,26.7c0,0,11.8,30.8,11.9,35.9c0.1,4.8,1,15.8-19.4,18.2
	c-2.8,0.3-5.5,1.3-7.9,2.9c-7.5,5-23.9,18.3-42.2,47.8c0,0-35.5-17.8-20.5-37.8s22.2-13.7,21.1-26.8s-9-25.9,15.5-32
	s15.1-21,19.4-33.7c5.8-16.8,22.7-32.3,50.9-26.2c1,0.2,2.1,0.5,3.1,0.8c8.8,2.3,12.9,5.6,15.3,8.8c3.5,4.8,3.2,9.6,8.2,11.7
	c0,0,27,2,19,30s-1,25,3,30s7.8,8.2,4.9,23.1S349.3,293,347.3,298.8z"/>
<g>
	<path class="st4" d="M470.3,115.5h-94c-6.6,0-12,5.4-12,12v33.7l-10.9,25.1l22.9-8.8h94c6.6,0,12-5.4,12-12v-38
		C482.3,120.9,476.9,115.5,470.3,115.5L470.3,115.5z"/>
	<path class="st7" d="M467.8,134.2H385c-0.6,0-1-0.4-1-1s0.4-1,1-1h82.8c0.6,0,1,0.4,1,1S468.4,134.2,467.8,134.2L467.8,134.2z"/>
	<path class="st7" d="M468.3,146.4h-82.8c-0.6,0-1-0.4-1-1s0.4-1,1-1h82.8c0.6,0,1,0.4,1,1S468.8,146.4,468.3,146.4z"/>
	<path class="st7" d="M468.3,158.4h-82.8c-0.6,0-1-0.4-1-1s0.4-1,1-1h82.8c0.6,0,1,0.4,1,1S468.8,158.4,468.3,158.4z"/>
</g>
<ellipse transform="matrix(0.9895 -0.1447 0.1447 0.9895 -29.5794 40.4473)" class="st4" cx="263.3" cy="223.6" rx="7.1" ry="11.5"/>
</svg>
